G04 #@! TF.FileFunction,Legend,Bot*
%FSLAX46Y46*%
G04 Gerber Fmt 4.6, Leading zero omitted, Abs format (unit mm)*
G04 Created by KiCad (PCBNEW (2014-jul-16 BZR unknown)-product) date Sun 25 Jan 2015 04:19:58 PM EST*
%MOMM*%
G01*
G04 APERTURE LIST*
%ADD10C,0.100000*%
%ADD11C,0.150000*%
G04 APERTURE END LIST*
D10*
X60000000Y-108500000D02*
X60000000Y-51500000D01*
X149000000Y-108500000D02*
X60000000Y-108500000D01*
X149000000Y-51500000D02*
X149000000Y-108500000D01*
X60000000Y-51500000D02*
X149000000Y-51500000D01*
D11*
X73833723Y-107669425D02*
G75*
G02X81363340Y-107850000I3666277J-4198855D01*
G01*
X73873993Y-107640830D02*
G75*
G02X70890920Y-106640960I-1258413J1195450D01*
G01*
X81126007Y-107640830D02*
G75*
G03X84109080Y-106640960I1258413J1195450D01*
G01*
X84104000Y-98291600D02*
X84104000Y-107080000D01*
X70896000Y-98291600D02*
X70896000Y-107080000D01*
X81068700Y-95256300D02*
X84104000Y-98291600D01*
X73931300Y-95256300D02*
X70896000Y-98291600D01*
X73931300Y-95256300D02*
X81068700Y-95256300D01*
X86961500Y-100412500D02*
X84091300Y-100412500D01*
X86961500Y-103587500D02*
X86961500Y-100412500D01*
X86961500Y-103587500D02*
X84091300Y-103587500D01*
X68038500Y-100412500D02*
X70908700Y-100412500D01*
X68038500Y-103587500D02*
X68038500Y-100412500D01*
X68038500Y-103587500D02*
X70908700Y-103587500D01*
X125025000Y-64225000D02*
X125025000Y-52775000D01*
X125025000Y-52775000D02*
X136975000Y-52775000D01*
X136975000Y-52775000D02*
X136975000Y-64225000D01*
X125025000Y-64225000D02*
X136975000Y-64225000D01*
D10*
X78542858Y-94083143D02*
X78457144Y-94111714D01*
X78428572Y-94140286D01*
X78400001Y-94197429D01*
X78400001Y-94283143D01*
X78428572Y-94340286D01*
X78457144Y-94368857D01*
X78514286Y-94397429D01*
X78742858Y-94397429D01*
X78742858Y-93797429D01*
X78542858Y-93797429D01*
X78485715Y-93826000D01*
X78457144Y-93854571D01*
X78428572Y-93911714D01*
X78428572Y-93968857D01*
X78457144Y-94026000D01*
X78485715Y-94054571D01*
X78542858Y-94083143D01*
X78742858Y-94083143D01*
X78228572Y-93797429D02*
X77885715Y-93797429D01*
X78057144Y-94397429D02*
X78057144Y-93797429D01*
X77371429Y-94397429D02*
X77714286Y-94397429D01*
X77542858Y-94397429D02*
X77542858Y-93797429D01*
X77600001Y-93883143D01*
X77657143Y-93940286D01*
X77714286Y-93968857D01*
X77000000Y-93797429D02*
X76942857Y-93797429D01*
X76885714Y-93826000D01*
X76857143Y-93854571D01*
X76828572Y-93911714D01*
X76800000Y-94026000D01*
X76800000Y-94168857D01*
X76828572Y-94283143D01*
X76857143Y-94340286D01*
X76885714Y-94368857D01*
X76942857Y-94397429D01*
X77000000Y-94397429D01*
X77057143Y-94368857D01*
X77085714Y-94340286D01*
X77114286Y-94283143D01*
X77142857Y-94168857D01*
X77142857Y-94026000D01*
X77114286Y-93911714D01*
X77085714Y-93854571D01*
X77057143Y-93826000D01*
X77000000Y-93797429D01*
X76228571Y-94397429D02*
X76571428Y-94397429D01*
X76400000Y-94397429D02*
X76400000Y-93797429D01*
X76457143Y-93883143D01*
X76514285Y-93940286D01*
X76571428Y-93968857D01*
D11*
X69752952Y-104611429D02*
X68991047Y-104611429D01*
X69371999Y-104992381D02*
X69371999Y-104230476D01*
X85754952Y-104611429D02*
X84993047Y-104611429D01*
X85373999Y-104992381D02*
X85373999Y-104230476D01*
D10*
X132028572Y-64421429D02*
X132028572Y-64907143D01*
X132000000Y-64964286D01*
X131971429Y-64992857D01*
X131914286Y-65021429D01*
X131800000Y-65021429D01*
X131742858Y-64992857D01*
X131714286Y-64964286D01*
X131685715Y-64907143D01*
X131685715Y-64421429D01*
X131114287Y-64421429D02*
X131400001Y-64421429D01*
X131428572Y-64707143D01*
X131400001Y-64678571D01*
X131342858Y-64650000D01*
X131200001Y-64650000D01*
X131142858Y-64678571D01*
X131114287Y-64707143D01*
X131085715Y-64764286D01*
X131085715Y-64907143D01*
X131114287Y-64964286D01*
X131142858Y-64992857D01*
X131200001Y-65021429D01*
X131342858Y-65021429D01*
X131400001Y-64992857D01*
X131428572Y-64964286D01*
X130714286Y-64421429D02*
X130657143Y-64421429D01*
X130600000Y-64450000D01*
X130571429Y-64478571D01*
X130542858Y-64535714D01*
X130514286Y-64650000D01*
X130514286Y-64792857D01*
X130542858Y-64907143D01*
X130571429Y-64964286D01*
X130600000Y-64992857D01*
X130657143Y-65021429D01*
X130714286Y-65021429D01*
X130771429Y-64992857D01*
X130800000Y-64964286D01*
X130828572Y-64907143D01*
X130857143Y-64792857D01*
X130857143Y-64650000D01*
X130828572Y-64535714D01*
X130800000Y-64478571D01*
X130771429Y-64450000D01*
X130714286Y-64421429D01*
X129942857Y-65021429D02*
X130285714Y-65021429D01*
X130114286Y-65021429D02*
X130114286Y-64421429D01*
X130171429Y-64507143D01*
X130228571Y-64564286D01*
X130285714Y-64592857D01*
M02*
