G04 #@! TF.FileFunction,Soldermask,Bot*
%FSLAX46Y46*%
G04 Gerber Fmt 4.6, Leading zero omitted, Abs format (unit mm)*
G04 Created by KiCad (PCBNEW (2014-jul-16 BZR unknown)-product) date Sun 25 Jan 2015 04:19:58 PM EST*
%MOMM*%
G01*
G04 APERTURE LIST*
%ADD10C,0.100000*%
%ADD11R,2.000000X2.000000*%
%ADD12C,2.000000*%
%ADD13C,5.650000*%
%ADD14R,1.650000X1.650000*%
%ADD15C,1.650000*%
%ADD16C,1.500000*%
%ADD17R,2.100000X2.100000*%
%ADD18C,2.400000*%
%ADD19R,3.962400X3.962400*%
%ADD20R,3.810000X3.810000*%
%ADD21R,0.700000X1.750000*%
%ADD22R,1.300000X1.500000*%
%ADD23R,1.500000X1.500000*%
%ADD24R,0.800000X1.500000*%
%ADD25R,1.500000X0.800000*%
%ADD26R,1.000000X1.550000*%
%ADD27R,0.800000X1.400000*%
%ADD28C,2.500000*%
G04 APERTURE END LIST*
D10*
X60000000Y-108500000D02*
X60000000Y-51500000D01*
X149000000Y-108500000D02*
X60000000Y-108500000D01*
X149000000Y-51500000D02*
X149000000Y-108500000D01*
X60000000Y-51500000D02*
X149000000Y-51500000D01*
D11*
X102000000Y-56750000D03*
D12*
X102000000Y-64250000D03*
D11*
X130250000Y-100000000D03*
D12*
X137750000Y-100000000D03*
D13*
X145500000Y-55000000D03*
X63500000Y-105000000D03*
X145500000Y-105000000D03*
X63500000Y-55000000D03*
D14*
X62500000Y-92500000D03*
D15*
X65040000Y-92500000D03*
X67580000Y-92500000D03*
X70120000Y-92500000D03*
X72660000Y-92500000D03*
X75200000Y-92500000D03*
D14*
X95500000Y-70750000D03*
D15*
X98040000Y-70750000D03*
X100580000Y-70750000D03*
X103120000Y-70750000D03*
X105660000Y-70750000D03*
X108200000Y-70750000D03*
D14*
X123500000Y-74250000D03*
D15*
X123500000Y-76790000D03*
X123500000Y-79330000D03*
D16*
X128500000Y-85500000D03*
X131000000Y-83000000D03*
X133500000Y-85500000D03*
D17*
X139000000Y-68600000D03*
D18*
X143000000Y-70300000D03*
X139000000Y-72000000D03*
X143000000Y-73700000D03*
X139000000Y-75400000D03*
D19*
X77500000Y-102000000D03*
D20*
X85374000Y-102000000D03*
X69626000Y-102000000D03*
D21*
X134200000Y-53200000D03*
X133100000Y-53200000D03*
X132000000Y-53200000D03*
X130900000Y-53200000D03*
X129800000Y-53200000D03*
X128700000Y-53200000D03*
X127600000Y-53200000D03*
X126500000Y-53200000D03*
D22*
X125200000Y-53325000D03*
D23*
X136650000Y-53325000D03*
D24*
X125025000Y-60925000D03*
D25*
X125350000Y-62425000D03*
D26*
X136500000Y-64000000D03*
D27*
X136975000Y-61575000D03*
D14*
X123750000Y-69750000D03*
D15*
X121210000Y-69750000D03*
D28*
X64600000Y-64000000D03*
X64600000Y-69080000D03*
X64600000Y-79000000D03*
X64600000Y-84080000D03*
X144100000Y-87500000D03*
X144100000Y-82420000D03*
D14*
X88100000Y-78400000D03*
X88100000Y-80900000D03*
M02*
