G04 #@! TF.FileFunction,Legend,Top*
%FSLAX46Y46*%
G04 Gerber Fmt 4.6, Leading zero omitted, Abs format (unit mm)*
G04 Created by KiCad (PCBNEW (2014-jul-16 BZR unknown)-product) date Sun 25 Jan 2015 04:19:58 PM EST*
%MOMM*%
G01*
G04 APERTURE LIST*
%ADD10C,0.100000*%
%ADD11C,0.300000*%
%ADD12C,0.400000*%
%ADD13C,0.150000*%
%ADD14C,0.250000*%
%ADD15C,0.500000*%
%ADD16C,0.600000*%
G04 APERTURE END LIST*
D10*
D11*
X70850001Y-102578571D02*
X71207144Y-104078571D01*
X71492858Y-103007143D01*
X71778572Y-104078571D01*
X72135715Y-102578571D01*
X72707144Y-104078571D02*
X72707144Y-103078571D01*
X72707144Y-102578571D02*
X72635715Y-102650000D01*
X72707144Y-102721429D01*
X72778572Y-102650000D01*
X72707144Y-102578571D01*
X72707144Y-102721429D01*
X73921430Y-103292857D02*
X73421430Y-103292857D01*
X73421430Y-104078571D02*
X73421430Y-102578571D01*
X74135716Y-102578571D01*
X74707144Y-104078571D02*
X74707144Y-103078571D01*
X74707144Y-102578571D02*
X74635715Y-102650000D01*
X74707144Y-102721429D01*
X74778572Y-102650000D01*
X74707144Y-102578571D01*
X74707144Y-102721429D01*
X76564287Y-104078571D02*
X76564287Y-102578571D01*
X76921430Y-102578571D01*
X77135715Y-102650000D01*
X77278573Y-102792857D01*
X77350001Y-102935714D01*
X77421430Y-103221429D01*
X77421430Y-103435714D01*
X77350001Y-103721429D01*
X77278573Y-103864286D01*
X77135715Y-104007143D01*
X76921430Y-104078571D01*
X76564287Y-104078571D01*
X78278573Y-104078571D02*
X78135715Y-104007143D01*
X78064287Y-103935714D01*
X77992858Y-103792857D01*
X77992858Y-103364286D01*
X78064287Y-103221429D01*
X78135715Y-103150000D01*
X78278573Y-103078571D01*
X78492858Y-103078571D01*
X78635715Y-103150000D01*
X78707144Y-103221429D01*
X78778573Y-103364286D01*
X78778573Y-103792857D01*
X78707144Y-103935714D01*
X78635715Y-104007143D01*
X78492858Y-104078571D01*
X78278573Y-104078571D01*
X79635716Y-104078571D02*
X79492858Y-104007143D01*
X79421430Y-103935714D01*
X79350001Y-103792857D01*
X79350001Y-103364286D01*
X79421430Y-103221429D01*
X79492858Y-103150000D01*
X79635716Y-103078571D01*
X79850001Y-103078571D01*
X79992858Y-103150000D01*
X80064287Y-103221429D01*
X80135716Y-103364286D01*
X80135716Y-103792857D01*
X80064287Y-103935714D01*
X79992858Y-104007143D01*
X79850001Y-104078571D01*
X79635716Y-104078571D01*
X80778573Y-104078571D02*
X80778573Y-103078571D01*
X80778573Y-103364286D02*
X80850001Y-103221429D01*
X80921430Y-103150000D01*
X81064287Y-103078571D01*
X81207144Y-103078571D01*
X81707144Y-104078571D02*
X81707144Y-102578571D01*
X81707144Y-103150000D02*
X81850001Y-103078571D01*
X82135715Y-103078571D01*
X82278572Y-103150000D01*
X82350001Y-103221429D01*
X82421430Y-103364286D01*
X82421430Y-103792857D01*
X82350001Y-103935714D01*
X82278572Y-104007143D01*
X82135715Y-104078571D01*
X81850001Y-104078571D01*
X81707144Y-104007143D01*
X83635715Y-104007143D02*
X83492858Y-104078571D01*
X83207144Y-104078571D01*
X83064287Y-104007143D01*
X82992858Y-103864286D01*
X82992858Y-103292857D01*
X83064287Y-103150000D01*
X83207144Y-103078571D01*
X83492858Y-103078571D01*
X83635715Y-103150000D01*
X83707144Y-103292857D01*
X83707144Y-103435714D01*
X82992858Y-103578571D01*
X84564287Y-104078571D02*
X84421429Y-104007143D01*
X84350001Y-103864286D01*
X84350001Y-102578571D01*
X85350001Y-104078571D02*
X85207143Y-104007143D01*
X85135715Y-103864286D01*
X85135715Y-102578571D01*
X70814287Y-105121429D02*
X70885716Y-105050000D01*
X71028573Y-104978571D01*
X71385716Y-104978571D01*
X71528573Y-105050000D01*
X71600002Y-105121429D01*
X71671430Y-105264286D01*
X71671430Y-105407143D01*
X71600002Y-105621429D01*
X70742859Y-106478571D01*
X71671430Y-106478571D01*
X72600001Y-104978571D02*
X72742858Y-104978571D01*
X72885715Y-105050000D01*
X72957144Y-105121429D01*
X73028573Y-105264286D01*
X73100001Y-105550000D01*
X73100001Y-105907143D01*
X73028573Y-106192857D01*
X72957144Y-106335714D01*
X72885715Y-106407143D01*
X72742858Y-106478571D01*
X72600001Y-106478571D01*
X72457144Y-106407143D01*
X72385715Y-106335714D01*
X72314287Y-106192857D01*
X72242858Y-105907143D01*
X72242858Y-105550000D01*
X72314287Y-105264286D01*
X72385715Y-105121429D01*
X72457144Y-105050000D01*
X72600001Y-104978571D01*
X74528572Y-106478571D02*
X73671429Y-106478571D01*
X74100001Y-106478571D02*
X74100001Y-104978571D01*
X73957144Y-105192857D01*
X73814286Y-105335714D01*
X73671429Y-105407143D01*
X75885715Y-104978571D02*
X75171429Y-104978571D01*
X75100000Y-105692857D01*
X75171429Y-105621429D01*
X75314286Y-105550000D01*
X75671429Y-105550000D01*
X75814286Y-105621429D01*
X75885715Y-105692857D01*
X75957143Y-105835714D01*
X75957143Y-106192857D01*
X75885715Y-106335714D01*
X75814286Y-106407143D01*
X75671429Y-106478571D01*
X75314286Y-106478571D01*
X75171429Y-106407143D01*
X75100000Y-106335714D01*
X76600000Y-105907143D02*
X77742857Y-105907143D01*
X78742857Y-104978571D02*
X78885714Y-104978571D01*
X79028571Y-105050000D01*
X79100000Y-105121429D01*
X79171429Y-105264286D01*
X79242857Y-105550000D01*
X79242857Y-105907143D01*
X79171429Y-106192857D01*
X79100000Y-106335714D01*
X79028571Y-106407143D01*
X78885714Y-106478571D01*
X78742857Y-106478571D01*
X78600000Y-106407143D01*
X78528571Y-106335714D01*
X78457143Y-106192857D01*
X78385714Y-105907143D01*
X78385714Y-105550000D01*
X78457143Y-105264286D01*
X78528571Y-105121429D01*
X78600000Y-105050000D01*
X78742857Y-104978571D01*
X80671428Y-106478571D02*
X79814285Y-106478571D01*
X80242857Y-106478571D02*
X80242857Y-104978571D01*
X80100000Y-105192857D01*
X79957142Y-105335714D01*
X79814285Y-105407143D01*
X81314285Y-105907143D02*
X82457142Y-105907143D01*
X83099999Y-105121429D02*
X83171428Y-105050000D01*
X83314285Y-104978571D01*
X83671428Y-104978571D01*
X83814285Y-105050000D01*
X83885714Y-105121429D01*
X83957142Y-105264286D01*
X83957142Y-105407143D01*
X83885714Y-105621429D01*
X83028571Y-106478571D01*
X83957142Y-106478571D01*
X85314285Y-104978571D02*
X84599999Y-104978571D01*
X84528570Y-105692857D01*
X84599999Y-105621429D01*
X84742856Y-105550000D01*
X85099999Y-105550000D01*
X85242856Y-105621429D01*
X85314285Y-105692857D01*
X85385713Y-105835714D01*
X85385713Y-106192857D01*
X85314285Y-106335714D01*
X85242856Y-106407143D01*
X85099999Y-106478571D01*
X84742856Y-106478571D01*
X84599999Y-106407143D01*
X84528570Y-106335714D01*
X126585714Y-89478571D02*
X127085714Y-90978571D01*
X127585714Y-89478571D01*
X128371428Y-89478571D02*
X128657142Y-89478571D01*
X128800000Y-89550000D01*
X128942857Y-89692857D01*
X129014285Y-89978571D01*
X129014285Y-90478571D01*
X128942857Y-90764286D01*
X128800000Y-90907143D01*
X128657142Y-90978571D01*
X128371428Y-90978571D01*
X128228571Y-90907143D01*
X128085714Y-90764286D01*
X128014285Y-90478571D01*
X128014285Y-89978571D01*
X128085714Y-89692857D01*
X128228571Y-89550000D01*
X128371428Y-89478571D01*
X130371429Y-90978571D02*
X129657143Y-90978571D01*
X129657143Y-89478571D01*
X130871429Y-89478571D02*
X130871429Y-90692857D01*
X130942857Y-90835714D01*
X131014286Y-90907143D01*
X131157143Y-90978571D01*
X131442857Y-90978571D01*
X131585715Y-90907143D01*
X131657143Y-90835714D01*
X131728572Y-90692857D01*
X131728572Y-89478571D01*
X132442858Y-90978571D02*
X132442858Y-89478571D01*
X132942858Y-90550000D01*
X133442858Y-89478571D01*
X133442858Y-90978571D01*
X134157144Y-90192857D02*
X134657144Y-90192857D01*
X134871430Y-90978571D02*
X134157144Y-90978571D01*
X134157144Y-89478571D01*
X134871430Y-89478571D01*
D10*
X103371429Y-68900000D02*
X103085714Y-69100000D01*
X103371429Y-69242857D02*
X102771429Y-69242857D01*
X102771429Y-69014285D01*
X102800000Y-68957143D01*
X102828571Y-68928571D01*
X102885714Y-68900000D01*
X102971429Y-68900000D01*
X103028571Y-68928571D01*
X103057143Y-68957143D01*
X103085714Y-69014285D01*
X103085714Y-69242857D01*
X102771429Y-68700000D02*
X103371429Y-68300000D01*
X102771429Y-68300000D02*
X103371429Y-68700000D01*
X105371429Y-69157143D02*
X105371429Y-68814286D01*
X105971429Y-68985715D02*
X105371429Y-68985715D01*
X105371429Y-68671429D02*
X105971429Y-68271429D01*
X105371429Y-68271429D02*
X105971429Y-68671429D01*
X125342858Y-79200000D02*
X125285715Y-79171429D01*
X125200001Y-79171429D01*
X125114286Y-79200000D01*
X125057144Y-79257143D01*
X125028572Y-79314286D01*
X125000001Y-79428571D01*
X125000001Y-79514286D01*
X125028572Y-79628571D01*
X125057144Y-79685714D01*
X125114286Y-79742857D01*
X125200001Y-79771429D01*
X125257144Y-79771429D01*
X125342858Y-79742857D01*
X125371429Y-79714286D01*
X125371429Y-79514286D01*
X125257144Y-79514286D01*
X125628572Y-79771429D02*
X125628572Y-79171429D01*
X125971429Y-79771429D01*
X125971429Y-79171429D01*
X126257143Y-79771429D02*
X126257143Y-79171429D01*
X126400000Y-79171429D01*
X126485715Y-79200000D01*
X126542857Y-79257143D01*
X126571429Y-79314286D01*
X126600000Y-79428571D01*
X126600000Y-79514286D01*
X126571429Y-79628571D01*
X126542857Y-79685714D01*
X126485715Y-79742857D01*
X126400000Y-79771429D01*
X126257143Y-79771429D01*
X125714286Y-78157144D02*
X125742857Y-78185715D01*
X125771429Y-78271429D01*
X125771429Y-78328572D01*
X125742857Y-78414287D01*
X125685714Y-78471429D01*
X125628571Y-78500001D01*
X125514286Y-78528572D01*
X125428571Y-78528572D01*
X125314286Y-78500001D01*
X125257143Y-78471429D01*
X125200000Y-78414287D01*
X125171429Y-78328572D01*
X125171429Y-78271429D01*
X125200000Y-78185715D01*
X125228571Y-78157144D01*
X125714286Y-77557144D02*
X125742857Y-77585715D01*
X125771429Y-77671429D01*
X125771429Y-77728572D01*
X125742857Y-77814287D01*
X125685714Y-77871429D01*
X125628571Y-77900001D01*
X125514286Y-77928572D01*
X125428571Y-77928572D01*
X125314286Y-77900001D01*
X125257143Y-77871429D01*
X125200000Y-77814287D01*
X125171429Y-77728572D01*
X125171429Y-77671429D01*
X125200000Y-77585715D01*
X125228571Y-77557144D01*
X125171429Y-77357144D02*
X125171429Y-76985715D01*
X125400000Y-77185715D01*
X125400000Y-77100001D01*
X125428571Y-77042858D01*
X125457143Y-77014287D01*
X125514286Y-76985715D01*
X125657143Y-76985715D01*
X125714286Y-77014287D01*
X125742857Y-77042858D01*
X125771429Y-77100001D01*
X125771429Y-77271429D01*
X125742857Y-77328572D01*
X125714286Y-77357144D01*
X125171429Y-76614286D02*
X125171429Y-76557143D01*
X125200000Y-76500000D01*
X125228571Y-76471429D01*
X125285714Y-76442858D01*
X125400000Y-76414286D01*
X125542857Y-76414286D01*
X125657143Y-76442858D01*
X125714286Y-76471429D01*
X125742857Y-76500000D01*
X125771429Y-76557143D01*
X125771429Y-76614286D01*
X125742857Y-76671429D01*
X125714286Y-76700000D01*
X125657143Y-76728572D01*
X125542857Y-76757143D01*
X125400000Y-76757143D01*
X125285714Y-76728572D01*
X125228571Y-76700000D01*
X125200000Y-76671429D01*
X125171429Y-76614286D01*
X125171429Y-76042857D02*
X125171429Y-75985714D01*
X125200000Y-75928571D01*
X125228571Y-75900000D01*
X125285714Y-75871429D01*
X125400000Y-75842857D01*
X125542857Y-75842857D01*
X125657143Y-75871429D01*
X125714286Y-75900000D01*
X125742857Y-75928571D01*
X125771429Y-75985714D01*
X125771429Y-76042857D01*
X125742857Y-76100000D01*
X125714286Y-76128571D01*
X125657143Y-76157143D01*
X125542857Y-76185714D01*
X125400000Y-76185714D01*
X125285714Y-76157143D01*
X125228571Y-76128571D01*
X125200000Y-76100000D01*
X125171429Y-76042857D01*
X125171429Y-75471428D02*
X125171429Y-75414285D01*
X125200000Y-75357142D01*
X125228571Y-75328571D01*
X125285714Y-75300000D01*
X125400000Y-75271428D01*
X125542857Y-75271428D01*
X125657143Y-75300000D01*
X125714286Y-75328571D01*
X125742857Y-75357142D01*
X125771429Y-75414285D01*
X125771429Y-75471428D01*
X125742857Y-75528571D01*
X125714286Y-75557142D01*
X125657143Y-75585714D01*
X125542857Y-75614285D01*
X125400000Y-75614285D01*
X125285714Y-75585714D01*
X125228571Y-75557142D01*
X125200000Y-75528571D01*
X125171429Y-75471428D01*
X125771429Y-75014285D02*
X125171429Y-75014285D01*
X125171429Y-74871428D01*
X125200000Y-74785713D01*
X125257143Y-74728571D01*
X125314286Y-74699999D01*
X125428571Y-74671428D01*
X125514286Y-74671428D01*
X125628571Y-74699999D01*
X125685714Y-74728571D01*
X125742857Y-74785713D01*
X125771429Y-74871428D01*
X125771429Y-75014285D01*
X125457143Y-74214285D02*
X125485714Y-74128571D01*
X125514286Y-74099999D01*
X125571429Y-74071428D01*
X125657143Y-74071428D01*
X125714286Y-74099999D01*
X125742857Y-74128571D01*
X125771429Y-74185713D01*
X125771429Y-74414285D01*
X125171429Y-74414285D01*
X125171429Y-74214285D01*
X125200000Y-74157142D01*
X125228571Y-74128571D01*
X125285714Y-74099999D01*
X125342857Y-74099999D01*
X125400000Y-74128571D01*
X125428571Y-74157142D01*
X125457143Y-74214285D01*
X125457143Y-74414285D01*
X125200000Y-73499999D02*
X125171429Y-73557142D01*
X125171429Y-73642856D01*
X125200000Y-73728571D01*
X125257143Y-73785713D01*
X125314286Y-73814285D01*
X125428571Y-73842856D01*
X125514286Y-73842856D01*
X125628571Y-73814285D01*
X125685714Y-73785713D01*
X125742857Y-73728571D01*
X125771429Y-73642856D01*
X125771429Y-73585713D01*
X125742857Y-73499999D01*
X125714286Y-73471428D01*
X125514286Y-73471428D01*
X125514286Y-73585713D01*
X123571429Y-72842858D02*
X123571429Y-72471429D01*
X123800000Y-72671429D01*
X123800000Y-72585715D01*
X123828571Y-72528572D01*
X123857143Y-72500001D01*
X123914286Y-72471429D01*
X124057143Y-72471429D01*
X124114286Y-72500001D01*
X124142857Y-72528572D01*
X124171429Y-72585715D01*
X124171429Y-72757143D01*
X124142857Y-72814286D01*
X124114286Y-72842858D01*
X123571429Y-72300000D02*
X124171429Y-72100000D01*
X123571429Y-71900000D01*
X123571429Y-71757143D02*
X123571429Y-71385714D01*
X123800000Y-71585714D01*
X123800000Y-71500000D01*
X123828571Y-71442857D01*
X123857143Y-71414286D01*
X123914286Y-71385714D01*
X124057143Y-71385714D01*
X124114286Y-71414286D01*
X124142857Y-71442857D01*
X124171429Y-71500000D01*
X124171429Y-71671428D01*
X124142857Y-71728571D01*
X124114286Y-71757143D01*
X121000000Y-72557142D02*
X120971429Y-72614285D01*
X120971429Y-72699999D01*
X121000000Y-72785714D01*
X121057143Y-72842856D01*
X121114286Y-72871428D01*
X121228571Y-72899999D01*
X121314286Y-72899999D01*
X121428571Y-72871428D01*
X121485714Y-72842856D01*
X121542857Y-72785714D01*
X121571429Y-72699999D01*
X121571429Y-72642856D01*
X121542857Y-72557142D01*
X121514286Y-72528571D01*
X121314286Y-72528571D01*
X121314286Y-72642856D01*
X121571429Y-72271428D02*
X120971429Y-72271428D01*
X121571429Y-71928571D01*
X120971429Y-71928571D01*
X121571429Y-71642857D02*
X120971429Y-71642857D01*
X120971429Y-71500000D01*
X121000000Y-71414285D01*
X121057143Y-71357143D01*
X121114286Y-71328571D01*
X121228571Y-71300000D01*
X121314286Y-71300000D01*
X121428571Y-71328571D01*
X121485714Y-71357143D01*
X121542857Y-71414285D01*
X121571429Y-71500000D01*
X121571429Y-71642857D01*
X95200000Y-68757142D02*
X95171429Y-68814285D01*
X95171429Y-68899999D01*
X95200000Y-68985714D01*
X95257143Y-69042856D01*
X95314286Y-69071428D01*
X95428571Y-69099999D01*
X95514286Y-69099999D01*
X95628571Y-69071428D01*
X95685714Y-69042856D01*
X95742857Y-68985714D01*
X95771429Y-68899999D01*
X95771429Y-68842856D01*
X95742857Y-68757142D01*
X95714286Y-68728571D01*
X95514286Y-68728571D01*
X95514286Y-68842856D01*
X95771429Y-68471428D02*
X95171429Y-68471428D01*
X95771429Y-68128571D01*
X95171429Y-68128571D01*
X95771429Y-67842857D02*
X95171429Y-67842857D01*
X95171429Y-67700000D01*
X95200000Y-67614285D01*
X95257143Y-67557143D01*
X95314286Y-67528571D01*
X95428571Y-67500000D01*
X95514286Y-67500000D01*
X95628571Y-67528571D01*
X95685714Y-67557143D01*
X95742857Y-67614285D01*
X95771429Y-67700000D01*
X95771429Y-67842857D01*
D11*
X99742857Y-73878571D02*
X99742857Y-72378571D01*
X100100000Y-72378571D01*
X100314285Y-72450000D01*
X100457143Y-72592857D01*
X100528571Y-72735714D01*
X100600000Y-73021429D01*
X100600000Y-73235714D01*
X100528571Y-73521429D01*
X100457143Y-73664286D01*
X100314285Y-73807143D01*
X100100000Y-73878571D01*
X99742857Y-73878571D01*
X101242857Y-73092857D02*
X101742857Y-73092857D01*
X101957143Y-73878571D02*
X101242857Y-73878571D01*
X101242857Y-72378571D01*
X101957143Y-72378571D01*
X103100000Y-73092857D02*
X103314286Y-73164286D01*
X103385714Y-73235714D01*
X103457143Y-73378571D01*
X103457143Y-73592857D01*
X103385714Y-73735714D01*
X103314286Y-73807143D01*
X103171428Y-73878571D01*
X102600000Y-73878571D01*
X102600000Y-72378571D01*
X103100000Y-72378571D01*
X103242857Y-72450000D01*
X103314286Y-72521429D01*
X103385714Y-72664286D01*
X103385714Y-72807143D01*
X103314286Y-72950000D01*
X103242857Y-73021429D01*
X103100000Y-73092857D01*
X102600000Y-73092857D01*
X104100000Y-72378571D02*
X104100000Y-73592857D01*
X104171428Y-73735714D01*
X104242857Y-73807143D01*
X104385714Y-73878571D01*
X104671428Y-73878571D01*
X104814286Y-73807143D01*
X104885714Y-73735714D01*
X104957143Y-73592857D01*
X104957143Y-72378571D01*
X106457143Y-72450000D02*
X106314286Y-72378571D01*
X106100000Y-72378571D01*
X105885715Y-72450000D01*
X105742857Y-72592857D01*
X105671429Y-72735714D01*
X105600000Y-73021429D01*
X105600000Y-73235714D01*
X105671429Y-73521429D01*
X105742857Y-73664286D01*
X105885715Y-73807143D01*
X106100000Y-73878571D01*
X106242857Y-73878571D01*
X106457143Y-73807143D01*
X106528572Y-73735714D01*
X106528572Y-73235714D01*
X106242857Y-73235714D01*
X138621429Y-92507143D02*
X138835715Y-92578571D01*
X139192858Y-92578571D01*
X139335715Y-92507143D01*
X139407144Y-92435714D01*
X139478572Y-92292857D01*
X139478572Y-92150000D01*
X139407144Y-92007143D01*
X139335715Y-91935714D01*
X139192858Y-91864286D01*
X138907144Y-91792857D01*
X138764286Y-91721429D01*
X138692858Y-91650000D01*
X138621429Y-91507143D01*
X138621429Y-91364286D01*
X138692858Y-91221429D01*
X138764286Y-91150000D01*
X138907144Y-91078571D01*
X139264286Y-91078571D01*
X139478572Y-91150000D01*
X140121429Y-92578571D02*
X140121429Y-91078571D01*
X140692857Y-91078571D01*
X140835715Y-91150000D01*
X140907143Y-91221429D01*
X140978572Y-91364286D01*
X140978572Y-91578571D01*
X140907143Y-91721429D01*
X140835715Y-91792857D01*
X140692857Y-91864286D01*
X140121429Y-91864286D01*
X141621429Y-91792857D02*
X142121429Y-91792857D01*
X142335715Y-92578571D02*
X141621429Y-92578571D01*
X141621429Y-91078571D01*
X142335715Y-91078571D01*
X142907143Y-92150000D02*
X143621429Y-92150000D01*
X142764286Y-92578571D02*
X143264286Y-91078571D01*
X143764286Y-92578571D01*
X144264286Y-92578571D02*
X144264286Y-91078571D01*
X145121429Y-92578571D02*
X144478572Y-91721429D01*
X145121429Y-91078571D02*
X144264286Y-91935714D01*
X145764286Y-91792857D02*
X146264286Y-91792857D01*
X146478572Y-92578571D02*
X145764286Y-92578571D01*
X145764286Y-91078571D01*
X146478572Y-91078571D01*
X147978572Y-92578571D02*
X147478572Y-91864286D01*
X147121429Y-92578571D02*
X147121429Y-91078571D01*
X147692857Y-91078571D01*
X147835715Y-91150000D01*
X147907143Y-91221429D01*
X147978572Y-91364286D01*
X147978572Y-91578571D01*
X147907143Y-91721429D01*
X147835715Y-91792857D01*
X147692857Y-91864286D01*
X147121429Y-91864286D01*
X78507143Y-94535714D02*
X78578571Y-94321428D01*
X78578571Y-93964285D01*
X78507143Y-93821428D01*
X78435714Y-93749999D01*
X78292857Y-93678571D01*
X78150000Y-93678571D01*
X78007143Y-93749999D01*
X77935714Y-93821428D01*
X77864286Y-93964285D01*
X77792857Y-94249999D01*
X77721429Y-94392857D01*
X77650000Y-94464285D01*
X77507143Y-94535714D01*
X77364286Y-94535714D01*
X77221429Y-94464285D01*
X77150000Y-94392857D01*
X77078571Y-94249999D01*
X77078571Y-93892857D01*
X77150000Y-93678571D01*
X77078571Y-93178571D02*
X78578571Y-92821428D01*
X77507143Y-92535714D01*
X78578571Y-92250000D01*
X77078571Y-91892857D01*
X78578571Y-91321428D02*
X77078571Y-91321428D01*
X77078571Y-90964285D01*
X77150000Y-90750000D01*
X77292857Y-90607142D01*
X77435714Y-90535714D01*
X77721429Y-90464285D01*
X77935714Y-90464285D01*
X78221429Y-90535714D01*
X78364286Y-90607142D01*
X78507143Y-90750000D01*
X78578571Y-90964285D01*
X78578571Y-91321428D01*
X74521429Y-98278571D02*
X74021429Y-97564286D01*
X73664286Y-98278571D02*
X73664286Y-96778571D01*
X74235714Y-96778571D01*
X74378572Y-96850000D01*
X74450000Y-96921429D01*
X74521429Y-97064286D01*
X74521429Y-97278571D01*
X74450000Y-97421429D01*
X74378572Y-97492857D01*
X74235714Y-97564286D01*
X73664286Y-97564286D01*
X75164286Y-97492857D02*
X75664286Y-97492857D01*
X75878572Y-98278571D02*
X75164286Y-98278571D01*
X75164286Y-96778571D01*
X75878572Y-96778571D01*
X76450000Y-98207143D02*
X76664286Y-98278571D01*
X77021429Y-98278571D01*
X77164286Y-98207143D01*
X77235715Y-98135714D01*
X77307143Y-97992857D01*
X77307143Y-97850000D01*
X77235715Y-97707143D01*
X77164286Y-97635714D01*
X77021429Y-97564286D01*
X76735715Y-97492857D01*
X76592857Y-97421429D01*
X76521429Y-97350000D01*
X76450000Y-97207143D01*
X76450000Y-97064286D01*
X76521429Y-96921429D01*
X76592857Y-96850000D01*
X76735715Y-96778571D01*
X77092857Y-96778571D01*
X77307143Y-96850000D01*
X77950000Y-97492857D02*
X78450000Y-97492857D01*
X78664286Y-98278571D02*
X77950000Y-98278571D01*
X77950000Y-96778571D01*
X78664286Y-96778571D01*
X79092857Y-96778571D02*
X79950000Y-96778571D01*
X79521429Y-98278571D02*
X79521429Y-96778571D01*
X64764286Y-88392857D02*
X64978572Y-88464286D01*
X65050000Y-88535714D01*
X65121429Y-88678571D01*
X65121429Y-88892857D01*
X65050000Y-89035714D01*
X64978572Y-89107143D01*
X64835714Y-89178571D01*
X64264286Y-89178571D01*
X64264286Y-87678571D01*
X64764286Y-87678571D01*
X64907143Y-87750000D01*
X64978572Y-87821429D01*
X65050000Y-87964286D01*
X65050000Y-88107143D01*
X64978572Y-88250000D01*
X64907143Y-88321429D01*
X64764286Y-88392857D01*
X64264286Y-88392857D01*
X65692857Y-88750000D02*
X66407143Y-88750000D01*
X65550000Y-89178571D02*
X66050000Y-87678571D01*
X66550000Y-89178571D01*
X67907143Y-89035714D02*
X67835714Y-89107143D01*
X67621428Y-89178571D01*
X67478571Y-89178571D01*
X67264286Y-89107143D01*
X67121428Y-88964286D01*
X67050000Y-88821429D01*
X66978571Y-88535714D01*
X66978571Y-88321429D01*
X67050000Y-88035714D01*
X67121428Y-87892857D01*
X67264286Y-87750000D01*
X67478571Y-87678571D01*
X67621428Y-87678571D01*
X67835714Y-87750000D01*
X67907143Y-87821429D01*
X68550000Y-89178571D02*
X68550000Y-87678571D01*
X69407143Y-89178571D02*
X68764286Y-88321429D01*
X69407143Y-87678571D02*
X68550000Y-88535714D01*
X63921429Y-59692857D02*
X63421429Y-59692857D01*
X63421429Y-60478571D02*
X63421429Y-58978571D01*
X64135715Y-58978571D01*
X65564286Y-60478571D02*
X65064286Y-59764286D01*
X64707143Y-60478571D02*
X64707143Y-58978571D01*
X65278571Y-58978571D01*
X65421429Y-59050000D01*
X65492857Y-59121429D01*
X65564286Y-59264286D01*
X65564286Y-59478571D01*
X65492857Y-59621429D01*
X65421429Y-59692857D01*
X65278571Y-59764286D01*
X64707143Y-59764286D01*
X66492857Y-58978571D02*
X66778571Y-58978571D01*
X66921429Y-59050000D01*
X67064286Y-59192857D01*
X67135714Y-59478571D01*
X67135714Y-59978571D01*
X67064286Y-60264286D01*
X66921429Y-60407143D01*
X66778571Y-60478571D01*
X66492857Y-60478571D01*
X66350000Y-60407143D01*
X66207143Y-60264286D01*
X66135714Y-59978571D01*
X66135714Y-59478571D01*
X66207143Y-59192857D01*
X66350000Y-59050000D01*
X66492857Y-58978571D01*
X67778572Y-60478571D02*
X67778572Y-58978571D01*
X68635715Y-60478571D01*
X68635715Y-58978571D01*
X69135715Y-58978571D02*
X69992858Y-58978571D01*
X69564287Y-60478571D02*
X69564287Y-58978571D01*
D10*
X60000000Y-108500000D02*
X60000000Y-51500000D01*
X149000000Y-108500000D02*
X60000000Y-108500000D01*
X149000000Y-51500000D02*
X149000000Y-108500000D01*
X60000000Y-51500000D02*
X149000000Y-51500000D01*
D12*
X90642000Y-86258000D02*
G75*
G03X90642000Y-86258000I-150000J0D01*
G01*
D13*
X90100000Y-86750000D02*
X90450000Y-86750000D01*
X84700000Y-86750000D02*
X88300000Y-86750000D01*
X82550000Y-90250000D02*
X82900000Y-90250000D01*
X82550000Y-90250000D02*
X82550000Y-86750000D01*
X82900000Y-86750000D02*
X82550000Y-86750000D01*
X88300000Y-90250000D02*
X84700000Y-90250000D01*
X90450000Y-86750000D02*
X90450000Y-90250000D01*
X90450000Y-90250000D02*
X90100000Y-90250000D01*
D10*
X117000000Y-106550000D02*
X117000000Y-105450000D01*
X100500000Y-87550000D02*
X100500000Y-86450000D01*
X90950000Y-82000000D02*
X92050000Y-82000000D01*
X95250000Y-72700000D02*
X95250000Y-73800000D01*
X98200000Y-100500000D02*
X99300000Y-100500000D01*
X106050000Y-76500000D02*
X104950000Y-76500000D01*
X89200000Y-100500000D02*
X90300000Y-100500000D01*
X94500000Y-87550000D02*
X94500000Y-86450000D01*
X84000000Y-85350000D02*
X84000000Y-84250000D01*
X84000000Y-92750000D02*
X84000000Y-91650000D01*
X91950000Y-91500000D02*
X93050000Y-91500000D01*
X104950000Y-91500000D02*
X106050000Y-91500000D01*
D13*
X110000000Y-60500000D02*
G75*
G03X110000000Y-60500000I-8000000J0D01*
G01*
D10*
X120950000Y-55750000D02*
X122050000Y-55750000D01*
X110050000Y-89500000D02*
X108950000Y-89500000D01*
X110050000Y-84000000D02*
X108950000Y-84000000D01*
X121550000Y-100500000D02*
X120450000Y-100500000D01*
X131300000Y-57500000D02*
X130200000Y-57500000D01*
X131550000Y-75000000D02*
X130450000Y-75000000D01*
D14*
X133641421Y-70900000D02*
G75*
G03X133641421Y-70900000I-141421J0D01*
G01*
D10*
X132950000Y-69000000D02*
X134050000Y-69000000D01*
D14*
X133641421Y-77100000D02*
G75*
G03X133641421Y-77100000I-141421J0D01*
G01*
D10*
X134050000Y-79000000D02*
X132950000Y-79000000D01*
X135450000Y-73500000D02*
X136550000Y-73500000D01*
X135950000Y-83500000D02*
X137050000Y-83500000D01*
D13*
X142000000Y-100000000D02*
G75*
G03X142000000Y-100000000I-8000000J0D01*
G01*
D10*
X77750000Y-56000000D02*
X77750000Y-55000000D01*
X78500000Y-56000000D02*
X78500000Y-55000000D01*
X78500000Y-55000000D02*
X77750000Y-55500000D01*
X77750000Y-55500000D02*
X78500000Y-56000000D01*
X80600000Y-56800000D02*
X75400000Y-56800000D01*
X75400000Y-56800000D02*
X75400000Y-54200000D01*
X75400000Y-54200000D02*
X80600000Y-54200000D01*
X80600000Y-54200000D02*
X80600000Y-56800000D01*
X77750000Y-71000000D02*
X77750000Y-70000000D01*
X78500000Y-71000000D02*
X78500000Y-70000000D01*
X78500000Y-70000000D02*
X77750000Y-70500000D01*
X77750000Y-70500000D02*
X78500000Y-71000000D01*
X80600000Y-71800000D02*
X75400000Y-71800000D01*
X75400000Y-71800000D02*
X75400000Y-69200000D01*
X75400000Y-69200000D02*
X80600000Y-69200000D01*
X80600000Y-69200000D02*
X80600000Y-71800000D01*
X91250000Y-54000000D02*
X91250000Y-55000000D01*
X90500000Y-54000000D02*
X90500000Y-55000000D01*
X90500000Y-55000000D02*
X91250000Y-54500000D01*
X91250000Y-54500000D02*
X90500000Y-54000000D01*
X88400000Y-53200000D02*
X93600000Y-53200000D01*
X93600000Y-53200000D02*
X93600000Y-55800000D01*
X93600000Y-55800000D02*
X88400000Y-55800000D01*
X88400000Y-55800000D02*
X88400000Y-53200000D01*
X120750000Y-64000000D02*
X121750000Y-64000000D01*
X120750000Y-64750000D02*
X121750000Y-64750000D01*
X121750000Y-64750000D02*
X121250000Y-64000000D01*
X121250000Y-64000000D02*
X120750000Y-64750000D01*
X119950000Y-66850000D02*
X119950000Y-61650000D01*
X119950000Y-61650000D02*
X122550000Y-61650000D01*
X122550000Y-61650000D02*
X122550000Y-66850000D01*
X122550000Y-66850000D02*
X119950000Y-66850000D01*
X74750000Y-86000000D02*
X74750000Y-87000000D01*
X74000000Y-86000000D02*
X74000000Y-87000000D01*
X74000000Y-87000000D02*
X74750000Y-86500000D01*
X74750000Y-86500000D02*
X74000000Y-86000000D01*
X71900000Y-85200000D02*
X77100000Y-85200000D01*
X77100000Y-85200000D02*
X77100000Y-87800000D01*
X77100000Y-87800000D02*
X71900000Y-87800000D01*
X71900000Y-87800000D02*
X71900000Y-85200000D01*
X72400000Y-81800000D02*
X71600000Y-81800000D01*
X71600000Y-82300000D02*
X72400000Y-82300000D01*
X72400000Y-82300000D02*
X72000000Y-81800000D01*
X72000000Y-81800000D02*
X71600000Y-82300000D01*
X72600000Y-82800000D02*
X72600000Y-81200000D01*
X71400000Y-82800000D02*
X71400000Y-81200000D01*
X71600000Y-66700000D02*
X72400000Y-66700000D01*
X72400000Y-66200000D02*
X71600000Y-66200000D01*
X71600000Y-66200000D02*
X72000000Y-66700000D01*
X72000000Y-66700000D02*
X72400000Y-66200000D01*
X71400000Y-65700000D02*
X71400000Y-67300000D01*
X72600000Y-65700000D02*
X72600000Y-67300000D01*
X116250000Y-63250000D02*
X113250000Y-63250000D01*
X116250000Y-71250000D02*
X113250000Y-71250000D01*
X61250000Y-91250000D02*
X76500000Y-91250000D01*
X76500000Y-91250000D02*
X76500000Y-93750000D01*
X76500000Y-93750000D02*
X61250000Y-93750000D01*
X61250000Y-93750000D02*
X61250000Y-91250000D01*
X94250000Y-69500000D02*
X109500000Y-69500000D01*
X109500000Y-69500000D02*
X109500000Y-72000000D01*
X109500000Y-72000000D02*
X94250000Y-72000000D01*
X94250000Y-72000000D02*
X94250000Y-69500000D01*
X124750000Y-73000000D02*
X124750000Y-80600000D01*
X124750000Y-80600000D02*
X122250000Y-80600000D01*
X122250000Y-80600000D02*
X122250000Y-73000000D01*
X122250000Y-73000000D02*
X124750000Y-73000000D01*
X94800000Y-100500000D02*
X93700000Y-100500000D01*
X97050000Y-100500000D02*
X95950000Y-100500000D01*
X92550000Y-100500000D02*
X91450000Y-100500000D01*
X83550000Y-55500000D02*
X82450000Y-55500000D01*
X83550000Y-70500000D02*
X82450000Y-70500000D01*
X76000000Y-57950000D02*
X76000000Y-59050000D01*
X76000000Y-72950000D02*
X76000000Y-74050000D01*
X86050000Y-60000000D02*
X84950000Y-60000000D01*
X86050000Y-64000000D02*
X84950000Y-64000000D01*
X86050000Y-75000000D02*
X84950000Y-75000000D01*
X86050000Y-79000000D02*
X84950000Y-79000000D01*
X80000000Y-59050000D02*
X80000000Y-57950000D01*
X80000000Y-74050000D02*
X80000000Y-72950000D01*
X86050000Y-55500000D02*
X84950000Y-55500000D01*
X86050000Y-70500000D02*
X84950000Y-70500000D01*
X90450000Y-61000000D02*
X91550000Y-61000000D01*
X89050000Y-61000000D02*
X87950000Y-61000000D01*
X87950000Y-75200000D02*
X89050000Y-75200000D01*
X90250000Y-75200000D02*
X91350000Y-75200000D01*
X112050000Y-58750000D02*
X110950000Y-58750000D01*
X117500000Y-61200000D02*
X117500000Y-62300000D01*
X113750000Y-61200000D02*
X113750000Y-62300000D01*
X76000000Y-82450000D02*
X76000000Y-83550000D01*
X71450000Y-61500000D02*
X72550000Y-61500000D01*
X119950000Y-79000000D02*
X121050000Y-79000000D01*
X108950000Y-94000000D02*
X110050000Y-94000000D01*
X132450000Y-57500000D02*
X133550000Y-57500000D01*
X127950000Y-75000000D02*
X129050000Y-75000000D01*
X136550000Y-69000000D02*
X135450000Y-69000000D01*
X127950000Y-69000000D02*
X129050000Y-69000000D01*
X131550000Y-79000000D02*
X130450000Y-79000000D01*
X131550000Y-69000000D02*
X130450000Y-69000000D01*
D13*
X127500000Y-82000000D02*
X134500000Y-82000000D01*
X134500000Y-82000000D02*
X134500000Y-89000000D01*
X134500000Y-89000000D02*
X127500000Y-89000000D01*
X127500000Y-89000000D02*
X127500000Y-82000000D01*
D10*
X129050000Y-79000000D02*
X127950000Y-79000000D01*
X135950000Y-87500000D02*
X137050000Y-87500000D01*
D14*
X95100000Y-84800000D02*
G75*
G03X95100000Y-84800000I-100000J0D01*
G01*
D12*
X96200000Y-82500000D02*
G75*
G03X96200000Y-82500000I-200000J0D01*
G01*
D10*
X95300000Y-83200000D02*
X95300000Y-76800000D01*
X95300000Y-76800000D02*
X101700000Y-76800000D01*
X101700000Y-76800000D02*
X101700000Y-83200000D01*
X101700000Y-83200000D02*
X95300000Y-83200000D01*
D15*
X77363421Y-61095000D02*
G75*
G03X77363421Y-61095000I-141421J0D01*
G01*
X74950421Y-59825000D02*
G75*
G03X74950421Y-59825000I-141421J0D01*
G01*
D13*
X76525000Y-60350000D02*
X81475000Y-60350000D01*
X81475000Y-60350000D02*
X81475000Y-65650000D01*
X81475000Y-65650000D02*
X76525000Y-65650000D01*
X76525000Y-65650000D02*
X76525000Y-60350000D01*
D15*
X77363421Y-76095000D02*
G75*
G03X77363421Y-76095000I-141421J0D01*
G01*
X74950421Y-74825000D02*
G75*
G03X74950421Y-74825000I-141421J0D01*
G01*
D13*
X76525000Y-75350000D02*
X81475000Y-75350000D01*
X81475000Y-75350000D02*
X81475000Y-80650000D01*
X81475000Y-80650000D02*
X76525000Y-80650000D01*
X76525000Y-80650000D02*
X76525000Y-75350000D01*
D15*
X92546421Y-66722000D02*
G75*
G03X92546421Y-66722000I-141421J0D01*
G01*
X93816421Y-64309000D02*
G75*
G03X93816421Y-64309000I-141421J0D01*
G01*
D13*
X93150000Y-66025000D02*
X93150000Y-70975000D01*
X93150000Y-70975000D02*
X87850000Y-70975000D01*
X87850000Y-70975000D02*
X87850000Y-66025000D01*
X87850000Y-66025000D02*
X93150000Y-66025000D01*
D15*
X117619421Y-59555000D02*
G75*
G03X117619421Y-59555000I-141421J0D01*
G01*
X119032421Y-60675000D02*
G75*
G03X119032421Y-60675000I-141421J0D01*
G01*
D13*
X118100000Y-60200000D02*
X114900000Y-60200000D01*
X114900000Y-60200000D02*
X114900000Y-55300000D01*
X114900000Y-55300000D02*
X118100000Y-55300000D01*
X118100000Y-55300000D02*
X118100000Y-60200000D01*
D16*
X126300000Y-95500000D02*
G75*
G03X126300000Y-95500000I-300000J0D01*
G01*
D13*
X124750000Y-97650000D02*
X111250000Y-97650000D01*
X111250000Y-97650000D02*
X111250000Y-81350000D01*
X111250000Y-81350000D02*
X124750000Y-81350000D01*
X124750000Y-81350000D02*
X124750000Y-97650000D01*
X146330000Y-73920000D02*
X147600000Y-73920000D01*
X146330000Y-70080000D02*
X147600000Y-70080000D01*
X148000000Y-72000000D02*
X146000000Y-72000000D01*
X146330000Y-66850000D02*
X146330000Y-77150000D01*
X142900000Y-66850000D02*
X142900000Y-77150000D01*
X142900000Y-77150000D02*
X147600000Y-77150000D01*
X147600000Y-77150000D02*
X147600000Y-66850000D01*
X147600000Y-66850000D02*
X142900000Y-66850000D01*
D10*
X103000000Y-93100000D02*
X103000000Y-93750000D01*
X95000000Y-93750000D02*
X103000000Y-93750000D01*
X95000000Y-93750000D02*
X95000000Y-93100000D01*
X95000000Y-89900000D02*
X95000000Y-89250000D01*
X95000000Y-89250000D02*
X103000000Y-89250000D01*
X103000000Y-89250000D02*
X103000000Y-89900000D01*
D15*
X113700000Y-106000000D02*
G75*
G03X113700000Y-106000000I-200000J0D01*
G01*
D13*
X112500000Y-106500000D02*
X104500000Y-106500000D01*
X104500000Y-106500000D02*
X104500000Y-105500000D01*
X104500000Y-105500000D02*
X112500000Y-105500000D01*
X112500000Y-105500000D02*
X112500000Y-106500000D01*
D10*
X110800000Y-73200000D02*
X109200000Y-74800000D01*
X109200000Y-74800000D02*
X109200000Y-78200000D01*
X109200000Y-78200000D02*
X110800000Y-79800000D01*
X110800000Y-79800000D02*
X115800000Y-79800000D01*
X115800000Y-79800000D02*
X115800000Y-73200000D01*
X115800000Y-73200000D02*
X110800000Y-73200000D01*
X115500000Y-76500000D02*
G75*
G03X115500000Y-76500000I-3000000J0D01*
G01*
X144700000Y-65800000D02*
X146300000Y-64200000D01*
X146300000Y-64200000D02*
X146300000Y-60800000D01*
X146300000Y-60800000D02*
X144700000Y-59200000D01*
X144700000Y-59200000D02*
X139700000Y-59200000D01*
X139700000Y-59200000D02*
X139700000Y-65800000D01*
X139700000Y-65800000D02*
X144700000Y-65800000D01*
X146000000Y-62500000D02*
G75*
G03X146000000Y-62500000I-3000000J0D01*
G01*
X125020000Y-71020000D02*
X119920000Y-71020000D01*
X119920000Y-71020000D02*
X119920000Y-68480000D01*
X119920000Y-68480000D02*
X125020000Y-68480000D01*
X125020000Y-68480000D02*
X125020000Y-71020000D01*
D13*
X63350000Y-70500000D02*
X60600000Y-70500000D01*
X63350000Y-67500000D02*
X60600000Y-67500000D01*
X63350000Y-65500000D02*
X60600000Y-65500000D01*
X63350000Y-62500000D02*
X60600000Y-62500000D01*
X69600000Y-60960000D02*
X60600000Y-60960000D01*
X60600000Y-60960000D02*
X60600000Y-72120000D01*
X60600000Y-72120000D02*
X69600000Y-72120000D01*
X69600000Y-72120000D02*
X69600000Y-60960000D01*
X63350000Y-85500000D02*
X60600000Y-85500000D01*
X63350000Y-82500000D02*
X60600000Y-82500000D01*
X63350000Y-80500000D02*
X60600000Y-80500000D01*
X63350000Y-77500000D02*
X60600000Y-77500000D01*
X69600000Y-75960000D02*
X60600000Y-75960000D01*
X60600000Y-75960000D02*
X60600000Y-87120000D01*
X60600000Y-87120000D02*
X69600000Y-87120000D01*
X69600000Y-87120000D02*
X69600000Y-75960000D01*
X145350000Y-81000000D02*
X148100000Y-81000000D01*
X145350000Y-84000000D02*
X148100000Y-84000000D01*
X145350000Y-86000000D02*
X148100000Y-86000000D01*
X145350000Y-89000000D02*
X148100000Y-89000000D01*
X139100000Y-90540000D02*
X148100000Y-90540000D01*
X148100000Y-90540000D02*
X148100000Y-79380000D01*
X148100000Y-79380000D02*
X139100000Y-79380000D01*
X139100000Y-79380000D02*
X139100000Y-90540000D01*
D10*
X86850000Y-77150000D02*
X89350000Y-77150000D01*
X89350000Y-77150000D02*
X89350000Y-79650000D01*
X89350000Y-79650000D02*
X86850000Y-79650000D01*
X86850000Y-79650000D02*
X86850000Y-77150000D01*
X86850000Y-79650000D02*
X89350000Y-79650000D01*
X89350000Y-79650000D02*
X89350000Y-82150000D01*
X89350000Y-82150000D02*
X86850000Y-82150000D01*
X86850000Y-82150000D02*
X86850000Y-79650000D01*
X69700000Y-97400000D02*
G75*
G03X69700000Y-97400000I-1000000J0D01*
G01*
X71300000Y-100000000D02*
X66100000Y-100000000D01*
X66100000Y-100000000D02*
X66100000Y-94800000D01*
X66100000Y-94800000D02*
X71300000Y-94800000D01*
X71300000Y-94800000D02*
X71300000Y-100000000D01*
X86142856Y-90471429D02*
X86542856Y-91071429D01*
X86542856Y-90471429D02*
X86142856Y-91071429D01*
X87085714Y-91071429D02*
X86742857Y-91071429D01*
X86914285Y-91071429D02*
X86914285Y-90471429D01*
X86857142Y-90557143D01*
X86800000Y-90614286D01*
X86742857Y-90642857D01*
X87457143Y-90471429D02*
X87514286Y-90471429D01*
X87571429Y-90500000D01*
X87600000Y-90528571D01*
X87628571Y-90585714D01*
X87657143Y-90700000D01*
X87657143Y-90842857D01*
X87628571Y-90957143D01*
X87600000Y-91014286D01*
X87571429Y-91042857D01*
X87514286Y-91071429D01*
X87457143Y-91071429D01*
X87400000Y-91042857D01*
X87371429Y-91014286D01*
X87342857Y-90957143D01*
X87314286Y-90842857D01*
X87314286Y-90700000D01*
X87342857Y-90585714D01*
X87371429Y-90528571D01*
X87400000Y-90500000D01*
X87457143Y-90471429D01*
X88228572Y-91071429D02*
X87885715Y-91071429D01*
X88057143Y-91071429D02*
X88057143Y-90471429D01*
X88000000Y-90557143D01*
X87942858Y-90614286D01*
X87885715Y-90642857D01*
X119228571Y-106214286D02*
X119200000Y-106242857D01*
X119114286Y-106271429D01*
X119057143Y-106271429D01*
X118971428Y-106242857D01*
X118914286Y-106185714D01*
X118885714Y-106128571D01*
X118857143Y-106014286D01*
X118857143Y-105928571D01*
X118885714Y-105814286D01*
X118914286Y-105757143D01*
X118971428Y-105700000D01*
X119057143Y-105671429D01*
X119114286Y-105671429D01*
X119200000Y-105700000D01*
X119228571Y-105728571D01*
X119742857Y-105871429D02*
X119742857Y-106271429D01*
X119600000Y-105642857D02*
X119457143Y-106071429D01*
X119828571Y-106071429D01*
X120171429Y-105671429D02*
X120228572Y-105671429D01*
X120285715Y-105700000D01*
X120314286Y-105728571D01*
X120342857Y-105785714D01*
X120371429Y-105900000D01*
X120371429Y-106042857D01*
X120342857Y-106157143D01*
X120314286Y-106214286D01*
X120285715Y-106242857D01*
X120228572Y-106271429D01*
X120171429Y-106271429D01*
X120114286Y-106242857D01*
X120085715Y-106214286D01*
X120057143Y-106157143D01*
X120028572Y-106042857D01*
X120028572Y-105900000D01*
X120057143Y-105785714D01*
X120085715Y-105728571D01*
X120114286Y-105700000D01*
X120171429Y-105671429D01*
X120885715Y-105871429D02*
X120885715Y-106271429D01*
X120742858Y-105642857D02*
X120600001Y-106071429D01*
X120971429Y-106071429D01*
X102728571Y-87314286D02*
X102700000Y-87342857D01*
X102614286Y-87371429D01*
X102557143Y-87371429D01*
X102471428Y-87342857D01*
X102414286Y-87285714D01*
X102385714Y-87228571D01*
X102357143Y-87114286D01*
X102357143Y-87028571D01*
X102385714Y-86914286D01*
X102414286Y-86857143D01*
X102471428Y-86800000D01*
X102557143Y-86771429D01*
X102614286Y-86771429D01*
X102700000Y-86800000D01*
X102728571Y-86828571D01*
X103300000Y-87371429D02*
X102957143Y-87371429D01*
X103128571Y-87371429D02*
X103128571Y-86771429D01*
X103071428Y-86857143D01*
X103014286Y-86914286D01*
X102957143Y-86942857D01*
X103671429Y-86771429D02*
X103728572Y-86771429D01*
X103785715Y-86800000D01*
X103814286Y-86828571D01*
X103842857Y-86885714D01*
X103871429Y-87000000D01*
X103871429Y-87142857D01*
X103842857Y-87257143D01*
X103814286Y-87314286D01*
X103785715Y-87342857D01*
X103728572Y-87371429D01*
X103671429Y-87371429D01*
X103614286Y-87342857D01*
X103585715Y-87314286D01*
X103557143Y-87257143D01*
X103528572Y-87142857D01*
X103528572Y-87000000D01*
X103557143Y-86885714D01*
X103585715Y-86828571D01*
X103614286Y-86800000D01*
X103671429Y-86771429D01*
X104442858Y-87371429D02*
X104100001Y-87371429D01*
X104271429Y-87371429D02*
X104271429Y-86771429D01*
X104214286Y-86857143D01*
X104157144Y-86914286D01*
X104100001Y-86942857D01*
X90328571Y-84314286D02*
X90300000Y-84342857D01*
X90214286Y-84371429D01*
X90157143Y-84371429D01*
X90071428Y-84342857D01*
X90014286Y-84285714D01*
X89985714Y-84228571D01*
X89957143Y-84114286D01*
X89957143Y-84028571D01*
X89985714Y-83914286D01*
X90014286Y-83857143D01*
X90071428Y-83800000D01*
X90157143Y-83771429D01*
X90214286Y-83771429D01*
X90300000Y-83800000D01*
X90328571Y-83828571D01*
X90900000Y-84371429D02*
X90557143Y-84371429D01*
X90728571Y-84371429D02*
X90728571Y-83771429D01*
X90671428Y-83857143D01*
X90614286Y-83914286D01*
X90557143Y-83942857D01*
X91271429Y-83771429D02*
X91328572Y-83771429D01*
X91385715Y-83800000D01*
X91414286Y-83828571D01*
X91442857Y-83885714D01*
X91471429Y-84000000D01*
X91471429Y-84142857D01*
X91442857Y-84257143D01*
X91414286Y-84314286D01*
X91385715Y-84342857D01*
X91328572Y-84371429D01*
X91271429Y-84371429D01*
X91214286Y-84342857D01*
X91185715Y-84314286D01*
X91157143Y-84257143D01*
X91128572Y-84142857D01*
X91128572Y-84000000D01*
X91157143Y-83885714D01*
X91185715Y-83828571D01*
X91214286Y-83800000D01*
X91271429Y-83771429D01*
X91700001Y-83828571D02*
X91728572Y-83800000D01*
X91785715Y-83771429D01*
X91928572Y-83771429D01*
X91985715Y-83800000D01*
X92014286Y-83828571D01*
X92042858Y-83885714D01*
X92042858Y-83942857D01*
X92014286Y-84028571D01*
X91671429Y-84371429D01*
X92042858Y-84371429D01*
X97428571Y-74114286D02*
X97400000Y-74142857D01*
X97314286Y-74171429D01*
X97257143Y-74171429D01*
X97171428Y-74142857D01*
X97114286Y-74085714D01*
X97085714Y-74028571D01*
X97057143Y-73914286D01*
X97057143Y-73828571D01*
X97085714Y-73714286D01*
X97114286Y-73657143D01*
X97171428Y-73600000D01*
X97257143Y-73571429D01*
X97314286Y-73571429D01*
X97400000Y-73600000D01*
X97428571Y-73628571D01*
X98000000Y-74171429D02*
X97657143Y-74171429D01*
X97828571Y-74171429D02*
X97828571Y-73571429D01*
X97771428Y-73657143D01*
X97714286Y-73714286D01*
X97657143Y-73742857D01*
X98371429Y-73571429D02*
X98428572Y-73571429D01*
X98485715Y-73600000D01*
X98514286Y-73628571D01*
X98542857Y-73685714D01*
X98571429Y-73800000D01*
X98571429Y-73942857D01*
X98542857Y-74057143D01*
X98514286Y-74114286D01*
X98485715Y-74142857D01*
X98428572Y-74171429D01*
X98371429Y-74171429D01*
X98314286Y-74142857D01*
X98285715Y-74114286D01*
X98257143Y-74057143D01*
X98228572Y-73942857D01*
X98228572Y-73800000D01*
X98257143Y-73685714D01*
X98285715Y-73628571D01*
X98314286Y-73600000D01*
X98371429Y-73571429D01*
X98771429Y-73571429D02*
X99142858Y-73571429D01*
X98942858Y-73800000D01*
X99028572Y-73800000D01*
X99085715Y-73828571D01*
X99114286Y-73857143D01*
X99142858Y-73914286D01*
X99142858Y-74057143D01*
X99114286Y-74114286D01*
X99085715Y-74142857D01*
X99028572Y-74171429D01*
X98857144Y-74171429D01*
X98800001Y-74142857D01*
X98771429Y-74114286D01*
X99014286Y-98171429D02*
X99042857Y-98200000D01*
X99071429Y-98285714D01*
X99071429Y-98342857D01*
X99042857Y-98428572D01*
X98985714Y-98485714D01*
X98928571Y-98514286D01*
X98814286Y-98542857D01*
X98728571Y-98542857D01*
X98614286Y-98514286D01*
X98557143Y-98485714D01*
X98500000Y-98428572D01*
X98471429Y-98342857D01*
X98471429Y-98285714D01*
X98500000Y-98200000D01*
X98528571Y-98171429D01*
X99071429Y-97600000D02*
X99071429Y-97942857D01*
X99071429Y-97771429D02*
X98471429Y-97771429D01*
X98557143Y-97828572D01*
X98614286Y-97885714D01*
X98642857Y-97942857D01*
X98471429Y-97228571D02*
X98471429Y-97171428D01*
X98500000Y-97114285D01*
X98528571Y-97085714D01*
X98585714Y-97057143D01*
X98700000Y-97028571D01*
X98842857Y-97028571D01*
X98957143Y-97057143D01*
X99014286Y-97085714D01*
X99042857Y-97114285D01*
X99071429Y-97171428D01*
X99071429Y-97228571D01*
X99042857Y-97285714D01*
X99014286Y-97314285D01*
X98957143Y-97342857D01*
X98842857Y-97371428D01*
X98700000Y-97371428D01*
X98585714Y-97342857D01*
X98528571Y-97314285D01*
X98500000Y-97285714D01*
X98471429Y-97228571D01*
X98671429Y-96514285D02*
X99071429Y-96514285D01*
X98442857Y-96657142D02*
X98871429Y-96799999D01*
X98871429Y-96428571D01*
X107114286Y-77271429D02*
X107142857Y-77300000D01*
X107171429Y-77385714D01*
X107171429Y-77442857D01*
X107142857Y-77528572D01*
X107085714Y-77585714D01*
X107028571Y-77614286D01*
X106914286Y-77642857D01*
X106828571Y-77642857D01*
X106714286Y-77614286D01*
X106657143Y-77585714D01*
X106600000Y-77528572D01*
X106571429Y-77442857D01*
X106571429Y-77385714D01*
X106600000Y-77300000D01*
X106628571Y-77271429D01*
X107171429Y-76700000D02*
X107171429Y-77042857D01*
X107171429Y-76871429D02*
X106571429Y-76871429D01*
X106657143Y-76928572D01*
X106714286Y-76985714D01*
X106742857Y-77042857D01*
X106571429Y-76328571D02*
X106571429Y-76271428D01*
X106600000Y-76214285D01*
X106628571Y-76185714D01*
X106685714Y-76157143D01*
X106800000Y-76128571D01*
X106942857Y-76128571D01*
X107057143Y-76157143D01*
X107114286Y-76185714D01*
X107142857Y-76214285D01*
X107171429Y-76271428D01*
X107171429Y-76328571D01*
X107142857Y-76385714D01*
X107114286Y-76414285D01*
X107057143Y-76442857D01*
X106942857Y-76471428D01*
X106800000Y-76471428D01*
X106685714Y-76442857D01*
X106628571Y-76414285D01*
X106600000Y-76385714D01*
X106571429Y-76328571D01*
X106571429Y-75585714D02*
X106571429Y-75871428D01*
X106857143Y-75899999D01*
X106828571Y-75871428D01*
X106800000Y-75814285D01*
X106800000Y-75671428D01*
X106828571Y-75614285D01*
X106857143Y-75585714D01*
X106914286Y-75557142D01*
X107057143Y-75557142D01*
X107114286Y-75585714D01*
X107142857Y-75614285D01*
X107171429Y-75671428D01*
X107171429Y-75814285D01*
X107142857Y-75871428D01*
X107114286Y-75899999D01*
X89914286Y-98171429D02*
X89942857Y-98200000D01*
X89971429Y-98285714D01*
X89971429Y-98342857D01*
X89942857Y-98428572D01*
X89885714Y-98485714D01*
X89828571Y-98514286D01*
X89714286Y-98542857D01*
X89628571Y-98542857D01*
X89514286Y-98514286D01*
X89457143Y-98485714D01*
X89400000Y-98428572D01*
X89371429Y-98342857D01*
X89371429Y-98285714D01*
X89400000Y-98200000D01*
X89428571Y-98171429D01*
X89971429Y-97600000D02*
X89971429Y-97942857D01*
X89971429Y-97771429D02*
X89371429Y-97771429D01*
X89457143Y-97828572D01*
X89514286Y-97885714D01*
X89542857Y-97942857D01*
X89371429Y-97228571D02*
X89371429Y-97171428D01*
X89400000Y-97114285D01*
X89428571Y-97085714D01*
X89485714Y-97057143D01*
X89600000Y-97028571D01*
X89742857Y-97028571D01*
X89857143Y-97057143D01*
X89914286Y-97085714D01*
X89942857Y-97114285D01*
X89971429Y-97171428D01*
X89971429Y-97228571D01*
X89942857Y-97285714D01*
X89914286Y-97314285D01*
X89857143Y-97342857D01*
X89742857Y-97371428D01*
X89600000Y-97371428D01*
X89485714Y-97342857D01*
X89428571Y-97314285D01*
X89400000Y-97285714D01*
X89371429Y-97228571D01*
X89371429Y-96514285D02*
X89371429Y-96628571D01*
X89400000Y-96685714D01*
X89428571Y-96714285D01*
X89514286Y-96771428D01*
X89628571Y-96799999D01*
X89857143Y-96799999D01*
X89914286Y-96771428D01*
X89942857Y-96742856D01*
X89971429Y-96685714D01*
X89971429Y-96571428D01*
X89942857Y-96514285D01*
X89914286Y-96485714D01*
X89857143Y-96457142D01*
X89714286Y-96457142D01*
X89657143Y-96485714D01*
X89628571Y-96514285D01*
X89600000Y-96571428D01*
X89600000Y-96685714D01*
X89628571Y-96742856D01*
X89657143Y-96771428D01*
X89714286Y-96799999D01*
X93528571Y-88614286D02*
X93500000Y-88642857D01*
X93414286Y-88671429D01*
X93357143Y-88671429D01*
X93271428Y-88642857D01*
X93214286Y-88585714D01*
X93185714Y-88528571D01*
X93157143Y-88414286D01*
X93157143Y-88328571D01*
X93185714Y-88214286D01*
X93214286Y-88157143D01*
X93271428Y-88100000D01*
X93357143Y-88071429D01*
X93414286Y-88071429D01*
X93500000Y-88100000D01*
X93528571Y-88128571D01*
X94100000Y-88671429D02*
X93757143Y-88671429D01*
X93928571Y-88671429D02*
X93928571Y-88071429D01*
X93871428Y-88157143D01*
X93814286Y-88214286D01*
X93757143Y-88242857D01*
X94471429Y-88071429D02*
X94528572Y-88071429D01*
X94585715Y-88100000D01*
X94614286Y-88128571D01*
X94642857Y-88185714D01*
X94671429Y-88300000D01*
X94671429Y-88442857D01*
X94642857Y-88557143D01*
X94614286Y-88614286D01*
X94585715Y-88642857D01*
X94528572Y-88671429D01*
X94471429Y-88671429D01*
X94414286Y-88642857D01*
X94385715Y-88614286D01*
X94357143Y-88557143D01*
X94328572Y-88442857D01*
X94328572Y-88300000D01*
X94357143Y-88185714D01*
X94385715Y-88128571D01*
X94414286Y-88100000D01*
X94471429Y-88071429D01*
X94871429Y-88071429D02*
X95271429Y-88071429D01*
X95014286Y-88671429D01*
X81928286Y-85471429D02*
X81956857Y-85500000D01*
X81985429Y-85585714D01*
X81985429Y-85642857D01*
X81956857Y-85728572D01*
X81899714Y-85785714D01*
X81842571Y-85814286D01*
X81728286Y-85842857D01*
X81642571Y-85842857D01*
X81528286Y-85814286D01*
X81471143Y-85785714D01*
X81414000Y-85728572D01*
X81385429Y-85642857D01*
X81385429Y-85585714D01*
X81414000Y-85500000D01*
X81442571Y-85471429D01*
X81985429Y-84900000D02*
X81985429Y-85242857D01*
X81985429Y-85071429D02*
X81385429Y-85071429D01*
X81471143Y-85128572D01*
X81528286Y-85185714D01*
X81556857Y-85242857D01*
X81385429Y-84528571D02*
X81385429Y-84471428D01*
X81414000Y-84414285D01*
X81442571Y-84385714D01*
X81499714Y-84357143D01*
X81614000Y-84328571D01*
X81756857Y-84328571D01*
X81871143Y-84357143D01*
X81928286Y-84385714D01*
X81956857Y-84414285D01*
X81985429Y-84471428D01*
X81985429Y-84528571D01*
X81956857Y-84585714D01*
X81928286Y-84614285D01*
X81871143Y-84642857D01*
X81756857Y-84671428D01*
X81614000Y-84671428D01*
X81499714Y-84642857D01*
X81442571Y-84614285D01*
X81414000Y-84585714D01*
X81385429Y-84528571D01*
X81642571Y-83985714D02*
X81614000Y-84042856D01*
X81585429Y-84071428D01*
X81528286Y-84099999D01*
X81499714Y-84099999D01*
X81442571Y-84071428D01*
X81414000Y-84042856D01*
X81385429Y-83985714D01*
X81385429Y-83871428D01*
X81414000Y-83814285D01*
X81442571Y-83785714D01*
X81499714Y-83757142D01*
X81528286Y-83757142D01*
X81585429Y-83785714D01*
X81614000Y-83814285D01*
X81642571Y-83871428D01*
X81642571Y-83985714D01*
X81671143Y-84042856D01*
X81699714Y-84071428D01*
X81756857Y-84099999D01*
X81871143Y-84099999D01*
X81928286Y-84071428D01*
X81956857Y-84042856D01*
X81985429Y-83985714D01*
X81985429Y-83871428D01*
X81956857Y-83814285D01*
X81928286Y-83785714D01*
X81871143Y-83757142D01*
X81756857Y-83757142D01*
X81699714Y-83785714D01*
X81671143Y-83814285D01*
X81642571Y-83871428D01*
X81928286Y-92871429D02*
X81956857Y-92900000D01*
X81985429Y-92985714D01*
X81985429Y-93042857D01*
X81956857Y-93128572D01*
X81899714Y-93185714D01*
X81842571Y-93214286D01*
X81728286Y-93242857D01*
X81642571Y-93242857D01*
X81528286Y-93214286D01*
X81471143Y-93185714D01*
X81414000Y-93128572D01*
X81385429Y-93042857D01*
X81385429Y-92985714D01*
X81414000Y-92900000D01*
X81442571Y-92871429D01*
X81985429Y-92300000D02*
X81985429Y-92642857D01*
X81985429Y-92471429D02*
X81385429Y-92471429D01*
X81471143Y-92528572D01*
X81528286Y-92585714D01*
X81556857Y-92642857D01*
X81385429Y-91928571D02*
X81385429Y-91871428D01*
X81414000Y-91814285D01*
X81442571Y-91785714D01*
X81499714Y-91757143D01*
X81614000Y-91728571D01*
X81756857Y-91728571D01*
X81871143Y-91757143D01*
X81928286Y-91785714D01*
X81956857Y-91814285D01*
X81985429Y-91871428D01*
X81985429Y-91928571D01*
X81956857Y-91985714D01*
X81928286Y-92014285D01*
X81871143Y-92042857D01*
X81756857Y-92071428D01*
X81614000Y-92071428D01*
X81499714Y-92042857D01*
X81442571Y-92014285D01*
X81414000Y-91985714D01*
X81385429Y-91928571D01*
X81985429Y-91442856D02*
X81985429Y-91328571D01*
X81956857Y-91271428D01*
X81928286Y-91242856D01*
X81842571Y-91185714D01*
X81728286Y-91157142D01*
X81499714Y-91157142D01*
X81442571Y-91185714D01*
X81414000Y-91214285D01*
X81385429Y-91271428D01*
X81385429Y-91385714D01*
X81414000Y-91442856D01*
X81442571Y-91471428D01*
X81499714Y-91499999D01*
X81642571Y-91499999D01*
X81699714Y-91471428D01*
X81728286Y-91442856D01*
X81756857Y-91385714D01*
X81756857Y-91271428D01*
X81728286Y-91214285D01*
X81699714Y-91185714D01*
X81642571Y-91157142D01*
X91828571Y-93914286D02*
X91800000Y-93942857D01*
X91714286Y-93971429D01*
X91657143Y-93971429D01*
X91571428Y-93942857D01*
X91514286Y-93885714D01*
X91485714Y-93828571D01*
X91457143Y-93714286D01*
X91457143Y-93628571D01*
X91485714Y-93514286D01*
X91514286Y-93457143D01*
X91571428Y-93400000D01*
X91657143Y-93371429D01*
X91714286Y-93371429D01*
X91800000Y-93400000D01*
X91828571Y-93428571D01*
X92400000Y-93971429D02*
X92057143Y-93971429D01*
X92228571Y-93971429D02*
X92228571Y-93371429D01*
X92171428Y-93457143D01*
X92114286Y-93514286D01*
X92057143Y-93542857D01*
X92971429Y-93971429D02*
X92628572Y-93971429D01*
X92800000Y-93971429D02*
X92800000Y-93371429D01*
X92742857Y-93457143D01*
X92685715Y-93514286D01*
X92628572Y-93542857D01*
X93342858Y-93371429D02*
X93400001Y-93371429D01*
X93457144Y-93400000D01*
X93485715Y-93428571D01*
X93514286Y-93485714D01*
X93542858Y-93600000D01*
X93542858Y-93742857D01*
X93514286Y-93857143D01*
X93485715Y-93914286D01*
X93457144Y-93942857D01*
X93400001Y-93971429D01*
X93342858Y-93971429D01*
X93285715Y-93942857D01*
X93257144Y-93914286D01*
X93228572Y-93857143D01*
X93200001Y-93742857D01*
X93200001Y-93600000D01*
X93228572Y-93485714D01*
X93257144Y-93428571D01*
X93285715Y-93400000D01*
X93342858Y-93371429D01*
X104828571Y-93914286D02*
X104800000Y-93942857D01*
X104714286Y-93971429D01*
X104657143Y-93971429D01*
X104571428Y-93942857D01*
X104514286Y-93885714D01*
X104485714Y-93828571D01*
X104457143Y-93714286D01*
X104457143Y-93628571D01*
X104485714Y-93514286D01*
X104514286Y-93457143D01*
X104571428Y-93400000D01*
X104657143Y-93371429D01*
X104714286Y-93371429D01*
X104800000Y-93400000D01*
X104828571Y-93428571D01*
X105400000Y-93971429D02*
X105057143Y-93971429D01*
X105228571Y-93971429D02*
X105228571Y-93371429D01*
X105171428Y-93457143D01*
X105114286Y-93514286D01*
X105057143Y-93542857D01*
X105971429Y-93971429D02*
X105628572Y-93971429D01*
X105800000Y-93971429D02*
X105800000Y-93371429D01*
X105742857Y-93457143D01*
X105685715Y-93514286D01*
X105628572Y-93542857D01*
X106542858Y-93971429D02*
X106200001Y-93971429D01*
X106371429Y-93971429D02*
X106371429Y-93371429D01*
X106314286Y-93457143D01*
X106257144Y-93514286D01*
X106200001Y-93542857D01*
X107828571Y-54314286D02*
X107800000Y-54342857D01*
X107714286Y-54371429D01*
X107657143Y-54371429D01*
X107571428Y-54342857D01*
X107514286Y-54285714D01*
X107485714Y-54228571D01*
X107457143Y-54114286D01*
X107457143Y-54028571D01*
X107485714Y-53914286D01*
X107514286Y-53857143D01*
X107571428Y-53800000D01*
X107657143Y-53771429D01*
X107714286Y-53771429D01*
X107800000Y-53800000D01*
X107828571Y-53828571D01*
X108028571Y-53771429D02*
X108400000Y-53771429D01*
X108200000Y-54000000D01*
X108285714Y-54000000D01*
X108342857Y-54028571D01*
X108371428Y-54057143D01*
X108400000Y-54114286D01*
X108400000Y-54257143D01*
X108371428Y-54314286D01*
X108342857Y-54342857D01*
X108285714Y-54371429D01*
X108114286Y-54371429D01*
X108057143Y-54342857D01*
X108028571Y-54314286D01*
X108771429Y-53771429D02*
X108828572Y-53771429D01*
X108885715Y-53800000D01*
X108914286Y-53828571D01*
X108942857Y-53885714D01*
X108971429Y-54000000D01*
X108971429Y-54142857D01*
X108942857Y-54257143D01*
X108914286Y-54314286D01*
X108885715Y-54342857D01*
X108828572Y-54371429D01*
X108771429Y-54371429D01*
X108714286Y-54342857D01*
X108685715Y-54314286D01*
X108657143Y-54257143D01*
X108628572Y-54142857D01*
X108628572Y-54000000D01*
X108657143Y-53885714D01*
X108685715Y-53828571D01*
X108714286Y-53800000D01*
X108771429Y-53771429D01*
X109542858Y-54371429D02*
X109200001Y-54371429D01*
X109371429Y-54371429D02*
X109371429Y-53771429D01*
X109314286Y-53857143D01*
X109257144Y-53914286D01*
X109200001Y-53942857D01*
X120828571Y-53678286D02*
X120800000Y-53706857D01*
X120714286Y-53735429D01*
X120657143Y-53735429D01*
X120571428Y-53706857D01*
X120514286Y-53649714D01*
X120485714Y-53592571D01*
X120457143Y-53478286D01*
X120457143Y-53392571D01*
X120485714Y-53278286D01*
X120514286Y-53221143D01*
X120571428Y-53164000D01*
X120657143Y-53135429D01*
X120714286Y-53135429D01*
X120800000Y-53164000D01*
X120828571Y-53192571D01*
X121028571Y-53135429D02*
X121400000Y-53135429D01*
X121200000Y-53364000D01*
X121285714Y-53364000D01*
X121342857Y-53392571D01*
X121371428Y-53421143D01*
X121400000Y-53478286D01*
X121400000Y-53621143D01*
X121371428Y-53678286D01*
X121342857Y-53706857D01*
X121285714Y-53735429D01*
X121114286Y-53735429D01*
X121057143Y-53706857D01*
X121028571Y-53678286D01*
X121771429Y-53135429D02*
X121828572Y-53135429D01*
X121885715Y-53164000D01*
X121914286Y-53192571D01*
X121942857Y-53249714D01*
X121971429Y-53364000D01*
X121971429Y-53506857D01*
X121942857Y-53621143D01*
X121914286Y-53678286D01*
X121885715Y-53706857D01*
X121828572Y-53735429D01*
X121771429Y-53735429D01*
X121714286Y-53706857D01*
X121685715Y-53678286D01*
X121657143Y-53621143D01*
X121628572Y-53506857D01*
X121628572Y-53364000D01*
X121657143Y-53249714D01*
X121685715Y-53192571D01*
X121714286Y-53164000D01*
X121771429Y-53135429D01*
X122200001Y-53192571D02*
X122228572Y-53164000D01*
X122285715Y-53135429D01*
X122428572Y-53135429D01*
X122485715Y-53164000D01*
X122514286Y-53192571D01*
X122542858Y-53249714D01*
X122542858Y-53306857D01*
X122514286Y-53392571D01*
X122171429Y-53735429D01*
X122542858Y-53735429D01*
X108214286Y-90171429D02*
X108242857Y-90200000D01*
X108271429Y-90285714D01*
X108271429Y-90342857D01*
X108242857Y-90428572D01*
X108185714Y-90485714D01*
X108128571Y-90514286D01*
X108014286Y-90542857D01*
X107928571Y-90542857D01*
X107814286Y-90514286D01*
X107757143Y-90485714D01*
X107700000Y-90428572D01*
X107671429Y-90342857D01*
X107671429Y-90285714D01*
X107700000Y-90200000D01*
X107728571Y-90171429D01*
X107871429Y-89657143D02*
X108271429Y-89657143D01*
X107642857Y-89800000D02*
X108071429Y-89942857D01*
X108071429Y-89571429D01*
X107671429Y-89228571D02*
X107671429Y-89171428D01*
X107700000Y-89114285D01*
X107728571Y-89085714D01*
X107785714Y-89057143D01*
X107900000Y-89028571D01*
X108042857Y-89028571D01*
X108157143Y-89057143D01*
X108214286Y-89085714D01*
X108242857Y-89114285D01*
X108271429Y-89171428D01*
X108271429Y-89228571D01*
X108242857Y-89285714D01*
X108214286Y-89314285D01*
X108157143Y-89342857D01*
X108042857Y-89371428D01*
X107900000Y-89371428D01*
X107785714Y-89342857D01*
X107728571Y-89314285D01*
X107700000Y-89285714D01*
X107671429Y-89228571D01*
X108271429Y-88457142D02*
X108271429Y-88799999D01*
X108271429Y-88628571D02*
X107671429Y-88628571D01*
X107757143Y-88685714D01*
X107814286Y-88742856D01*
X107842857Y-88799999D01*
X108314286Y-84671429D02*
X108342857Y-84700000D01*
X108371429Y-84785714D01*
X108371429Y-84842857D01*
X108342857Y-84928572D01*
X108285714Y-84985714D01*
X108228571Y-85014286D01*
X108114286Y-85042857D01*
X108028571Y-85042857D01*
X107914286Y-85014286D01*
X107857143Y-84985714D01*
X107800000Y-84928572D01*
X107771429Y-84842857D01*
X107771429Y-84785714D01*
X107800000Y-84700000D01*
X107828571Y-84671429D01*
X107971429Y-84157143D02*
X108371429Y-84157143D01*
X107742857Y-84300000D02*
X108171429Y-84442857D01*
X108171429Y-84071429D01*
X107771429Y-83728571D02*
X107771429Y-83671428D01*
X107800000Y-83614285D01*
X107828571Y-83585714D01*
X107885714Y-83557143D01*
X108000000Y-83528571D01*
X108142857Y-83528571D01*
X108257143Y-83557143D01*
X108314286Y-83585714D01*
X108342857Y-83614285D01*
X108371429Y-83671428D01*
X108371429Y-83728571D01*
X108342857Y-83785714D01*
X108314286Y-83814285D01*
X108257143Y-83842857D01*
X108142857Y-83871428D01*
X108000000Y-83871428D01*
X107885714Y-83842857D01*
X107828571Y-83814285D01*
X107800000Y-83785714D01*
X107771429Y-83728571D01*
X107828571Y-83299999D02*
X107800000Y-83271428D01*
X107771429Y-83214285D01*
X107771429Y-83071428D01*
X107800000Y-83014285D01*
X107828571Y-82985714D01*
X107885714Y-82957142D01*
X107942857Y-82957142D01*
X108028571Y-82985714D01*
X108371429Y-83328571D01*
X108371429Y-82957142D01*
X121314286Y-104071429D02*
X121342857Y-104100000D01*
X121371429Y-104185714D01*
X121371429Y-104242857D01*
X121342857Y-104328572D01*
X121285714Y-104385714D01*
X121228571Y-104414286D01*
X121114286Y-104442857D01*
X121028571Y-104442857D01*
X120914286Y-104414286D01*
X120857143Y-104385714D01*
X120800000Y-104328572D01*
X120771429Y-104242857D01*
X120771429Y-104185714D01*
X120800000Y-104100000D01*
X120828571Y-104071429D01*
X120971429Y-103557143D02*
X121371429Y-103557143D01*
X120742857Y-103700000D02*
X121171429Y-103842857D01*
X121171429Y-103471429D01*
X120771429Y-103128571D02*
X120771429Y-103071428D01*
X120800000Y-103014285D01*
X120828571Y-102985714D01*
X120885714Y-102957143D01*
X121000000Y-102928571D01*
X121142857Y-102928571D01*
X121257143Y-102957143D01*
X121314286Y-102985714D01*
X121342857Y-103014285D01*
X121371429Y-103071428D01*
X121371429Y-103128571D01*
X121342857Y-103185714D01*
X121314286Y-103214285D01*
X121257143Y-103242857D01*
X121142857Y-103271428D01*
X121000000Y-103271428D01*
X120885714Y-103242857D01*
X120828571Y-103214285D01*
X120800000Y-103185714D01*
X120771429Y-103128571D01*
X120771429Y-102728571D02*
X120771429Y-102357142D01*
X121000000Y-102557142D01*
X121000000Y-102471428D01*
X121028571Y-102414285D01*
X121057143Y-102385714D01*
X121114286Y-102357142D01*
X121257143Y-102357142D01*
X121314286Y-102385714D01*
X121342857Y-102414285D01*
X121371429Y-102471428D01*
X121371429Y-102642856D01*
X121342857Y-102699999D01*
X121314286Y-102728571D01*
X129514286Y-59571429D02*
X129542857Y-59600000D01*
X129571429Y-59685714D01*
X129571429Y-59742857D01*
X129542857Y-59828572D01*
X129485714Y-59885714D01*
X129428571Y-59914286D01*
X129314286Y-59942857D01*
X129228571Y-59942857D01*
X129114286Y-59914286D01*
X129057143Y-59885714D01*
X129000000Y-59828572D01*
X128971429Y-59742857D01*
X128971429Y-59685714D01*
X129000000Y-59600000D01*
X129028571Y-59571429D01*
X128971429Y-59028572D02*
X128971429Y-59314286D01*
X129257143Y-59342857D01*
X129228571Y-59314286D01*
X129200000Y-59257143D01*
X129200000Y-59114286D01*
X129228571Y-59057143D01*
X129257143Y-59028572D01*
X129314286Y-59000000D01*
X129457143Y-59000000D01*
X129514286Y-59028572D01*
X129542857Y-59057143D01*
X129571429Y-59114286D01*
X129571429Y-59257143D01*
X129542857Y-59314286D01*
X129514286Y-59342857D01*
X128971429Y-58628571D02*
X128971429Y-58571428D01*
X129000000Y-58514285D01*
X129028571Y-58485714D01*
X129085714Y-58457143D01*
X129200000Y-58428571D01*
X129342857Y-58428571D01*
X129457143Y-58457143D01*
X129514286Y-58485714D01*
X129542857Y-58514285D01*
X129571429Y-58571428D01*
X129571429Y-58628571D01*
X129542857Y-58685714D01*
X129514286Y-58714285D01*
X129457143Y-58742857D01*
X129342857Y-58771428D01*
X129200000Y-58771428D01*
X129085714Y-58742857D01*
X129028571Y-58714285D01*
X129000000Y-58685714D01*
X128971429Y-58628571D01*
X129571429Y-57857142D02*
X129571429Y-58199999D01*
X129571429Y-58028571D02*
X128971429Y-58028571D01*
X129057143Y-58085714D01*
X129114286Y-58142856D01*
X129142857Y-58199999D01*
X130328571Y-73114286D02*
X130300000Y-73142857D01*
X130214286Y-73171429D01*
X130157143Y-73171429D01*
X130071428Y-73142857D01*
X130014286Y-73085714D01*
X129985714Y-73028571D01*
X129957143Y-72914286D01*
X129957143Y-72828571D01*
X129985714Y-72714286D01*
X130014286Y-72657143D01*
X130071428Y-72600000D01*
X130157143Y-72571429D01*
X130214286Y-72571429D01*
X130300000Y-72600000D01*
X130328571Y-72628571D01*
X130842857Y-72571429D02*
X130728571Y-72571429D01*
X130671428Y-72600000D01*
X130642857Y-72628571D01*
X130585714Y-72714286D01*
X130557143Y-72828571D01*
X130557143Y-73057143D01*
X130585714Y-73114286D01*
X130614286Y-73142857D01*
X130671428Y-73171429D01*
X130785714Y-73171429D01*
X130842857Y-73142857D01*
X130871428Y-73114286D01*
X130900000Y-73057143D01*
X130900000Y-72914286D01*
X130871428Y-72857143D01*
X130842857Y-72828571D01*
X130785714Y-72800000D01*
X130671428Y-72800000D01*
X130614286Y-72828571D01*
X130585714Y-72857143D01*
X130557143Y-72914286D01*
X131271429Y-72571429D02*
X131328572Y-72571429D01*
X131385715Y-72600000D01*
X131414286Y-72628571D01*
X131442857Y-72685714D01*
X131471429Y-72800000D01*
X131471429Y-72942857D01*
X131442857Y-73057143D01*
X131414286Y-73114286D01*
X131385715Y-73142857D01*
X131328572Y-73171429D01*
X131271429Y-73171429D01*
X131214286Y-73142857D01*
X131185715Y-73114286D01*
X131157143Y-73057143D01*
X131128572Y-72942857D01*
X131128572Y-72800000D01*
X131157143Y-72685714D01*
X131185715Y-72628571D01*
X131214286Y-72600000D01*
X131271429Y-72571429D01*
X132042858Y-73171429D02*
X131700001Y-73171429D01*
X131871429Y-73171429D02*
X131871429Y-72571429D01*
X131814286Y-72657143D01*
X131757144Y-72714286D01*
X131700001Y-72742857D01*
X133714286Y-66771429D02*
X133742857Y-66800000D01*
X133771429Y-66885714D01*
X133771429Y-66942857D01*
X133742857Y-67028572D01*
X133685714Y-67085714D01*
X133628571Y-67114286D01*
X133514286Y-67142857D01*
X133428571Y-67142857D01*
X133314286Y-67114286D01*
X133257143Y-67085714D01*
X133200000Y-67028572D01*
X133171429Y-66942857D01*
X133171429Y-66885714D01*
X133200000Y-66800000D01*
X133228571Y-66771429D01*
X133171429Y-66257143D02*
X133171429Y-66371429D01*
X133200000Y-66428572D01*
X133228571Y-66457143D01*
X133314286Y-66514286D01*
X133428571Y-66542857D01*
X133657143Y-66542857D01*
X133714286Y-66514286D01*
X133742857Y-66485714D01*
X133771429Y-66428572D01*
X133771429Y-66314286D01*
X133742857Y-66257143D01*
X133714286Y-66228572D01*
X133657143Y-66200000D01*
X133514286Y-66200000D01*
X133457143Y-66228572D01*
X133428571Y-66257143D01*
X133400000Y-66314286D01*
X133400000Y-66428572D01*
X133428571Y-66485714D01*
X133457143Y-66514286D01*
X133514286Y-66542857D01*
X133171429Y-65828571D02*
X133171429Y-65771428D01*
X133200000Y-65714285D01*
X133228571Y-65685714D01*
X133285714Y-65657143D01*
X133400000Y-65628571D01*
X133542857Y-65628571D01*
X133657143Y-65657143D01*
X133714286Y-65685714D01*
X133742857Y-65714285D01*
X133771429Y-65771428D01*
X133771429Y-65828571D01*
X133742857Y-65885714D01*
X133714286Y-65914285D01*
X133657143Y-65942857D01*
X133542857Y-65971428D01*
X133400000Y-65971428D01*
X133285714Y-65942857D01*
X133228571Y-65914285D01*
X133200000Y-65885714D01*
X133171429Y-65828571D01*
X133228571Y-65399999D02*
X133200000Y-65371428D01*
X133171429Y-65314285D01*
X133171429Y-65171428D01*
X133200000Y-65114285D01*
X133228571Y-65085714D01*
X133285714Y-65057142D01*
X133342857Y-65057142D01*
X133428571Y-65085714D01*
X133771429Y-65428571D01*
X133771429Y-65057142D01*
X135214286Y-79671429D02*
X135242857Y-79700000D01*
X135271429Y-79785714D01*
X135271429Y-79842857D01*
X135242857Y-79928572D01*
X135185714Y-79985714D01*
X135128571Y-80014286D01*
X135014286Y-80042857D01*
X134928571Y-80042857D01*
X134814286Y-80014286D01*
X134757143Y-79985714D01*
X134700000Y-79928572D01*
X134671429Y-79842857D01*
X134671429Y-79785714D01*
X134700000Y-79700000D01*
X134728571Y-79671429D01*
X134671429Y-79157143D02*
X134671429Y-79271429D01*
X134700000Y-79328572D01*
X134728571Y-79357143D01*
X134814286Y-79414286D01*
X134928571Y-79442857D01*
X135157143Y-79442857D01*
X135214286Y-79414286D01*
X135242857Y-79385714D01*
X135271429Y-79328572D01*
X135271429Y-79214286D01*
X135242857Y-79157143D01*
X135214286Y-79128572D01*
X135157143Y-79100000D01*
X135014286Y-79100000D01*
X134957143Y-79128572D01*
X134928571Y-79157143D01*
X134900000Y-79214286D01*
X134900000Y-79328572D01*
X134928571Y-79385714D01*
X134957143Y-79414286D01*
X135014286Y-79442857D01*
X134671429Y-78728571D02*
X134671429Y-78671428D01*
X134700000Y-78614285D01*
X134728571Y-78585714D01*
X134785714Y-78557143D01*
X134900000Y-78528571D01*
X135042857Y-78528571D01*
X135157143Y-78557143D01*
X135214286Y-78585714D01*
X135242857Y-78614285D01*
X135271429Y-78671428D01*
X135271429Y-78728571D01*
X135242857Y-78785714D01*
X135214286Y-78814285D01*
X135157143Y-78842857D01*
X135042857Y-78871428D01*
X134900000Y-78871428D01*
X134785714Y-78842857D01*
X134728571Y-78814285D01*
X134700000Y-78785714D01*
X134671429Y-78728571D01*
X134671429Y-78328571D02*
X134671429Y-77957142D01*
X134900000Y-78157142D01*
X134900000Y-78071428D01*
X134928571Y-78014285D01*
X134957143Y-77985714D01*
X135014286Y-77957142D01*
X135157143Y-77957142D01*
X135214286Y-77985714D01*
X135242857Y-78014285D01*
X135271429Y-78071428D01*
X135271429Y-78242856D01*
X135242857Y-78299999D01*
X135214286Y-78328571D01*
X134714286Y-74071429D02*
X134742857Y-74100000D01*
X134771429Y-74185714D01*
X134771429Y-74242857D01*
X134742857Y-74328572D01*
X134685714Y-74385714D01*
X134628571Y-74414286D01*
X134514286Y-74442857D01*
X134428571Y-74442857D01*
X134314286Y-74414286D01*
X134257143Y-74385714D01*
X134200000Y-74328572D01*
X134171429Y-74242857D01*
X134171429Y-74185714D01*
X134200000Y-74100000D01*
X134228571Y-74071429D01*
X134171429Y-73557143D02*
X134171429Y-73671429D01*
X134200000Y-73728572D01*
X134228571Y-73757143D01*
X134314286Y-73814286D01*
X134428571Y-73842857D01*
X134657143Y-73842857D01*
X134714286Y-73814286D01*
X134742857Y-73785714D01*
X134771429Y-73728572D01*
X134771429Y-73614286D01*
X134742857Y-73557143D01*
X134714286Y-73528572D01*
X134657143Y-73500000D01*
X134514286Y-73500000D01*
X134457143Y-73528572D01*
X134428571Y-73557143D01*
X134400000Y-73614286D01*
X134400000Y-73728572D01*
X134428571Y-73785714D01*
X134457143Y-73814286D01*
X134514286Y-73842857D01*
X134171429Y-73128571D02*
X134171429Y-73071428D01*
X134200000Y-73014285D01*
X134228571Y-72985714D01*
X134285714Y-72957143D01*
X134400000Y-72928571D01*
X134542857Y-72928571D01*
X134657143Y-72957143D01*
X134714286Y-72985714D01*
X134742857Y-73014285D01*
X134771429Y-73071428D01*
X134771429Y-73128571D01*
X134742857Y-73185714D01*
X134714286Y-73214285D01*
X134657143Y-73242857D01*
X134542857Y-73271428D01*
X134400000Y-73271428D01*
X134285714Y-73242857D01*
X134228571Y-73214285D01*
X134200000Y-73185714D01*
X134171429Y-73128571D01*
X134171429Y-72385714D02*
X134171429Y-72671428D01*
X134457143Y-72699999D01*
X134428571Y-72671428D01*
X134400000Y-72614285D01*
X134400000Y-72471428D01*
X134428571Y-72414285D01*
X134457143Y-72385714D01*
X134514286Y-72357142D01*
X134657143Y-72357142D01*
X134714286Y-72385714D01*
X134742857Y-72414285D01*
X134771429Y-72471428D01*
X134771429Y-72614285D01*
X134742857Y-72671428D01*
X134714286Y-72699999D01*
X135828571Y-81614286D02*
X135800000Y-81642857D01*
X135714286Y-81671429D01*
X135657143Y-81671429D01*
X135571428Y-81642857D01*
X135514286Y-81585714D01*
X135485714Y-81528571D01*
X135457143Y-81414286D01*
X135457143Y-81328571D01*
X135485714Y-81214286D01*
X135514286Y-81157143D01*
X135571428Y-81100000D01*
X135657143Y-81071429D01*
X135714286Y-81071429D01*
X135800000Y-81100000D01*
X135828571Y-81128571D01*
X136342857Y-81071429D02*
X136228571Y-81071429D01*
X136171428Y-81100000D01*
X136142857Y-81128571D01*
X136085714Y-81214286D01*
X136057143Y-81328571D01*
X136057143Y-81557143D01*
X136085714Y-81614286D01*
X136114286Y-81642857D01*
X136171428Y-81671429D01*
X136285714Y-81671429D01*
X136342857Y-81642857D01*
X136371428Y-81614286D01*
X136400000Y-81557143D01*
X136400000Y-81414286D01*
X136371428Y-81357143D01*
X136342857Y-81328571D01*
X136285714Y-81300000D01*
X136171428Y-81300000D01*
X136114286Y-81328571D01*
X136085714Y-81357143D01*
X136057143Y-81414286D01*
X136771429Y-81071429D02*
X136828572Y-81071429D01*
X136885715Y-81100000D01*
X136914286Y-81128571D01*
X136942857Y-81185714D01*
X136971429Y-81300000D01*
X136971429Y-81442857D01*
X136942857Y-81557143D01*
X136914286Y-81614286D01*
X136885715Y-81642857D01*
X136828572Y-81671429D01*
X136771429Y-81671429D01*
X136714286Y-81642857D01*
X136685715Y-81614286D01*
X136657143Y-81557143D01*
X136628572Y-81442857D01*
X136628572Y-81300000D01*
X136657143Y-81185714D01*
X136685715Y-81128571D01*
X136714286Y-81100000D01*
X136771429Y-81071429D01*
X137485715Y-81071429D02*
X137371429Y-81071429D01*
X137314286Y-81100000D01*
X137285715Y-81128571D01*
X137228572Y-81214286D01*
X137200001Y-81328571D01*
X137200001Y-81557143D01*
X137228572Y-81614286D01*
X137257144Y-81642857D01*
X137314286Y-81671429D01*
X137428572Y-81671429D01*
X137485715Y-81642857D01*
X137514286Y-81614286D01*
X137542858Y-81557143D01*
X137542858Y-81414286D01*
X137514286Y-81357143D01*
X137485715Y-81328571D01*
X137428572Y-81300000D01*
X137314286Y-81300000D01*
X137257144Y-81328571D01*
X137228572Y-81357143D01*
X137200001Y-81414286D01*
X126228571Y-106214286D02*
X126200000Y-106242857D01*
X126114286Y-106271429D01*
X126057143Y-106271429D01*
X125971428Y-106242857D01*
X125914286Y-106185714D01*
X125885714Y-106128571D01*
X125857143Y-106014286D01*
X125857143Y-105928571D01*
X125885714Y-105814286D01*
X125914286Y-105757143D01*
X125971428Y-105700000D01*
X126057143Y-105671429D01*
X126114286Y-105671429D01*
X126200000Y-105700000D01*
X126228571Y-105728571D01*
X126742857Y-105671429D02*
X126628571Y-105671429D01*
X126571428Y-105700000D01*
X126542857Y-105728571D01*
X126485714Y-105814286D01*
X126457143Y-105928571D01*
X126457143Y-106157143D01*
X126485714Y-106214286D01*
X126514286Y-106242857D01*
X126571428Y-106271429D01*
X126685714Y-106271429D01*
X126742857Y-106242857D01*
X126771428Y-106214286D01*
X126800000Y-106157143D01*
X126800000Y-106014286D01*
X126771428Y-105957143D01*
X126742857Y-105928571D01*
X126685714Y-105900000D01*
X126571428Y-105900000D01*
X126514286Y-105928571D01*
X126485714Y-105957143D01*
X126457143Y-106014286D01*
X127171429Y-105671429D02*
X127228572Y-105671429D01*
X127285715Y-105700000D01*
X127314286Y-105728571D01*
X127342857Y-105785714D01*
X127371429Y-105900000D01*
X127371429Y-106042857D01*
X127342857Y-106157143D01*
X127314286Y-106214286D01*
X127285715Y-106242857D01*
X127228572Y-106271429D01*
X127171429Y-106271429D01*
X127114286Y-106242857D01*
X127085715Y-106214286D01*
X127057143Y-106157143D01*
X127028572Y-106042857D01*
X127028572Y-105900000D01*
X127057143Y-105785714D01*
X127085715Y-105728571D01*
X127114286Y-105700000D01*
X127171429Y-105671429D01*
X127571429Y-105671429D02*
X127971429Y-105671429D01*
X127714286Y-106271429D01*
X76985714Y-53971429D02*
X76985714Y-53371429D01*
X77128571Y-53371429D01*
X77214286Y-53400000D01*
X77271428Y-53457143D01*
X77300000Y-53514286D01*
X77328571Y-53628571D01*
X77328571Y-53714286D01*
X77300000Y-53828571D01*
X77271428Y-53885714D01*
X77214286Y-53942857D01*
X77128571Y-53971429D01*
X76985714Y-53971429D01*
X77557143Y-53428571D02*
X77585714Y-53400000D01*
X77642857Y-53371429D01*
X77785714Y-53371429D01*
X77842857Y-53400000D01*
X77871428Y-53428571D01*
X77900000Y-53485714D01*
X77900000Y-53542857D01*
X77871428Y-53628571D01*
X77528571Y-53971429D01*
X77900000Y-53971429D01*
X78271429Y-53371429D02*
X78328572Y-53371429D01*
X78385715Y-53400000D01*
X78414286Y-53428571D01*
X78442857Y-53485714D01*
X78471429Y-53600000D01*
X78471429Y-53742857D01*
X78442857Y-53857143D01*
X78414286Y-53914286D01*
X78385715Y-53942857D01*
X78328572Y-53971429D01*
X78271429Y-53971429D01*
X78214286Y-53942857D01*
X78185715Y-53914286D01*
X78157143Y-53857143D01*
X78128572Y-53742857D01*
X78128572Y-53600000D01*
X78157143Y-53485714D01*
X78185715Y-53428571D01*
X78214286Y-53400000D01*
X78271429Y-53371429D01*
X79042858Y-53971429D02*
X78700001Y-53971429D01*
X78871429Y-53971429D02*
X78871429Y-53371429D01*
X78814286Y-53457143D01*
X78757144Y-53514286D01*
X78700001Y-53542857D01*
X76985714Y-68871429D02*
X76985714Y-68271429D01*
X77128571Y-68271429D01*
X77214286Y-68300000D01*
X77271428Y-68357143D01*
X77300000Y-68414286D01*
X77328571Y-68528571D01*
X77328571Y-68614286D01*
X77300000Y-68728571D01*
X77271428Y-68785714D01*
X77214286Y-68842857D01*
X77128571Y-68871429D01*
X76985714Y-68871429D01*
X77557143Y-68328571D02*
X77585714Y-68300000D01*
X77642857Y-68271429D01*
X77785714Y-68271429D01*
X77842857Y-68300000D01*
X77871428Y-68328571D01*
X77900000Y-68385714D01*
X77900000Y-68442857D01*
X77871428Y-68528571D01*
X77528571Y-68871429D01*
X77900000Y-68871429D01*
X78271429Y-68271429D02*
X78328572Y-68271429D01*
X78385715Y-68300000D01*
X78414286Y-68328571D01*
X78442857Y-68385714D01*
X78471429Y-68500000D01*
X78471429Y-68642857D01*
X78442857Y-68757143D01*
X78414286Y-68814286D01*
X78385715Y-68842857D01*
X78328572Y-68871429D01*
X78271429Y-68871429D01*
X78214286Y-68842857D01*
X78185715Y-68814286D01*
X78157143Y-68757143D01*
X78128572Y-68642857D01*
X78128572Y-68500000D01*
X78157143Y-68385714D01*
X78185715Y-68328571D01*
X78214286Y-68300000D01*
X78271429Y-68271429D01*
X78700001Y-68328571D02*
X78728572Y-68300000D01*
X78785715Y-68271429D01*
X78928572Y-68271429D01*
X78985715Y-68300000D01*
X79014286Y-68328571D01*
X79042858Y-68385714D01*
X79042858Y-68442857D01*
X79014286Y-68528571D01*
X78671429Y-68871429D01*
X79042858Y-68871429D01*
X89885714Y-56671429D02*
X89885714Y-56071429D01*
X90028571Y-56071429D01*
X90114286Y-56100000D01*
X90171428Y-56157143D01*
X90200000Y-56214286D01*
X90228571Y-56328571D01*
X90228571Y-56414286D01*
X90200000Y-56528571D01*
X90171428Y-56585714D01*
X90114286Y-56642857D01*
X90028571Y-56671429D01*
X89885714Y-56671429D01*
X90428571Y-56071429D02*
X90800000Y-56071429D01*
X90600000Y-56300000D01*
X90685714Y-56300000D01*
X90742857Y-56328571D01*
X90771428Y-56357143D01*
X90800000Y-56414286D01*
X90800000Y-56557143D01*
X90771428Y-56614286D01*
X90742857Y-56642857D01*
X90685714Y-56671429D01*
X90514286Y-56671429D01*
X90457143Y-56642857D01*
X90428571Y-56614286D01*
X91171429Y-56071429D02*
X91228572Y-56071429D01*
X91285715Y-56100000D01*
X91314286Y-56128571D01*
X91342857Y-56185714D01*
X91371429Y-56300000D01*
X91371429Y-56442857D01*
X91342857Y-56557143D01*
X91314286Y-56614286D01*
X91285715Y-56642857D01*
X91228572Y-56671429D01*
X91171429Y-56671429D01*
X91114286Y-56642857D01*
X91085715Y-56614286D01*
X91057143Y-56557143D01*
X91028572Y-56442857D01*
X91028572Y-56300000D01*
X91057143Y-56185714D01*
X91085715Y-56128571D01*
X91114286Y-56100000D01*
X91171429Y-56071429D01*
X91942858Y-56671429D02*
X91600001Y-56671429D01*
X91771429Y-56671429D02*
X91771429Y-56071429D01*
X91714286Y-56157143D01*
X91657144Y-56214286D01*
X91600001Y-56242857D01*
X123371429Y-65214286D02*
X122771429Y-65214286D01*
X122771429Y-65071429D01*
X122800000Y-64985714D01*
X122857143Y-64928572D01*
X122914286Y-64900000D01*
X123028571Y-64871429D01*
X123114286Y-64871429D01*
X123228571Y-64900000D01*
X123285714Y-64928572D01*
X123342857Y-64985714D01*
X123371429Y-65071429D01*
X123371429Y-65214286D01*
X122771429Y-64671429D02*
X122771429Y-64300000D01*
X123000000Y-64500000D01*
X123000000Y-64414286D01*
X123028571Y-64357143D01*
X123057143Y-64328572D01*
X123114286Y-64300000D01*
X123257143Y-64300000D01*
X123314286Y-64328572D01*
X123342857Y-64357143D01*
X123371429Y-64414286D01*
X123371429Y-64585714D01*
X123342857Y-64642857D01*
X123314286Y-64671429D01*
X122771429Y-63928571D02*
X122771429Y-63871428D01*
X122800000Y-63814285D01*
X122828571Y-63785714D01*
X122885714Y-63757143D01*
X123000000Y-63728571D01*
X123142857Y-63728571D01*
X123257143Y-63757143D01*
X123314286Y-63785714D01*
X123342857Y-63814285D01*
X123371429Y-63871428D01*
X123371429Y-63928571D01*
X123342857Y-63985714D01*
X123314286Y-64014285D01*
X123257143Y-64042857D01*
X123142857Y-64071428D01*
X123000000Y-64071428D01*
X122885714Y-64042857D01*
X122828571Y-64014285D01*
X122800000Y-63985714D01*
X122771429Y-63928571D01*
X122828571Y-63499999D02*
X122800000Y-63471428D01*
X122771429Y-63414285D01*
X122771429Y-63271428D01*
X122800000Y-63214285D01*
X122828571Y-63185714D01*
X122885714Y-63157142D01*
X122942857Y-63157142D01*
X123028571Y-63185714D01*
X123371429Y-63528571D01*
X123371429Y-63157142D01*
X73385714Y-88771429D02*
X73385714Y-88171429D01*
X73528571Y-88171429D01*
X73614286Y-88200000D01*
X73671428Y-88257143D01*
X73700000Y-88314286D01*
X73728571Y-88428571D01*
X73728571Y-88514286D01*
X73700000Y-88628571D01*
X73671428Y-88685714D01*
X73614286Y-88742857D01*
X73528571Y-88771429D01*
X73385714Y-88771429D01*
X73928571Y-88171429D02*
X74300000Y-88171429D01*
X74100000Y-88400000D01*
X74185714Y-88400000D01*
X74242857Y-88428571D01*
X74271428Y-88457143D01*
X74300000Y-88514286D01*
X74300000Y-88657143D01*
X74271428Y-88714286D01*
X74242857Y-88742857D01*
X74185714Y-88771429D01*
X74014286Y-88771429D01*
X73957143Y-88742857D01*
X73928571Y-88714286D01*
X74671429Y-88171429D02*
X74728572Y-88171429D01*
X74785715Y-88200000D01*
X74814286Y-88228571D01*
X74842857Y-88285714D01*
X74871429Y-88400000D01*
X74871429Y-88542857D01*
X74842857Y-88657143D01*
X74814286Y-88714286D01*
X74785715Y-88742857D01*
X74728572Y-88771429D01*
X74671429Y-88771429D01*
X74614286Y-88742857D01*
X74585715Y-88714286D01*
X74557143Y-88657143D01*
X74528572Y-88542857D01*
X74528572Y-88400000D01*
X74557143Y-88285714D01*
X74585715Y-88228571D01*
X74614286Y-88200000D01*
X74671429Y-88171429D01*
X75071429Y-88171429D02*
X75442858Y-88171429D01*
X75242858Y-88400000D01*
X75328572Y-88400000D01*
X75385715Y-88428571D01*
X75414286Y-88457143D01*
X75442858Y-88514286D01*
X75442858Y-88657143D01*
X75414286Y-88714286D01*
X75385715Y-88742857D01*
X75328572Y-88771429D01*
X75157144Y-88771429D01*
X75100001Y-88742857D01*
X75071429Y-88714286D01*
X73922429Y-83014286D02*
X73322429Y-83014286D01*
X73322429Y-82871429D01*
X73351000Y-82785714D01*
X73408143Y-82728572D01*
X73465286Y-82700000D01*
X73579571Y-82671429D01*
X73665286Y-82671429D01*
X73779571Y-82700000D01*
X73836714Y-82728572D01*
X73893857Y-82785714D01*
X73922429Y-82871429D01*
X73922429Y-83014286D01*
X73322429Y-82471429D02*
X73322429Y-82100000D01*
X73551000Y-82300000D01*
X73551000Y-82214286D01*
X73579571Y-82157143D01*
X73608143Y-82128572D01*
X73665286Y-82100000D01*
X73808143Y-82100000D01*
X73865286Y-82128572D01*
X73893857Y-82157143D01*
X73922429Y-82214286D01*
X73922429Y-82385714D01*
X73893857Y-82442857D01*
X73865286Y-82471429D01*
X73322429Y-81728571D02*
X73322429Y-81671428D01*
X73351000Y-81614285D01*
X73379571Y-81585714D01*
X73436714Y-81557143D01*
X73551000Y-81528571D01*
X73693857Y-81528571D01*
X73808143Y-81557143D01*
X73865286Y-81585714D01*
X73893857Y-81614285D01*
X73922429Y-81671428D01*
X73922429Y-81728571D01*
X73893857Y-81785714D01*
X73865286Y-81814285D01*
X73808143Y-81842857D01*
X73693857Y-81871428D01*
X73551000Y-81871428D01*
X73436714Y-81842857D01*
X73379571Y-81814285D01*
X73351000Y-81785714D01*
X73322429Y-81728571D01*
X73522429Y-81014285D02*
X73922429Y-81014285D01*
X73293857Y-81157142D02*
X73722429Y-81299999D01*
X73722429Y-80928571D01*
X73771429Y-67514286D02*
X73171429Y-67514286D01*
X73171429Y-67371429D01*
X73200000Y-67285714D01*
X73257143Y-67228572D01*
X73314286Y-67200000D01*
X73428571Y-67171429D01*
X73514286Y-67171429D01*
X73628571Y-67200000D01*
X73685714Y-67228572D01*
X73742857Y-67285714D01*
X73771429Y-67371429D01*
X73771429Y-67514286D01*
X73171429Y-66971429D02*
X73171429Y-66600000D01*
X73400000Y-66800000D01*
X73400000Y-66714286D01*
X73428571Y-66657143D01*
X73457143Y-66628572D01*
X73514286Y-66600000D01*
X73657143Y-66600000D01*
X73714286Y-66628572D01*
X73742857Y-66657143D01*
X73771429Y-66714286D01*
X73771429Y-66885714D01*
X73742857Y-66942857D01*
X73714286Y-66971429D01*
X73171429Y-66228571D02*
X73171429Y-66171428D01*
X73200000Y-66114285D01*
X73228571Y-66085714D01*
X73285714Y-66057143D01*
X73400000Y-66028571D01*
X73542857Y-66028571D01*
X73657143Y-66057143D01*
X73714286Y-66085714D01*
X73742857Y-66114285D01*
X73771429Y-66171428D01*
X73771429Y-66228571D01*
X73742857Y-66285714D01*
X73714286Y-66314285D01*
X73657143Y-66342857D01*
X73542857Y-66371428D01*
X73400000Y-66371428D01*
X73285714Y-66342857D01*
X73228571Y-66314285D01*
X73200000Y-66285714D01*
X73171429Y-66228571D01*
X73171429Y-65485714D02*
X73171429Y-65771428D01*
X73457143Y-65799999D01*
X73428571Y-65771428D01*
X73400000Y-65714285D01*
X73400000Y-65571428D01*
X73428571Y-65514285D01*
X73457143Y-65485714D01*
X73514286Y-65457142D01*
X73657143Y-65457142D01*
X73714286Y-65485714D01*
X73742857Y-65514285D01*
X73771429Y-65571428D01*
X73771429Y-65714285D01*
X73742857Y-65771428D01*
X73714286Y-65799999D01*
X98871429Y-106971429D02*
X99300000Y-106971429D01*
X99385714Y-107000001D01*
X99442857Y-107057144D01*
X99471429Y-107142858D01*
X99471429Y-107200001D01*
X99471429Y-106371429D02*
X99471429Y-106714286D01*
X99471429Y-106542858D02*
X98871429Y-106542858D01*
X98957143Y-106600001D01*
X99014286Y-106657143D01*
X99042857Y-106714286D01*
X98871429Y-106000000D02*
X98871429Y-105942857D01*
X98900000Y-105885714D01*
X98928571Y-105857143D01*
X98985714Y-105828572D01*
X99100000Y-105800000D01*
X99242857Y-105800000D01*
X99357143Y-105828572D01*
X99414286Y-105857143D01*
X99442857Y-105885714D01*
X99471429Y-105942857D01*
X99471429Y-106000000D01*
X99442857Y-106057143D01*
X99414286Y-106085714D01*
X99357143Y-106114286D01*
X99242857Y-106142857D01*
X99100000Y-106142857D01*
X98985714Y-106114286D01*
X98928571Y-106085714D01*
X98900000Y-106057143D01*
X98871429Y-106000000D01*
X99471429Y-105228571D02*
X99471429Y-105571428D01*
X99471429Y-105400000D02*
X98871429Y-105400000D01*
X98957143Y-105457143D01*
X99014286Y-105514285D01*
X99042857Y-105571428D01*
X114228571Y-72271429D02*
X113942857Y-72271429D01*
X113942857Y-71671429D01*
X114371428Y-71671429D02*
X114742857Y-71671429D01*
X114542857Y-71900000D01*
X114628571Y-71900000D01*
X114685714Y-71928571D01*
X114714285Y-71957143D01*
X114742857Y-72014286D01*
X114742857Y-72157143D01*
X114714285Y-72214286D01*
X114685714Y-72242857D01*
X114628571Y-72271429D01*
X114457143Y-72271429D01*
X114400000Y-72242857D01*
X114371428Y-72214286D01*
X115114286Y-71671429D02*
X115171429Y-71671429D01*
X115228572Y-71700000D01*
X115257143Y-71728571D01*
X115285714Y-71785714D01*
X115314286Y-71900000D01*
X115314286Y-72042857D01*
X115285714Y-72157143D01*
X115257143Y-72214286D01*
X115228572Y-72242857D01*
X115171429Y-72271429D01*
X115114286Y-72271429D01*
X115057143Y-72242857D01*
X115028572Y-72214286D01*
X115000000Y-72157143D01*
X114971429Y-72042857D01*
X114971429Y-71900000D01*
X115000000Y-71785714D01*
X115028572Y-71728571D01*
X115057143Y-71700000D01*
X115114286Y-71671429D01*
X115885715Y-72271429D02*
X115542858Y-72271429D01*
X115714286Y-72271429D02*
X115714286Y-71671429D01*
X115657143Y-71757143D01*
X115600001Y-71814286D01*
X115542858Y-71842857D01*
X119271429Y-104071429D02*
X119271429Y-104357143D01*
X118671429Y-104357143D01*
X118871429Y-103614286D02*
X119271429Y-103614286D01*
X118642857Y-103757143D02*
X119071429Y-103900000D01*
X119071429Y-103528572D01*
X118671429Y-103185714D02*
X118671429Y-103128571D01*
X118700000Y-103071428D01*
X118728571Y-103042857D01*
X118785714Y-103014286D01*
X118900000Y-102985714D01*
X119042857Y-102985714D01*
X119157143Y-103014286D01*
X119214286Y-103042857D01*
X119242857Y-103071428D01*
X119271429Y-103128571D01*
X119271429Y-103185714D01*
X119242857Y-103242857D01*
X119214286Y-103271428D01*
X119157143Y-103300000D01*
X119042857Y-103328571D01*
X118900000Y-103328571D01*
X118785714Y-103300000D01*
X118728571Y-103271428D01*
X118700000Y-103242857D01*
X118671429Y-103185714D01*
X119271429Y-102414285D02*
X119271429Y-102757142D01*
X119271429Y-102585714D02*
X118671429Y-102585714D01*
X118757143Y-102642857D01*
X118814286Y-102699999D01*
X118842857Y-102757142D01*
X115271429Y-103971429D02*
X115271429Y-104257143D01*
X114671429Y-104257143D01*
X114871429Y-103514286D02*
X115271429Y-103514286D01*
X114642857Y-103657143D02*
X115071429Y-103800000D01*
X115071429Y-103428572D01*
X114671429Y-103085714D02*
X114671429Y-103028571D01*
X114700000Y-102971428D01*
X114728571Y-102942857D01*
X114785714Y-102914286D01*
X114900000Y-102885714D01*
X115042857Y-102885714D01*
X115157143Y-102914286D01*
X115214286Y-102942857D01*
X115242857Y-102971428D01*
X115271429Y-103028571D01*
X115271429Y-103085714D01*
X115242857Y-103142857D01*
X115214286Y-103171428D01*
X115157143Y-103200000D01*
X115042857Y-103228571D01*
X114900000Y-103228571D01*
X114785714Y-103200000D01*
X114728571Y-103171428D01*
X114700000Y-103142857D01*
X114671429Y-103085714D01*
X114728571Y-102657142D02*
X114700000Y-102628571D01*
X114671429Y-102571428D01*
X114671429Y-102428571D01*
X114700000Y-102371428D01*
X114728571Y-102342857D01*
X114785714Y-102314285D01*
X114842857Y-102314285D01*
X114928571Y-102342857D01*
X115271429Y-102685714D01*
X115271429Y-102314285D01*
X61585714Y-94571429D02*
X61585714Y-93971429D01*
X61814286Y-93971429D01*
X61871428Y-94000000D01*
X61900000Y-94028571D01*
X61928571Y-94085714D01*
X61928571Y-94171429D01*
X61900000Y-94228571D01*
X61871428Y-94257143D01*
X61814286Y-94285714D01*
X61585714Y-94285714D01*
X62500000Y-94571429D02*
X62157143Y-94571429D01*
X62328571Y-94571429D02*
X62328571Y-93971429D01*
X62271428Y-94057143D01*
X62214286Y-94114286D01*
X62157143Y-94142857D01*
X62871429Y-93971429D02*
X62928572Y-93971429D01*
X62985715Y-94000000D01*
X63014286Y-94028571D01*
X63042857Y-94085714D01*
X63071429Y-94200000D01*
X63071429Y-94342857D01*
X63042857Y-94457143D01*
X63014286Y-94514286D01*
X62985715Y-94542857D01*
X62928572Y-94571429D01*
X62871429Y-94571429D01*
X62814286Y-94542857D01*
X62785715Y-94514286D01*
X62757143Y-94457143D01*
X62728572Y-94342857D01*
X62728572Y-94200000D01*
X62757143Y-94085714D01*
X62785715Y-94028571D01*
X62814286Y-94000000D01*
X62871429Y-93971429D01*
X63642858Y-94571429D02*
X63300001Y-94571429D01*
X63471429Y-94571429D02*
X63471429Y-93971429D01*
X63414286Y-94057143D01*
X63357144Y-94114286D01*
X63300001Y-94142857D01*
X107685714Y-69371429D02*
X107685714Y-68771429D01*
X107914286Y-68771429D01*
X107971428Y-68800000D01*
X108000000Y-68828571D01*
X108028571Y-68885714D01*
X108028571Y-68971429D01*
X108000000Y-69028571D01*
X107971428Y-69057143D01*
X107914286Y-69085714D01*
X107685714Y-69085714D01*
X108600000Y-69371429D02*
X108257143Y-69371429D01*
X108428571Y-69371429D02*
X108428571Y-68771429D01*
X108371428Y-68857143D01*
X108314286Y-68914286D01*
X108257143Y-68942857D01*
X108971429Y-68771429D02*
X109028572Y-68771429D01*
X109085715Y-68800000D01*
X109114286Y-68828571D01*
X109142857Y-68885714D01*
X109171429Y-69000000D01*
X109171429Y-69142857D01*
X109142857Y-69257143D01*
X109114286Y-69314286D01*
X109085715Y-69342857D01*
X109028572Y-69371429D01*
X108971429Y-69371429D01*
X108914286Y-69342857D01*
X108885715Y-69314286D01*
X108857143Y-69257143D01*
X108828572Y-69142857D01*
X108828572Y-69000000D01*
X108857143Y-68885714D01*
X108885715Y-68828571D01*
X108914286Y-68800000D01*
X108971429Y-68771429D01*
X109400001Y-68828571D02*
X109428572Y-68800000D01*
X109485715Y-68771429D01*
X109628572Y-68771429D01*
X109685715Y-68800000D01*
X109714286Y-68828571D01*
X109742858Y-68885714D01*
X109742858Y-68942857D01*
X109714286Y-69028571D01*
X109371429Y-69371429D01*
X109742858Y-69371429D01*
X121971429Y-75214286D02*
X121371429Y-75214286D01*
X121371429Y-74985714D01*
X121400000Y-74928572D01*
X121428571Y-74900000D01*
X121485714Y-74871429D01*
X121571429Y-74871429D01*
X121628571Y-74900000D01*
X121657143Y-74928572D01*
X121685714Y-74985714D01*
X121685714Y-75214286D01*
X121571429Y-74357143D02*
X121971429Y-74357143D01*
X121342857Y-74500000D02*
X121771429Y-74642857D01*
X121771429Y-74271429D01*
X121371429Y-73928571D02*
X121371429Y-73871428D01*
X121400000Y-73814285D01*
X121428571Y-73785714D01*
X121485714Y-73757143D01*
X121600000Y-73728571D01*
X121742857Y-73728571D01*
X121857143Y-73757143D01*
X121914286Y-73785714D01*
X121942857Y-73814285D01*
X121971429Y-73871428D01*
X121971429Y-73928571D01*
X121942857Y-73985714D01*
X121914286Y-74014285D01*
X121857143Y-74042857D01*
X121742857Y-74071428D01*
X121600000Y-74071428D01*
X121485714Y-74042857D01*
X121428571Y-74014285D01*
X121400000Y-73985714D01*
X121371429Y-73928571D01*
X121971429Y-73157142D02*
X121971429Y-73499999D01*
X121971429Y-73328571D02*
X121371429Y-73328571D01*
X121457143Y-73385714D01*
X121514286Y-73442856D01*
X121542857Y-73499999D01*
X94571429Y-98271429D02*
X94285714Y-98471429D01*
X94571429Y-98614286D02*
X93971429Y-98614286D01*
X93971429Y-98385714D01*
X94000000Y-98328572D01*
X94028571Y-98300000D01*
X94085714Y-98271429D01*
X94171429Y-98271429D01*
X94228571Y-98300000D01*
X94257143Y-98328572D01*
X94285714Y-98385714D01*
X94285714Y-98614286D01*
X94571429Y-97700000D02*
X94571429Y-98042857D01*
X94571429Y-97871429D02*
X93971429Y-97871429D01*
X94057143Y-97928572D01*
X94114286Y-97985714D01*
X94142857Y-98042857D01*
X93971429Y-97328571D02*
X93971429Y-97271428D01*
X94000000Y-97214285D01*
X94028571Y-97185714D01*
X94085714Y-97157143D01*
X94200000Y-97128571D01*
X94342857Y-97128571D01*
X94457143Y-97157143D01*
X94514286Y-97185714D01*
X94542857Y-97214285D01*
X94571429Y-97271428D01*
X94571429Y-97328571D01*
X94542857Y-97385714D01*
X94514286Y-97414285D01*
X94457143Y-97442857D01*
X94342857Y-97471428D01*
X94200000Y-97471428D01*
X94085714Y-97442857D01*
X94028571Y-97414285D01*
X94000000Y-97385714D01*
X93971429Y-97328571D01*
X94571429Y-96557142D02*
X94571429Y-96899999D01*
X94571429Y-96728571D02*
X93971429Y-96728571D01*
X94057143Y-96785714D01*
X94114286Y-96842856D01*
X94142857Y-96899999D01*
X96771429Y-98271429D02*
X96485714Y-98471429D01*
X96771429Y-98614286D02*
X96171429Y-98614286D01*
X96171429Y-98385714D01*
X96200000Y-98328572D01*
X96228571Y-98300000D01*
X96285714Y-98271429D01*
X96371429Y-98271429D01*
X96428571Y-98300000D01*
X96457143Y-98328572D01*
X96485714Y-98385714D01*
X96485714Y-98614286D01*
X96771429Y-97700000D02*
X96771429Y-98042857D01*
X96771429Y-97871429D02*
X96171429Y-97871429D01*
X96257143Y-97928572D01*
X96314286Y-97985714D01*
X96342857Y-98042857D01*
X96171429Y-97328571D02*
X96171429Y-97271428D01*
X96200000Y-97214285D01*
X96228571Y-97185714D01*
X96285714Y-97157143D01*
X96400000Y-97128571D01*
X96542857Y-97128571D01*
X96657143Y-97157143D01*
X96714286Y-97185714D01*
X96742857Y-97214285D01*
X96771429Y-97271428D01*
X96771429Y-97328571D01*
X96742857Y-97385714D01*
X96714286Y-97414285D01*
X96657143Y-97442857D01*
X96542857Y-97471428D01*
X96400000Y-97471428D01*
X96285714Y-97442857D01*
X96228571Y-97414285D01*
X96200000Y-97385714D01*
X96171429Y-97328571D01*
X96228571Y-96899999D02*
X96200000Y-96871428D01*
X96171429Y-96814285D01*
X96171429Y-96671428D01*
X96200000Y-96614285D01*
X96228571Y-96585714D01*
X96285714Y-96557142D01*
X96342857Y-96557142D01*
X96428571Y-96585714D01*
X96771429Y-96928571D01*
X96771429Y-96557142D01*
X92271429Y-98171429D02*
X91985714Y-98371429D01*
X92271429Y-98514286D02*
X91671429Y-98514286D01*
X91671429Y-98285714D01*
X91700000Y-98228572D01*
X91728571Y-98200000D01*
X91785714Y-98171429D01*
X91871429Y-98171429D01*
X91928571Y-98200000D01*
X91957143Y-98228572D01*
X91985714Y-98285714D01*
X91985714Y-98514286D01*
X92271429Y-97600000D02*
X92271429Y-97942857D01*
X92271429Y-97771429D02*
X91671429Y-97771429D01*
X91757143Y-97828572D01*
X91814286Y-97885714D01*
X91842857Y-97942857D01*
X91671429Y-97228571D02*
X91671429Y-97171428D01*
X91700000Y-97114285D01*
X91728571Y-97085714D01*
X91785714Y-97057143D01*
X91900000Y-97028571D01*
X92042857Y-97028571D01*
X92157143Y-97057143D01*
X92214286Y-97085714D01*
X92242857Y-97114285D01*
X92271429Y-97171428D01*
X92271429Y-97228571D01*
X92242857Y-97285714D01*
X92214286Y-97314285D01*
X92157143Y-97342857D01*
X92042857Y-97371428D01*
X91900000Y-97371428D01*
X91785714Y-97342857D01*
X91728571Y-97314285D01*
X91700000Y-97285714D01*
X91671429Y-97228571D01*
X91671429Y-96828571D02*
X91671429Y-96457142D01*
X91900000Y-96657142D01*
X91900000Y-96571428D01*
X91928571Y-96514285D01*
X91957143Y-96485714D01*
X92014286Y-96457142D01*
X92157143Y-96457142D01*
X92214286Y-96485714D01*
X92242857Y-96514285D01*
X92271429Y-96571428D01*
X92271429Y-96742856D01*
X92242857Y-96799999D01*
X92214286Y-96828571D01*
X82328571Y-57930429D02*
X82128571Y-57644714D01*
X81985714Y-57930429D02*
X81985714Y-57330429D01*
X82214286Y-57330429D01*
X82271428Y-57359000D01*
X82300000Y-57387571D01*
X82328571Y-57444714D01*
X82328571Y-57530429D01*
X82300000Y-57587571D01*
X82271428Y-57616143D01*
X82214286Y-57644714D01*
X81985714Y-57644714D01*
X82557143Y-57387571D02*
X82585714Y-57359000D01*
X82642857Y-57330429D01*
X82785714Y-57330429D01*
X82842857Y-57359000D01*
X82871428Y-57387571D01*
X82900000Y-57444714D01*
X82900000Y-57501857D01*
X82871428Y-57587571D01*
X82528571Y-57930429D01*
X82900000Y-57930429D01*
X83271429Y-57330429D02*
X83328572Y-57330429D01*
X83385715Y-57359000D01*
X83414286Y-57387571D01*
X83442857Y-57444714D01*
X83471429Y-57559000D01*
X83471429Y-57701857D01*
X83442857Y-57816143D01*
X83414286Y-57873286D01*
X83385715Y-57901857D01*
X83328572Y-57930429D01*
X83271429Y-57930429D01*
X83214286Y-57901857D01*
X83185715Y-57873286D01*
X83157143Y-57816143D01*
X83128572Y-57701857D01*
X83128572Y-57559000D01*
X83157143Y-57444714D01*
X83185715Y-57387571D01*
X83214286Y-57359000D01*
X83271429Y-57330429D01*
X84042858Y-57930429D02*
X83700001Y-57930429D01*
X83871429Y-57930429D02*
X83871429Y-57330429D01*
X83814286Y-57416143D01*
X83757144Y-57473286D01*
X83700001Y-57501857D01*
X82328571Y-72930429D02*
X82128571Y-72644714D01*
X81985714Y-72930429D02*
X81985714Y-72330429D01*
X82214286Y-72330429D01*
X82271428Y-72359000D01*
X82300000Y-72387571D01*
X82328571Y-72444714D01*
X82328571Y-72530429D01*
X82300000Y-72587571D01*
X82271428Y-72616143D01*
X82214286Y-72644714D01*
X81985714Y-72644714D01*
X82557143Y-72387571D02*
X82585714Y-72359000D01*
X82642857Y-72330429D01*
X82785714Y-72330429D01*
X82842857Y-72359000D01*
X82871428Y-72387571D01*
X82900000Y-72444714D01*
X82900000Y-72501857D01*
X82871428Y-72587571D01*
X82528571Y-72930429D01*
X82900000Y-72930429D01*
X83271429Y-72330429D02*
X83328572Y-72330429D01*
X83385715Y-72359000D01*
X83414286Y-72387571D01*
X83442857Y-72444714D01*
X83471429Y-72559000D01*
X83471429Y-72701857D01*
X83442857Y-72816143D01*
X83414286Y-72873286D01*
X83385715Y-72901857D01*
X83328572Y-72930429D01*
X83271429Y-72930429D01*
X83214286Y-72901857D01*
X83185715Y-72873286D01*
X83157143Y-72816143D01*
X83128572Y-72701857D01*
X83128572Y-72559000D01*
X83157143Y-72444714D01*
X83185715Y-72387571D01*
X83214286Y-72359000D01*
X83271429Y-72330429D01*
X83700001Y-72387571D02*
X83728572Y-72359000D01*
X83785715Y-72330429D01*
X83928572Y-72330429D01*
X83985715Y-72359000D01*
X84014286Y-72387571D01*
X84042858Y-72444714D01*
X84042858Y-72501857D01*
X84014286Y-72587571D01*
X83671429Y-72930429D01*
X84042858Y-72930429D01*
X74071429Y-59171429D02*
X73785714Y-59371429D01*
X74071429Y-59514286D02*
X73471429Y-59514286D01*
X73471429Y-59285714D01*
X73500000Y-59228572D01*
X73528571Y-59200000D01*
X73585714Y-59171429D01*
X73671429Y-59171429D01*
X73728571Y-59200000D01*
X73757143Y-59228572D01*
X73785714Y-59285714D01*
X73785714Y-59514286D01*
X73528571Y-58942857D02*
X73500000Y-58914286D01*
X73471429Y-58857143D01*
X73471429Y-58714286D01*
X73500000Y-58657143D01*
X73528571Y-58628572D01*
X73585714Y-58600000D01*
X73642857Y-58600000D01*
X73728571Y-58628572D01*
X74071429Y-58971429D01*
X74071429Y-58600000D01*
X73471429Y-58228571D02*
X73471429Y-58171428D01*
X73500000Y-58114285D01*
X73528571Y-58085714D01*
X73585714Y-58057143D01*
X73700000Y-58028571D01*
X73842857Y-58028571D01*
X73957143Y-58057143D01*
X74014286Y-58085714D01*
X74042857Y-58114285D01*
X74071429Y-58171428D01*
X74071429Y-58228571D01*
X74042857Y-58285714D01*
X74014286Y-58314285D01*
X73957143Y-58342857D01*
X73842857Y-58371428D01*
X73700000Y-58371428D01*
X73585714Y-58342857D01*
X73528571Y-58314285D01*
X73500000Y-58285714D01*
X73471429Y-58228571D01*
X73471429Y-57828571D02*
X73471429Y-57457142D01*
X73700000Y-57657142D01*
X73700000Y-57571428D01*
X73728571Y-57514285D01*
X73757143Y-57485714D01*
X73814286Y-57457142D01*
X73957143Y-57457142D01*
X74014286Y-57485714D01*
X74042857Y-57514285D01*
X74071429Y-57571428D01*
X74071429Y-57742856D01*
X74042857Y-57799999D01*
X74014286Y-57828571D01*
X74171429Y-74171429D02*
X73885714Y-74371429D01*
X74171429Y-74514286D02*
X73571429Y-74514286D01*
X73571429Y-74285714D01*
X73600000Y-74228572D01*
X73628571Y-74200000D01*
X73685714Y-74171429D01*
X73771429Y-74171429D01*
X73828571Y-74200000D01*
X73857143Y-74228572D01*
X73885714Y-74285714D01*
X73885714Y-74514286D01*
X73628571Y-73942857D02*
X73600000Y-73914286D01*
X73571429Y-73857143D01*
X73571429Y-73714286D01*
X73600000Y-73657143D01*
X73628571Y-73628572D01*
X73685714Y-73600000D01*
X73742857Y-73600000D01*
X73828571Y-73628572D01*
X74171429Y-73971429D01*
X74171429Y-73600000D01*
X73571429Y-73228571D02*
X73571429Y-73171428D01*
X73600000Y-73114285D01*
X73628571Y-73085714D01*
X73685714Y-73057143D01*
X73800000Y-73028571D01*
X73942857Y-73028571D01*
X74057143Y-73057143D01*
X74114286Y-73085714D01*
X74142857Y-73114285D01*
X74171429Y-73171428D01*
X74171429Y-73228571D01*
X74142857Y-73285714D01*
X74114286Y-73314285D01*
X74057143Y-73342857D01*
X73942857Y-73371428D01*
X73800000Y-73371428D01*
X73685714Y-73342857D01*
X73628571Y-73314285D01*
X73600000Y-73285714D01*
X73571429Y-73228571D01*
X73771429Y-72514285D02*
X74171429Y-72514285D01*
X73542857Y-72657142D02*
X73971429Y-72799999D01*
X73971429Y-72428571D01*
X87271429Y-60771429D02*
X86985714Y-60971429D01*
X87271429Y-61114286D02*
X86671429Y-61114286D01*
X86671429Y-60885714D01*
X86700000Y-60828572D01*
X86728571Y-60800000D01*
X86785714Y-60771429D01*
X86871429Y-60771429D01*
X86928571Y-60800000D01*
X86957143Y-60828572D01*
X86985714Y-60885714D01*
X86985714Y-61114286D01*
X86728571Y-60542857D02*
X86700000Y-60514286D01*
X86671429Y-60457143D01*
X86671429Y-60314286D01*
X86700000Y-60257143D01*
X86728571Y-60228572D01*
X86785714Y-60200000D01*
X86842857Y-60200000D01*
X86928571Y-60228572D01*
X87271429Y-60571429D01*
X87271429Y-60200000D01*
X86671429Y-59828571D02*
X86671429Y-59771428D01*
X86700000Y-59714285D01*
X86728571Y-59685714D01*
X86785714Y-59657143D01*
X86900000Y-59628571D01*
X87042857Y-59628571D01*
X87157143Y-59657143D01*
X87214286Y-59685714D01*
X87242857Y-59714285D01*
X87271429Y-59771428D01*
X87271429Y-59828571D01*
X87242857Y-59885714D01*
X87214286Y-59914285D01*
X87157143Y-59942857D01*
X87042857Y-59971428D01*
X86900000Y-59971428D01*
X86785714Y-59942857D01*
X86728571Y-59914285D01*
X86700000Y-59885714D01*
X86671429Y-59828571D01*
X86671429Y-59085714D02*
X86671429Y-59371428D01*
X86957143Y-59399999D01*
X86928571Y-59371428D01*
X86900000Y-59314285D01*
X86900000Y-59171428D01*
X86928571Y-59114285D01*
X86957143Y-59085714D01*
X87014286Y-59057142D01*
X87157143Y-59057142D01*
X87214286Y-59085714D01*
X87242857Y-59114285D01*
X87271429Y-59171428D01*
X87271429Y-59314285D01*
X87242857Y-59371428D01*
X87214286Y-59399999D01*
X85328571Y-66471429D02*
X85128571Y-66185714D01*
X84985714Y-66471429D02*
X84985714Y-65871429D01*
X85214286Y-65871429D01*
X85271428Y-65900000D01*
X85300000Y-65928571D01*
X85328571Y-65985714D01*
X85328571Y-66071429D01*
X85300000Y-66128571D01*
X85271428Y-66157143D01*
X85214286Y-66185714D01*
X84985714Y-66185714D01*
X85557143Y-65928571D02*
X85585714Y-65900000D01*
X85642857Y-65871429D01*
X85785714Y-65871429D01*
X85842857Y-65900000D01*
X85871428Y-65928571D01*
X85900000Y-65985714D01*
X85900000Y-66042857D01*
X85871428Y-66128571D01*
X85528571Y-66471429D01*
X85900000Y-66471429D01*
X86271429Y-65871429D02*
X86328572Y-65871429D01*
X86385715Y-65900000D01*
X86414286Y-65928571D01*
X86442857Y-65985714D01*
X86471429Y-66100000D01*
X86471429Y-66242857D01*
X86442857Y-66357143D01*
X86414286Y-66414286D01*
X86385715Y-66442857D01*
X86328572Y-66471429D01*
X86271429Y-66471429D01*
X86214286Y-66442857D01*
X86185715Y-66414286D01*
X86157143Y-66357143D01*
X86128572Y-66242857D01*
X86128572Y-66100000D01*
X86157143Y-65985714D01*
X86185715Y-65928571D01*
X86214286Y-65900000D01*
X86271429Y-65871429D01*
X86985715Y-65871429D02*
X86871429Y-65871429D01*
X86814286Y-65900000D01*
X86785715Y-65928571D01*
X86728572Y-66014286D01*
X86700001Y-66128571D01*
X86700001Y-66357143D01*
X86728572Y-66414286D01*
X86757144Y-66442857D01*
X86814286Y-66471429D01*
X86928572Y-66471429D01*
X86985715Y-66442857D01*
X87014286Y-66414286D01*
X87042858Y-66357143D01*
X87042858Y-66214286D01*
X87014286Y-66157143D01*
X86985715Y-66128571D01*
X86928572Y-66100000D01*
X86814286Y-66100000D01*
X86757144Y-66128571D01*
X86728572Y-66157143D01*
X86700001Y-66214286D01*
X84371429Y-76371429D02*
X84085714Y-76571429D01*
X84371429Y-76714286D02*
X83771429Y-76714286D01*
X83771429Y-76485714D01*
X83800000Y-76428572D01*
X83828571Y-76400000D01*
X83885714Y-76371429D01*
X83971429Y-76371429D01*
X84028571Y-76400000D01*
X84057143Y-76428572D01*
X84085714Y-76485714D01*
X84085714Y-76714286D01*
X83828571Y-76142857D02*
X83800000Y-76114286D01*
X83771429Y-76057143D01*
X83771429Y-75914286D01*
X83800000Y-75857143D01*
X83828571Y-75828572D01*
X83885714Y-75800000D01*
X83942857Y-75800000D01*
X84028571Y-75828572D01*
X84371429Y-76171429D01*
X84371429Y-75800000D01*
X83771429Y-75428571D02*
X83771429Y-75371428D01*
X83800000Y-75314285D01*
X83828571Y-75285714D01*
X83885714Y-75257143D01*
X84000000Y-75228571D01*
X84142857Y-75228571D01*
X84257143Y-75257143D01*
X84314286Y-75285714D01*
X84342857Y-75314285D01*
X84371429Y-75371428D01*
X84371429Y-75428571D01*
X84342857Y-75485714D01*
X84314286Y-75514285D01*
X84257143Y-75542857D01*
X84142857Y-75571428D01*
X84000000Y-75571428D01*
X83885714Y-75542857D01*
X83828571Y-75514285D01*
X83800000Y-75485714D01*
X83771429Y-75428571D01*
X83771429Y-75028571D02*
X83771429Y-74628571D01*
X84371429Y-74885714D01*
X84828571Y-81430429D02*
X84628571Y-81144714D01*
X84485714Y-81430429D02*
X84485714Y-80830429D01*
X84714286Y-80830429D01*
X84771428Y-80859000D01*
X84800000Y-80887571D01*
X84828571Y-80944714D01*
X84828571Y-81030429D01*
X84800000Y-81087571D01*
X84771428Y-81116143D01*
X84714286Y-81144714D01*
X84485714Y-81144714D01*
X85057143Y-80887571D02*
X85085714Y-80859000D01*
X85142857Y-80830429D01*
X85285714Y-80830429D01*
X85342857Y-80859000D01*
X85371428Y-80887571D01*
X85400000Y-80944714D01*
X85400000Y-81001857D01*
X85371428Y-81087571D01*
X85028571Y-81430429D01*
X85400000Y-81430429D01*
X85771429Y-80830429D02*
X85828572Y-80830429D01*
X85885715Y-80859000D01*
X85914286Y-80887571D01*
X85942857Y-80944714D01*
X85971429Y-81059000D01*
X85971429Y-81201857D01*
X85942857Y-81316143D01*
X85914286Y-81373286D01*
X85885715Y-81401857D01*
X85828572Y-81430429D01*
X85771429Y-81430429D01*
X85714286Y-81401857D01*
X85685715Y-81373286D01*
X85657143Y-81316143D01*
X85628572Y-81201857D01*
X85628572Y-81059000D01*
X85657143Y-80944714D01*
X85685715Y-80887571D01*
X85714286Y-80859000D01*
X85771429Y-80830429D01*
X86314286Y-81087571D02*
X86257144Y-81059000D01*
X86228572Y-81030429D01*
X86200001Y-80973286D01*
X86200001Y-80944714D01*
X86228572Y-80887571D01*
X86257144Y-80859000D01*
X86314286Y-80830429D01*
X86428572Y-80830429D01*
X86485715Y-80859000D01*
X86514286Y-80887571D01*
X86542858Y-80944714D01*
X86542858Y-80973286D01*
X86514286Y-81030429D01*
X86485715Y-81059000D01*
X86428572Y-81087571D01*
X86314286Y-81087571D01*
X86257144Y-81116143D01*
X86228572Y-81144714D01*
X86200001Y-81201857D01*
X86200001Y-81316143D01*
X86228572Y-81373286D01*
X86257144Y-81401857D01*
X86314286Y-81430429D01*
X86428572Y-81430429D01*
X86485715Y-81401857D01*
X86514286Y-81373286D01*
X86542858Y-81316143D01*
X86542858Y-81201857D01*
X86514286Y-81144714D01*
X86485715Y-81116143D01*
X86428572Y-81087571D01*
X82228571Y-59371429D02*
X82028571Y-59085714D01*
X81885714Y-59371429D02*
X81885714Y-58771429D01*
X82114286Y-58771429D01*
X82171428Y-58800000D01*
X82200000Y-58828571D01*
X82228571Y-58885714D01*
X82228571Y-58971429D01*
X82200000Y-59028571D01*
X82171428Y-59057143D01*
X82114286Y-59085714D01*
X81885714Y-59085714D01*
X82457143Y-58828571D02*
X82485714Y-58800000D01*
X82542857Y-58771429D01*
X82685714Y-58771429D01*
X82742857Y-58800000D01*
X82771428Y-58828571D01*
X82800000Y-58885714D01*
X82800000Y-58942857D01*
X82771428Y-59028571D01*
X82428571Y-59371429D01*
X82800000Y-59371429D01*
X83171429Y-58771429D02*
X83228572Y-58771429D01*
X83285715Y-58800000D01*
X83314286Y-58828571D01*
X83342857Y-58885714D01*
X83371429Y-59000000D01*
X83371429Y-59142857D01*
X83342857Y-59257143D01*
X83314286Y-59314286D01*
X83285715Y-59342857D01*
X83228572Y-59371429D01*
X83171429Y-59371429D01*
X83114286Y-59342857D01*
X83085715Y-59314286D01*
X83057143Y-59257143D01*
X83028572Y-59142857D01*
X83028572Y-59000000D01*
X83057143Y-58885714D01*
X83085715Y-58828571D01*
X83114286Y-58800000D01*
X83171429Y-58771429D01*
X83657144Y-59371429D02*
X83771429Y-59371429D01*
X83828572Y-59342857D01*
X83857144Y-59314286D01*
X83914286Y-59228571D01*
X83942858Y-59114286D01*
X83942858Y-58885714D01*
X83914286Y-58828571D01*
X83885715Y-58800000D01*
X83828572Y-58771429D01*
X83714286Y-58771429D01*
X83657144Y-58800000D01*
X83628572Y-58828571D01*
X83600001Y-58885714D01*
X83600001Y-59028571D01*
X83628572Y-59085714D01*
X83657144Y-59114286D01*
X83714286Y-59142857D01*
X83828572Y-59142857D01*
X83885715Y-59114286D01*
X83914286Y-59085714D01*
X83942858Y-59028571D01*
X82128571Y-74171429D02*
X81928571Y-73885714D01*
X81785714Y-74171429D02*
X81785714Y-73571429D01*
X82014286Y-73571429D01*
X82071428Y-73600000D01*
X82100000Y-73628571D01*
X82128571Y-73685714D01*
X82128571Y-73771429D01*
X82100000Y-73828571D01*
X82071428Y-73857143D01*
X82014286Y-73885714D01*
X81785714Y-73885714D01*
X82357143Y-73628571D02*
X82385714Y-73600000D01*
X82442857Y-73571429D01*
X82585714Y-73571429D01*
X82642857Y-73600000D01*
X82671428Y-73628571D01*
X82700000Y-73685714D01*
X82700000Y-73742857D01*
X82671428Y-73828571D01*
X82328571Y-74171429D01*
X82700000Y-74171429D01*
X83271429Y-74171429D02*
X82928572Y-74171429D01*
X83100000Y-74171429D02*
X83100000Y-73571429D01*
X83042857Y-73657143D01*
X82985715Y-73714286D01*
X82928572Y-73742857D01*
X83642858Y-73571429D02*
X83700001Y-73571429D01*
X83757144Y-73600000D01*
X83785715Y-73628571D01*
X83814286Y-73685714D01*
X83842858Y-73800000D01*
X83842858Y-73942857D01*
X83814286Y-74057143D01*
X83785715Y-74114286D01*
X83757144Y-74142857D01*
X83700001Y-74171429D01*
X83642858Y-74171429D01*
X83585715Y-74142857D01*
X83557144Y-74114286D01*
X83528572Y-74057143D01*
X83500001Y-73942857D01*
X83500001Y-73800000D01*
X83528572Y-73685714D01*
X83557144Y-73628571D01*
X83585715Y-73600000D01*
X83642858Y-73571429D01*
X84828571Y-57930429D02*
X84628571Y-57644714D01*
X84485714Y-57930429D02*
X84485714Y-57330429D01*
X84714286Y-57330429D01*
X84771428Y-57359000D01*
X84800000Y-57387571D01*
X84828571Y-57444714D01*
X84828571Y-57530429D01*
X84800000Y-57587571D01*
X84771428Y-57616143D01*
X84714286Y-57644714D01*
X84485714Y-57644714D01*
X85057143Y-57387571D02*
X85085714Y-57359000D01*
X85142857Y-57330429D01*
X85285714Y-57330429D01*
X85342857Y-57359000D01*
X85371428Y-57387571D01*
X85400000Y-57444714D01*
X85400000Y-57501857D01*
X85371428Y-57587571D01*
X85028571Y-57930429D01*
X85400000Y-57930429D01*
X85971429Y-57930429D02*
X85628572Y-57930429D01*
X85800000Y-57930429D02*
X85800000Y-57330429D01*
X85742857Y-57416143D01*
X85685715Y-57473286D01*
X85628572Y-57501857D01*
X86542858Y-57930429D02*
X86200001Y-57930429D01*
X86371429Y-57930429D02*
X86371429Y-57330429D01*
X86314286Y-57416143D01*
X86257144Y-57473286D01*
X86200001Y-57501857D01*
X84828571Y-72930429D02*
X84628571Y-72644714D01*
X84485714Y-72930429D02*
X84485714Y-72330429D01*
X84714286Y-72330429D01*
X84771428Y-72359000D01*
X84800000Y-72387571D01*
X84828571Y-72444714D01*
X84828571Y-72530429D01*
X84800000Y-72587571D01*
X84771428Y-72616143D01*
X84714286Y-72644714D01*
X84485714Y-72644714D01*
X85057143Y-72387571D02*
X85085714Y-72359000D01*
X85142857Y-72330429D01*
X85285714Y-72330429D01*
X85342857Y-72359000D01*
X85371428Y-72387571D01*
X85400000Y-72444714D01*
X85400000Y-72501857D01*
X85371428Y-72587571D01*
X85028571Y-72930429D01*
X85400000Y-72930429D01*
X85971429Y-72930429D02*
X85628572Y-72930429D01*
X85800000Y-72930429D02*
X85800000Y-72330429D01*
X85742857Y-72416143D01*
X85685715Y-72473286D01*
X85628572Y-72501857D01*
X86200001Y-72387571D02*
X86228572Y-72359000D01*
X86285715Y-72330429D01*
X86428572Y-72330429D01*
X86485715Y-72359000D01*
X86514286Y-72387571D01*
X86542858Y-72444714D01*
X86542858Y-72501857D01*
X86514286Y-72587571D01*
X86171429Y-72930429D01*
X86542858Y-72930429D01*
X90328571Y-59112429D02*
X90128571Y-58826714D01*
X89985714Y-59112429D02*
X89985714Y-58512429D01*
X90214286Y-58512429D01*
X90271428Y-58541000D01*
X90300000Y-58569571D01*
X90328571Y-58626714D01*
X90328571Y-58712429D01*
X90300000Y-58769571D01*
X90271428Y-58798143D01*
X90214286Y-58826714D01*
X89985714Y-58826714D01*
X90557143Y-58569571D02*
X90585714Y-58541000D01*
X90642857Y-58512429D01*
X90785714Y-58512429D01*
X90842857Y-58541000D01*
X90871428Y-58569571D01*
X90900000Y-58626714D01*
X90900000Y-58683857D01*
X90871428Y-58769571D01*
X90528571Y-59112429D01*
X90900000Y-59112429D01*
X91471429Y-59112429D02*
X91128572Y-59112429D01*
X91300000Y-59112429D02*
X91300000Y-58512429D01*
X91242857Y-58598143D01*
X91185715Y-58655286D01*
X91128572Y-58683857D01*
X91671429Y-58512429D02*
X92042858Y-58512429D01*
X91842858Y-58741000D01*
X91928572Y-58741000D01*
X91985715Y-58769571D01*
X92014286Y-58798143D01*
X92042858Y-58855286D01*
X92042858Y-58998143D01*
X92014286Y-59055286D01*
X91985715Y-59083857D01*
X91928572Y-59112429D01*
X91757144Y-59112429D01*
X91700001Y-59083857D01*
X91671429Y-59055286D01*
X87828571Y-63430429D02*
X87628571Y-63144714D01*
X87485714Y-63430429D02*
X87485714Y-62830429D01*
X87714286Y-62830429D01*
X87771428Y-62859000D01*
X87800000Y-62887571D01*
X87828571Y-62944714D01*
X87828571Y-63030429D01*
X87800000Y-63087571D01*
X87771428Y-63116143D01*
X87714286Y-63144714D01*
X87485714Y-63144714D01*
X88057143Y-62887571D02*
X88085714Y-62859000D01*
X88142857Y-62830429D01*
X88285714Y-62830429D01*
X88342857Y-62859000D01*
X88371428Y-62887571D01*
X88400000Y-62944714D01*
X88400000Y-63001857D01*
X88371428Y-63087571D01*
X88028571Y-63430429D01*
X88400000Y-63430429D01*
X88971429Y-63430429D02*
X88628572Y-63430429D01*
X88800000Y-63430429D02*
X88800000Y-62830429D01*
X88742857Y-62916143D01*
X88685715Y-62973286D01*
X88628572Y-63001857D01*
X89485715Y-63030429D02*
X89485715Y-63430429D01*
X89342858Y-62801857D02*
X89200001Y-63230429D01*
X89571429Y-63230429D01*
X87371429Y-75771429D02*
X87085714Y-75971429D01*
X87371429Y-76114286D02*
X86771429Y-76114286D01*
X86771429Y-75885714D01*
X86800000Y-75828572D01*
X86828571Y-75800000D01*
X86885714Y-75771429D01*
X86971429Y-75771429D01*
X87028571Y-75800000D01*
X87057143Y-75828572D01*
X87085714Y-75885714D01*
X87085714Y-76114286D01*
X86828571Y-75542857D02*
X86800000Y-75514286D01*
X86771429Y-75457143D01*
X86771429Y-75314286D01*
X86800000Y-75257143D01*
X86828571Y-75228572D01*
X86885714Y-75200000D01*
X86942857Y-75200000D01*
X87028571Y-75228572D01*
X87371429Y-75571429D01*
X87371429Y-75200000D01*
X87371429Y-74628571D02*
X87371429Y-74971428D01*
X87371429Y-74800000D02*
X86771429Y-74800000D01*
X86857143Y-74857143D01*
X86914286Y-74914285D01*
X86942857Y-74971428D01*
X86771429Y-74085714D02*
X86771429Y-74371428D01*
X87057143Y-74399999D01*
X87028571Y-74371428D01*
X87000000Y-74314285D01*
X87000000Y-74171428D01*
X87028571Y-74114285D01*
X87057143Y-74085714D01*
X87114286Y-74057142D01*
X87257143Y-74057142D01*
X87314286Y-74085714D01*
X87342857Y-74114285D01*
X87371429Y-74171428D01*
X87371429Y-74314285D01*
X87342857Y-74371428D01*
X87314286Y-74399999D01*
X92128571Y-76571429D02*
X91928571Y-76285714D01*
X91785714Y-76571429D02*
X91785714Y-75971429D01*
X92014286Y-75971429D01*
X92071428Y-76000000D01*
X92100000Y-76028571D01*
X92128571Y-76085714D01*
X92128571Y-76171429D01*
X92100000Y-76228571D01*
X92071428Y-76257143D01*
X92014286Y-76285714D01*
X91785714Y-76285714D01*
X92357143Y-76028571D02*
X92385714Y-76000000D01*
X92442857Y-75971429D01*
X92585714Y-75971429D01*
X92642857Y-76000000D01*
X92671428Y-76028571D01*
X92700000Y-76085714D01*
X92700000Y-76142857D01*
X92671428Y-76228571D01*
X92328571Y-76571429D01*
X92700000Y-76571429D01*
X93271429Y-76571429D02*
X92928572Y-76571429D01*
X93100000Y-76571429D02*
X93100000Y-75971429D01*
X93042857Y-76057143D01*
X92985715Y-76114286D01*
X92928572Y-76142857D01*
X93785715Y-75971429D02*
X93671429Y-75971429D01*
X93614286Y-76000000D01*
X93585715Y-76028571D01*
X93528572Y-76114286D01*
X93500001Y-76228571D01*
X93500001Y-76457143D01*
X93528572Y-76514286D01*
X93557144Y-76542857D01*
X93614286Y-76571429D01*
X93728572Y-76571429D01*
X93785715Y-76542857D01*
X93814286Y-76514286D01*
X93842858Y-76457143D01*
X93842858Y-76314286D01*
X93814286Y-76257143D01*
X93785715Y-76228571D01*
X93728572Y-76200000D01*
X93614286Y-76200000D01*
X93557144Y-76228571D01*
X93528572Y-76257143D01*
X93500001Y-76314286D01*
X110828571Y-56871429D02*
X110628571Y-56585714D01*
X110485714Y-56871429D02*
X110485714Y-56271429D01*
X110714286Y-56271429D01*
X110771428Y-56300000D01*
X110800000Y-56328571D01*
X110828571Y-56385714D01*
X110828571Y-56471429D01*
X110800000Y-56528571D01*
X110771428Y-56557143D01*
X110714286Y-56585714D01*
X110485714Y-56585714D01*
X111028571Y-56271429D02*
X111400000Y-56271429D01*
X111200000Y-56500000D01*
X111285714Y-56500000D01*
X111342857Y-56528571D01*
X111371428Y-56557143D01*
X111400000Y-56614286D01*
X111400000Y-56757143D01*
X111371428Y-56814286D01*
X111342857Y-56842857D01*
X111285714Y-56871429D01*
X111114286Y-56871429D01*
X111057143Y-56842857D01*
X111028571Y-56814286D01*
X111771429Y-56271429D02*
X111828572Y-56271429D01*
X111885715Y-56300000D01*
X111914286Y-56328571D01*
X111942857Y-56385714D01*
X111971429Y-56500000D01*
X111971429Y-56642857D01*
X111942857Y-56757143D01*
X111914286Y-56814286D01*
X111885715Y-56842857D01*
X111828572Y-56871429D01*
X111771429Y-56871429D01*
X111714286Y-56842857D01*
X111685715Y-56814286D01*
X111657143Y-56757143D01*
X111628572Y-56642857D01*
X111628572Y-56500000D01*
X111657143Y-56385714D01*
X111685715Y-56328571D01*
X111714286Y-56300000D01*
X111771429Y-56271429D01*
X112542858Y-56871429D02*
X112200001Y-56871429D01*
X112371429Y-56871429D02*
X112371429Y-56271429D01*
X112314286Y-56357143D01*
X112257144Y-56414286D01*
X112200001Y-56442857D01*
X119930429Y-62421429D02*
X119644714Y-62621429D01*
X119930429Y-62764286D02*
X119330429Y-62764286D01*
X119330429Y-62535714D01*
X119359000Y-62478572D01*
X119387571Y-62450000D01*
X119444714Y-62421429D01*
X119530429Y-62421429D01*
X119587571Y-62450000D01*
X119616143Y-62478572D01*
X119644714Y-62535714D01*
X119644714Y-62764286D01*
X119330429Y-62221429D02*
X119330429Y-61850000D01*
X119559000Y-62050000D01*
X119559000Y-61964286D01*
X119587571Y-61907143D01*
X119616143Y-61878572D01*
X119673286Y-61850000D01*
X119816143Y-61850000D01*
X119873286Y-61878572D01*
X119901857Y-61907143D01*
X119930429Y-61964286D01*
X119930429Y-62135714D01*
X119901857Y-62192857D01*
X119873286Y-62221429D01*
X119330429Y-61478571D02*
X119330429Y-61421428D01*
X119359000Y-61364285D01*
X119387571Y-61335714D01*
X119444714Y-61307143D01*
X119559000Y-61278571D01*
X119701857Y-61278571D01*
X119816143Y-61307143D01*
X119873286Y-61335714D01*
X119901857Y-61364285D01*
X119930429Y-61421428D01*
X119930429Y-61478571D01*
X119901857Y-61535714D01*
X119873286Y-61564285D01*
X119816143Y-61592857D01*
X119701857Y-61621428D01*
X119559000Y-61621428D01*
X119444714Y-61592857D01*
X119387571Y-61564285D01*
X119359000Y-61535714D01*
X119330429Y-61478571D01*
X119387571Y-61049999D02*
X119359000Y-61021428D01*
X119330429Y-60964285D01*
X119330429Y-60821428D01*
X119359000Y-60764285D01*
X119387571Y-60735714D01*
X119444714Y-60707142D01*
X119501857Y-60707142D01*
X119587571Y-60735714D01*
X119930429Y-61078571D01*
X119930429Y-60707142D01*
X111871429Y-62471429D02*
X111585714Y-62671429D01*
X111871429Y-62814286D02*
X111271429Y-62814286D01*
X111271429Y-62585714D01*
X111300000Y-62528572D01*
X111328571Y-62500000D01*
X111385714Y-62471429D01*
X111471429Y-62471429D01*
X111528571Y-62500000D01*
X111557143Y-62528572D01*
X111585714Y-62585714D01*
X111585714Y-62814286D01*
X111271429Y-62271429D02*
X111271429Y-61900000D01*
X111500000Y-62100000D01*
X111500000Y-62014286D01*
X111528571Y-61957143D01*
X111557143Y-61928572D01*
X111614286Y-61900000D01*
X111757143Y-61900000D01*
X111814286Y-61928572D01*
X111842857Y-61957143D01*
X111871429Y-62014286D01*
X111871429Y-62185714D01*
X111842857Y-62242857D01*
X111814286Y-62271429D01*
X111271429Y-61528571D02*
X111271429Y-61471428D01*
X111300000Y-61414285D01*
X111328571Y-61385714D01*
X111385714Y-61357143D01*
X111500000Y-61328571D01*
X111642857Y-61328571D01*
X111757143Y-61357143D01*
X111814286Y-61385714D01*
X111842857Y-61414285D01*
X111871429Y-61471428D01*
X111871429Y-61528571D01*
X111842857Y-61585714D01*
X111814286Y-61614285D01*
X111757143Y-61642857D01*
X111642857Y-61671428D01*
X111500000Y-61671428D01*
X111385714Y-61642857D01*
X111328571Y-61614285D01*
X111300000Y-61585714D01*
X111271429Y-61528571D01*
X111271429Y-61128571D02*
X111271429Y-60757142D01*
X111500000Y-60957142D01*
X111500000Y-60871428D01*
X111528571Y-60814285D01*
X111557143Y-60785714D01*
X111614286Y-60757142D01*
X111757143Y-60757142D01*
X111814286Y-60785714D01*
X111842857Y-60814285D01*
X111871429Y-60871428D01*
X111871429Y-61042856D01*
X111842857Y-61099999D01*
X111814286Y-61128571D01*
X78430429Y-83671429D02*
X78144714Y-83871429D01*
X78430429Y-84014286D02*
X77830429Y-84014286D01*
X77830429Y-83785714D01*
X77859000Y-83728572D01*
X77887571Y-83700000D01*
X77944714Y-83671429D01*
X78030429Y-83671429D01*
X78087571Y-83700000D01*
X78116143Y-83728572D01*
X78144714Y-83785714D01*
X78144714Y-84014286D01*
X77830429Y-83471429D02*
X77830429Y-83100000D01*
X78059000Y-83300000D01*
X78059000Y-83214286D01*
X78087571Y-83157143D01*
X78116143Y-83128572D01*
X78173286Y-83100000D01*
X78316143Y-83100000D01*
X78373286Y-83128572D01*
X78401857Y-83157143D01*
X78430429Y-83214286D01*
X78430429Y-83385714D01*
X78401857Y-83442857D01*
X78373286Y-83471429D01*
X77830429Y-82728571D02*
X77830429Y-82671428D01*
X77859000Y-82614285D01*
X77887571Y-82585714D01*
X77944714Y-82557143D01*
X78059000Y-82528571D01*
X78201857Y-82528571D01*
X78316143Y-82557143D01*
X78373286Y-82585714D01*
X78401857Y-82614285D01*
X78430429Y-82671428D01*
X78430429Y-82728571D01*
X78401857Y-82785714D01*
X78373286Y-82814285D01*
X78316143Y-82842857D01*
X78201857Y-82871428D01*
X78059000Y-82871428D01*
X77944714Y-82842857D01*
X77887571Y-82814285D01*
X77859000Y-82785714D01*
X77830429Y-82728571D01*
X78030429Y-82014285D02*
X78430429Y-82014285D01*
X77801857Y-82157142D02*
X78230429Y-82299999D01*
X78230429Y-81928571D01*
X71328571Y-59612429D02*
X71128571Y-59326714D01*
X70985714Y-59612429D02*
X70985714Y-59012429D01*
X71214286Y-59012429D01*
X71271428Y-59041000D01*
X71300000Y-59069571D01*
X71328571Y-59126714D01*
X71328571Y-59212429D01*
X71300000Y-59269571D01*
X71271428Y-59298143D01*
X71214286Y-59326714D01*
X70985714Y-59326714D01*
X71528571Y-59012429D02*
X71900000Y-59012429D01*
X71700000Y-59241000D01*
X71785714Y-59241000D01*
X71842857Y-59269571D01*
X71871428Y-59298143D01*
X71900000Y-59355286D01*
X71900000Y-59498143D01*
X71871428Y-59555286D01*
X71842857Y-59583857D01*
X71785714Y-59612429D01*
X71614286Y-59612429D01*
X71557143Y-59583857D01*
X71528571Y-59555286D01*
X72271429Y-59012429D02*
X72328572Y-59012429D01*
X72385715Y-59041000D01*
X72414286Y-59069571D01*
X72442857Y-59126714D01*
X72471429Y-59241000D01*
X72471429Y-59383857D01*
X72442857Y-59498143D01*
X72414286Y-59555286D01*
X72385715Y-59583857D01*
X72328572Y-59612429D01*
X72271429Y-59612429D01*
X72214286Y-59583857D01*
X72185715Y-59555286D01*
X72157143Y-59498143D01*
X72128572Y-59383857D01*
X72128572Y-59241000D01*
X72157143Y-59126714D01*
X72185715Y-59069571D01*
X72214286Y-59041000D01*
X72271429Y-59012429D01*
X73014286Y-59012429D02*
X72728572Y-59012429D01*
X72700001Y-59298143D01*
X72728572Y-59269571D01*
X72785715Y-59241000D01*
X72928572Y-59241000D01*
X72985715Y-59269571D01*
X73014286Y-59298143D01*
X73042858Y-59355286D01*
X73042858Y-59498143D01*
X73014286Y-59555286D01*
X72985715Y-59583857D01*
X72928572Y-59612429D01*
X72785715Y-59612429D01*
X72728572Y-59583857D01*
X72700001Y-59555286D01*
X119828571Y-77112429D02*
X119628571Y-76826714D01*
X119485714Y-77112429D02*
X119485714Y-76512429D01*
X119714286Y-76512429D01*
X119771428Y-76541000D01*
X119800000Y-76569571D01*
X119828571Y-76626714D01*
X119828571Y-76712429D01*
X119800000Y-76769571D01*
X119771428Y-76798143D01*
X119714286Y-76826714D01*
X119485714Y-76826714D01*
X120342857Y-76712429D02*
X120342857Y-77112429D01*
X120200000Y-76483857D02*
X120057143Y-76912429D01*
X120428571Y-76912429D01*
X120771429Y-76512429D02*
X120828572Y-76512429D01*
X120885715Y-76541000D01*
X120914286Y-76569571D01*
X120942857Y-76626714D01*
X120971429Y-76741000D01*
X120971429Y-76883857D01*
X120942857Y-76998143D01*
X120914286Y-77055286D01*
X120885715Y-77083857D01*
X120828572Y-77112429D01*
X120771429Y-77112429D01*
X120714286Y-77083857D01*
X120685715Y-77055286D01*
X120657143Y-76998143D01*
X120628572Y-76883857D01*
X120628572Y-76741000D01*
X120657143Y-76626714D01*
X120685715Y-76569571D01*
X120714286Y-76541000D01*
X120771429Y-76512429D01*
X121542858Y-77112429D02*
X121200001Y-77112429D01*
X121371429Y-77112429D02*
X121371429Y-76512429D01*
X121314286Y-76598143D01*
X121257144Y-76655286D01*
X121200001Y-76683857D01*
X108271429Y-94471429D02*
X107985714Y-94671429D01*
X108271429Y-94814286D02*
X107671429Y-94814286D01*
X107671429Y-94585714D01*
X107700000Y-94528572D01*
X107728571Y-94500000D01*
X107785714Y-94471429D01*
X107871429Y-94471429D01*
X107928571Y-94500000D01*
X107957143Y-94528572D01*
X107985714Y-94585714D01*
X107985714Y-94814286D01*
X107871429Y-93957143D02*
X108271429Y-93957143D01*
X107642857Y-94100000D02*
X108071429Y-94242857D01*
X108071429Y-93871429D01*
X107671429Y-93528571D02*
X107671429Y-93471428D01*
X107700000Y-93414285D01*
X107728571Y-93385714D01*
X107785714Y-93357143D01*
X107900000Y-93328571D01*
X108042857Y-93328571D01*
X108157143Y-93357143D01*
X108214286Y-93385714D01*
X108242857Y-93414285D01*
X108271429Y-93471428D01*
X108271429Y-93528571D01*
X108242857Y-93585714D01*
X108214286Y-93614285D01*
X108157143Y-93642857D01*
X108042857Y-93671428D01*
X107900000Y-93671428D01*
X107785714Y-93642857D01*
X107728571Y-93614285D01*
X107700000Y-93585714D01*
X107671429Y-93528571D01*
X107728571Y-93099999D02*
X107700000Y-93071428D01*
X107671429Y-93014285D01*
X107671429Y-92871428D01*
X107700000Y-92814285D01*
X107728571Y-92785714D01*
X107785714Y-92757142D01*
X107842857Y-92757142D01*
X107928571Y-92785714D01*
X108271429Y-93128571D01*
X108271429Y-92757142D01*
X134871429Y-58871429D02*
X134585714Y-59071429D01*
X134871429Y-59214286D02*
X134271429Y-59214286D01*
X134271429Y-58985714D01*
X134300000Y-58928572D01*
X134328571Y-58900000D01*
X134385714Y-58871429D01*
X134471429Y-58871429D01*
X134528571Y-58900000D01*
X134557143Y-58928572D01*
X134585714Y-58985714D01*
X134585714Y-59214286D01*
X134271429Y-58328572D02*
X134271429Y-58614286D01*
X134557143Y-58642857D01*
X134528571Y-58614286D01*
X134500000Y-58557143D01*
X134500000Y-58414286D01*
X134528571Y-58357143D01*
X134557143Y-58328572D01*
X134614286Y-58300000D01*
X134757143Y-58300000D01*
X134814286Y-58328572D01*
X134842857Y-58357143D01*
X134871429Y-58414286D01*
X134871429Y-58557143D01*
X134842857Y-58614286D01*
X134814286Y-58642857D01*
X134271429Y-57928571D02*
X134271429Y-57871428D01*
X134300000Y-57814285D01*
X134328571Y-57785714D01*
X134385714Y-57757143D01*
X134500000Y-57728571D01*
X134642857Y-57728571D01*
X134757143Y-57757143D01*
X134814286Y-57785714D01*
X134842857Y-57814285D01*
X134871429Y-57871428D01*
X134871429Y-57928571D01*
X134842857Y-57985714D01*
X134814286Y-58014285D01*
X134757143Y-58042857D01*
X134642857Y-58071428D01*
X134500000Y-58071428D01*
X134385714Y-58042857D01*
X134328571Y-58014285D01*
X134300000Y-57985714D01*
X134271429Y-57928571D01*
X134871429Y-57157142D02*
X134871429Y-57499999D01*
X134871429Y-57328571D02*
X134271429Y-57328571D01*
X134357143Y-57385714D01*
X134414286Y-57442856D01*
X134442857Y-57499999D01*
X127828571Y-73171429D02*
X127628571Y-72885714D01*
X127485714Y-73171429D02*
X127485714Y-72571429D01*
X127714286Y-72571429D01*
X127771428Y-72600000D01*
X127800000Y-72628571D01*
X127828571Y-72685714D01*
X127828571Y-72771429D01*
X127800000Y-72828571D01*
X127771428Y-72857143D01*
X127714286Y-72885714D01*
X127485714Y-72885714D01*
X128342857Y-72571429D02*
X128228571Y-72571429D01*
X128171428Y-72600000D01*
X128142857Y-72628571D01*
X128085714Y-72714286D01*
X128057143Y-72828571D01*
X128057143Y-73057143D01*
X128085714Y-73114286D01*
X128114286Y-73142857D01*
X128171428Y-73171429D01*
X128285714Y-73171429D01*
X128342857Y-73142857D01*
X128371428Y-73114286D01*
X128400000Y-73057143D01*
X128400000Y-72914286D01*
X128371428Y-72857143D01*
X128342857Y-72828571D01*
X128285714Y-72800000D01*
X128171428Y-72800000D01*
X128114286Y-72828571D01*
X128085714Y-72857143D01*
X128057143Y-72914286D01*
X128771429Y-72571429D02*
X128828572Y-72571429D01*
X128885715Y-72600000D01*
X128914286Y-72628571D01*
X128942857Y-72685714D01*
X128971429Y-72800000D01*
X128971429Y-72942857D01*
X128942857Y-73057143D01*
X128914286Y-73114286D01*
X128885715Y-73142857D01*
X128828572Y-73171429D01*
X128771429Y-73171429D01*
X128714286Y-73142857D01*
X128685715Y-73114286D01*
X128657143Y-73057143D01*
X128628572Y-72942857D01*
X128628572Y-72800000D01*
X128657143Y-72685714D01*
X128685715Y-72628571D01*
X128714286Y-72600000D01*
X128771429Y-72571429D01*
X129542858Y-73171429D02*
X129200001Y-73171429D01*
X129371429Y-73171429D02*
X129371429Y-72571429D01*
X129314286Y-72657143D01*
X129257144Y-72714286D01*
X129200001Y-72742857D01*
X136271429Y-66771429D02*
X135985714Y-66971429D01*
X136271429Y-67114286D02*
X135671429Y-67114286D01*
X135671429Y-66885714D01*
X135700000Y-66828572D01*
X135728571Y-66800000D01*
X135785714Y-66771429D01*
X135871429Y-66771429D01*
X135928571Y-66800000D01*
X135957143Y-66828572D01*
X135985714Y-66885714D01*
X135985714Y-67114286D01*
X135671429Y-66257143D02*
X135671429Y-66371429D01*
X135700000Y-66428572D01*
X135728571Y-66457143D01*
X135814286Y-66514286D01*
X135928571Y-66542857D01*
X136157143Y-66542857D01*
X136214286Y-66514286D01*
X136242857Y-66485714D01*
X136271429Y-66428572D01*
X136271429Y-66314286D01*
X136242857Y-66257143D01*
X136214286Y-66228572D01*
X136157143Y-66200000D01*
X136014286Y-66200000D01*
X135957143Y-66228572D01*
X135928571Y-66257143D01*
X135900000Y-66314286D01*
X135900000Y-66428572D01*
X135928571Y-66485714D01*
X135957143Y-66514286D01*
X136014286Y-66542857D01*
X135671429Y-65828571D02*
X135671429Y-65771428D01*
X135700000Y-65714285D01*
X135728571Y-65685714D01*
X135785714Y-65657143D01*
X135900000Y-65628571D01*
X136042857Y-65628571D01*
X136157143Y-65657143D01*
X136214286Y-65685714D01*
X136242857Y-65714285D01*
X136271429Y-65771428D01*
X136271429Y-65828571D01*
X136242857Y-65885714D01*
X136214286Y-65914285D01*
X136157143Y-65942857D01*
X136042857Y-65971428D01*
X135900000Y-65971428D01*
X135785714Y-65942857D01*
X135728571Y-65914285D01*
X135700000Y-65885714D01*
X135671429Y-65828571D01*
X135728571Y-65399999D02*
X135700000Y-65371428D01*
X135671429Y-65314285D01*
X135671429Y-65171428D01*
X135700000Y-65114285D01*
X135728571Y-65085714D01*
X135785714Y-65057142D01*
X135842857Y-65057142D01*
X135928571Y-65085714D01*
X136271429Y-65428571D01*
X136271429Y-65057142D01*
X128771429Y-66771429D02*
X128485714Y-66971429D01*
X128771429Y-67114286D02*
X128171429Y-67114286D01*
X128171429Y-66885714D01*
X128200000Y-66828572D01*
X128228571Y-66800000D01*
X128285714Y-66771429D01*
X128371429Y-66771429D01*
X128428571Y-66800000D01*
X128457143Y-66828572D01*
X128485714Y-66885714D01*
X128485714Y-67114286D01*
X128171429Y-66257143D02*
X128171429Y-66371429D01*
X128200000Y-66428572D01*
X128228571Y-66457143D01*
X128314286Y-66514286D01*
X128428571Y-66542857D01*
X128657143Y-66542857D01*
X128714286Y-66514286D01*
X128742857Y-66485714D01*
X128771429Y-66428572D01*
X128771429Y-66314286D01*
X128742857Y-66257143D01*
X128714286Y-66228572D01*
X128657143Y-66200000D01*
X128514286Y-66200000D01*
X128457143Y-66228572D01*
X128428571Y-66257143D01*
X128400000Y-66314286D01*
X128400000Y-66428572D01*
X128428571Y-66485714D01*
X128457143Y-66514286D01*
X128514286Y-66542857D01*
X128171429Y-65828571D02*
X128171429Y-65771428D01*
X128200000Y-65714285D01*
X128228571Y-65685714D01*
X128285714Y-65657143D01*
X128400000Y-65628571D01*
X128542857Y-65628571D01*
X128657143Y-65657143D01*
X128714286Y-65685714D01*
X128742857Y-65714285D01*
X128771429Y-65771428D01*
X128771429Y-65828571D01*
X128742857Y-65885714D01*
X128714286Y-65914285D01*
X128657143Y-65942857D01*
X128542857Y-65971428D01*
X128400000Y-65971428D01*
X128285714Y-65942857D01*
X128228571Y-65914285D01*
X128200000Y-65885714D01*
X128171429Y-65828571D01*
X128171429Y-65428571D02*
X128171429Y-65057142D01*
X128400000Y-65257142D01*
X128400000Y-65171428D01*
X128428571Y-65114285D01*
X128457143Y-65085714D01*
X128514286Y-65057142D01*
X128657143Y-65057142D01*
X128714286Y-65085714D01*
X128742857Y-65114285D01*
X128771429Y-65171428D01*
X128771429Y-65342856D01*
X128742857Y-65399999D01*
X128714286Y-65428571D01*
X130328571Y-81430429D02*
X130128571Y-81144714D01*
X129985714Y-81430429D02*
X129985714Y-80830429D01*
X130214286Y-80830429D01*
X130271428Y-80859000D01*
X130300000Y-80887571D01*
X130328571Y-80944714D01*
X130328571Y-81030429D01*
X130300000Y-81087571D01*
X130271428Y-81116143D01*
X130214286Y-81144714D01*
X129985714Y-81144714D01*
X130842857Y-80830429D02*
X130728571Y-80830429D01*
X130671428Y-80859000D01*
X130642857Y-80887571D01*
X130585714Y-80973286D01*
X130557143Y-81087571D01*
X130557143Y-81316143D01*
X130585714Y-81373286D01*
X130614286Y-81401857D01*
X130671428Y-81430429D01*
X130785714Y-81430429D01*
X130842857Y-81401857D01*
X130871428Y-81373286D01*
X130900000Y-81316143D01*
X130900000Y-81173286D01*
X130871428Y-81116143D01*
X130842857Y-81087571D01*
X130785714Y-81059000D01*
X130671428Y-81059000D01*
X130614286Y-81087571D01*
X130585714Y-81116143D01*
X130557143Y-81173286D01*
X131271429Y-80830429D02*
X131328572Y-80830429D01*
X131385715Y-80859000D01*
X131414286Y-80887571D01*
X131442857Y-80944714D01*
X131471429Y-81059000D01*
X131471429Y-81201857D01*
X131442857Y-81316143D01*
X131414286Y-81373286D01*
X131385715Y-81401857D01*
X131328572Y-81430429D01*
X131271429Y-81430429D01*
X131214286Y-81401857D01*
X131185715Y-81373286D01*
X131157143Y-81316143D01*
X131128572Y-81201857D01*
X131128572Y-81059000D01*
X131157143Y-80944714D01*
X131185715Y-80887571D01*
X131214286Y-80859000D01*
X131271429Y-80830429D01*
X131985715Y-81030429D02*
X131985715Y-81430429D01*
X131842858Y-80801857D02*
X131700001Y-81230429D01*
X132071429Y-81230429D01*
X131271429Y-66771429D02*
X130985714Y-66971429D01*
X131271429Y-67114286D02*
X130671429Y-67114286D01*
X130671429Y-66885714D01*
X130700000Y-66828572D01*
X130728571Y-66800000D01*
X130785714Y-66771429D01*
X130871429Y-66771429D01*
X130928571Y-66800000D01*
X130957143Y-66828572D01*
X130985714Y-66885714D01*
X130985714Y-67114286D01*
X130671429Y-66257143D02*
X130671429Y-66371429D01*
X130700000Y-66428572D01*
X130728571Y-66457143D01*
X130814286Y-66514286D01*
X130928571Y-66542857D01*
X131157143Y-66542857D01*
X131214286Y-66514286D01*
X131242857Y-66485714D01*
X131271429Y-66428572D01*
X131271429Y-66314286D01*
X131242857Y-66257143D01*
X131214286Y-66228572D01*
X131157143Y-66200000D01*
X131014286Y-66200000D01*
X130957143Y-66228572D01*
X130928571Y-66257143D01*
X130900000Y-66314286D01*
X130900000Y-66428572D01*
X130928571Y-66485714D01*
X130957143Y-66514286D01*
X131014286Y-66542857D01*
X130671429Y-65828571D02*
X130671429Y-65771428D01*
X130700000Y-65714285D01*
X130728571Y-65685714D01*
X130785714Y-65657143D01*
X130900000Y-65628571D01*
X131042857Y-65628571D01*
X131157143Y-65657143D01*
X131214286Y-65685714D01*
X131242857Y-65714285D01*
X131271429Y-65771428D01*
X131271429Y-65828571D01*
X131242857Y-65885714D01*
X131214286Y-65914285D01*
X131157143Y-65942857D01*
X131042857Y-65971428D01*
X130900000Y-65971428D01*
X130785714Y-65942857D01*
X130728571Y-65914285D01*
X130700000Y-65885714D01*
X130671429Y-65828571D01*
X130671429Y-65085714D02*
X130671429Y-65371428D01*
X130957143Y-65399999D01*
X130928571Y-65371428D01*
X130900000Y-65314285D01*
X130900000Y-65171428D01*
X130928571Y-65114285D01*
X130957143Y-65085714D01*
X131014286Y-65057142D01*
X131157143Y-65057142D01*
X131214286Y-65085714D01*
X131242857Y-65114285D01*
X131271429Y-65171428D01*
X131271429Y-65314285D01*
X131242857Y-65371428D01*
X131214286Y-65399999D01*
X127271429Y-88071429D02*
X126985714Y-88271429D01*
X127271429Y-88414286D02*
X126671429Y-88414286D01*
X126671429Y-88185714D01*
X126700000Y-88128572D01*
X126728571Y-88100000D01*
X126785714Y-88071429D01*
X126871429Y-88071429D01*
X126928571Y-88100000D01*
X126957143Y-88128572D01*
X126985714Y-88185714D01*
X126985714Y-88414286D01*
X126671429Y-87557143D02*
X126671429Y-87671429D01*
X126700000Y-87728572D01*
X126728571Y-87757143D01*
X126814286Y-87814286D01*
X126928571Y-87842857D01*
X127157143Y-87842857D01*
X127214286Y-87814286D01*
X127242857Y-87785714D01*
X127271429Y-87728572D01*
X127271429Y-87614286D01*
X127242857Y-87557143D01*
X127214286Y-87528572D01*
X127157143Y-87500000D01*
X127014286Y-87500000D01*
X126957143Y-87528572D01*
X126928571Y-87557143D01*
X126900000Y-87614286D01*
X126900000Y-87728572D01*
X126928571Y-87785714D01*
X126957143Y-87814286D01*
X127014286Y-87842857D01*
X126671429Y-87128571D02*
X126671429Y-87071428D01*
X126700000Y-87014285D01*
X126728571Y-86985714D01*
X126785714Y-86957143D01*
X126900000Y-86928571D01*
X127042857Y-86928571D01*
X127157143Y-86957143D01*
X127214286Y-86985714D01*
X127242857Y-87014285D01*
X127271429Y-87071428D01*
X127271429Y-87128571D01*
X127242857Y-87185714D01*
X127214286Y-87214285D01*
X127157143Y-87242857D01*
X127042857Y-87271428D01*
X126900000Y-87271428D01*
X126785714Y-87242857D01*
X126728571Y-87214285D01*
X126700000Y-87185714D01*
X126671429Y-87128571D01*
X126671429Y-86414285D02*
X126671429Y-86528571D01*
X126700000Y-86585714D01*
X126728571Y-86614285D01*
X126814286Y-86671428D01*
X126928571Y-86699999D01*
X127157143Y-86699999D01*
X127214286Y-86671428D01*
X127242857Y-86642856D01*
X127271429Y-86585714D01*
X127271429Y-86471428D01*
X127242857Y-86414285D01*
X127214286Y-86385714D01*
X127157143Y-86357142D01*
X127014286Y-86357142D01*
X126957143Y-86385714D01*
X126928571Y-86414285D01*
X126900000Y-86471428D01*
X126900000Y-86585714D01*
X126928571Y-86642856D01*
X126957143Y-86671428D01*
X127014286Y-86699999D01*
X127828571Y-81471429D02*
X127628571Y-81185714D01*
X127485714Y-81471429D02*
X127485714Y-80871429D01*
X127714286Y-80871429D01*
X127771428Y-80900000D01*
X127800000Y-80928571D01*
X127828571Y-80985714D01*
X127828571Y-81071429D01*
X127800000Y-81128571D01*
X127771428Y-81157143D01*
X127714286Y-81185714D01*
X127485714Y-81185714D01*
X128342857Y-80871429D02*
X128228571Y-80871429D01*
X128171428Y-80900000D01*
X128142857Y-80928571D01*
X128085714Y-81014286D01*
X128057143Y-81128571D01*
X128057143Y-81357143D01*
X128085714Y-81414286D01*
X128114286Y-81442857D01*
X128171428Y-81471429D01*
X128285714Y-81471429D01*
X128342857Y-81442857D01*
X128371428Y-81414286D01*
X128400000Y-81357143D01*
X128400000Y-81214286D01*
X128371428Y-81157143D01*
X128342857Y-81128571D01*
X128285714Y-81100000D01*
X128171428Y-81100000D01*
X128114286Y-81128571D01*
X128085714Y-81157143D01*
X128057143Y-81214286D01*
X128771429Y-80871429D02*
X128828572Y-80871429D01*
X128885715Y-80900000D01*
X128914286Y-80928571D01*
X128942857Y-80985714D01*
X128971429Y-81100000D01*
X128971429Y-81242857D01*
X128942857Y-81357143D01*
X128914286Y-81414286D01*
X128885715Y-81442857D01*
X128828572Y-81471429D01*
X128771429Y-81471429D01*
X128714286Y-81442857D01*
X128685715Y-81414286D01*
X128657143Y-81357143D01*
X128628572Y-81242857D01*
X128628572Y-81100000D01*
X128657143Y-80985714D01*
X128685715Y-80928571D01*
X128714286Y-80900000D01*
X128771429Y-80871429D01*
X129171429Y-80871429D02*
X129571429Y-80871429D01*
X129314286Y-81471429D01*
X135828571Y-89971429D02*
X135628571Y-89685714D01*
X135485714Y-89971429D02*
X135485714Y-89371429D01*
X135714286Y-89371429D01*
X135771428Y-89400000D01*
X135800000Y-89428571D01*
X135828571Y-89485714D01*
X135828571Y-89571429D01*
X135800000Y-89628571D01*
X135771428Y-89657143D01*
X135714286Y-89685714D01*
X135485714Y-89685714D01*
X136342857Y-89371429D02*
X136228571Y-89371429D01*
X136171428Y-89400000D01*
X136142857Y-89428571D01*
X136085714Y-89514286D01*
X136057143Y-89628571D01*
X136057143Y-89857143D01*
X136085714Y-89914286D01*
X136114286Y-89942857D01*
X136171428Y-89971429D01*
X136285714Y-89971429D01*
X136342857Y-89942857D01*
X136371428Y-89914286D01*
X136400000Y-89857143D01*
X136400000Y-89714286D01*
X136371428Y-89657143D01*
X136342857Y-89628571D01*
X136285714Y-89600000D01*
X136171428Y-89600000D01*
X136114286Y-89628571D01*
X136085714Y-89657143D01*
X136057143Y-89714286D01*
X136771429Y-89371429D02*
X136828572Y-89371429D01*
X136885715Y-89400000D01*
X136914286Y-89428571D01*
X136942857Y-89485714D01*
X136971429Y-89600000D01*
X136971429Y-89742857D01*
X136942857Y-89857143D01*
X136914286Y-89914286D01*
X136885715Y-89942857D01*
X136828572Y-89971429D01*
X136771429Y-89971429D01*
X136714286Y-89942857D01*
X136685715Y-89914286D01*
X136657143Y-89857143D01*
X136628572Y-89742857D01*
X136628572Y-89600000D01*
X136657143Y-89485714D01*
X136685715Y-89428571D01*
X136714286Y-89400000D01*
X136771429Y-89371429D01*
X137314286Y-89628571D02*
X137257144Y-89600000D01*
X137228572Y-89571429D01*
X137200001Y-89514286D01*
X137200001Y-89485714D01*
X137228572Y-89428571D01*
X137257144Y-89400000D01*
X137314286Y-89371429D01*
X137428572Y-89371429D01*
X137485715Y-89400000D01*
X137514286Y-89428571D01*
X137542858Y-89485714D01*
X137542858Y-89514286D01*
X137514286Y-89571429D01*
X137485715Y-89600000D01*
X137428572Y-89628571D01*
X137314286Y-89628571D01*
X137257144Y-89657143D01*
X137228572Y-89685714D01*
X137200001Y-89742857D01*
X137200001Y-89857143D01*
X137228572Y-89914286D01*
X137257144Y-89942857D01*
X137314286Y-89971429D01*
X137428572Y-89971429D01*
X137485715Y-89942857D01*
X137514286Y-89914286D01*
X137542858Y-89857143D01*
X137542858Y-89742857D01*
X137514286Y-89685714D01*
X137485715Y-89657143D01*
X137428572Y-89628571D01*
X101871428Y-75871429D02*
X101871428Y-76357143D01*
X101900000Y-76414286D01*
X101928571Y-76442857D01*
X101985714Y-76471429D01*
X102100000Y-76471429D01*
X102157142Y-76442857D01*
X102185714Y-76414286D01*
X102214285Y-76357143D01*
X102214285Y-75871429D01*
X102814285Y-76471429D02*
X102471428Y-76471429D01*
X102642856Y-76471429D02*
X102642856Y-75871429D01*
X102585713Y-75957143D01*
X102528571Y-76014286D01*
X102471428Y-76042857D01*
X103185714Y-75871429D02*
X103242857Y-75871429D01*
X103300000Y-75900000D01*
X103328571Y-75928571D01*
X103357142Y-75985714D01*
X103385714Y-76100000D01*
X103385714Y-76242857D01*
X103357142Y-76357143D01*
X103328571Y-76414286D01*
X103300000Y-76442857D01*
X103242857Y-76471429D01*
X103185714Y-76471429D01*
X103128571Y-76442857D01*
X103100000Y-76414286D01*
X103071428Y-76357143D01*
X103042857Y-76242857D01*
X103042857Y-76100000D01*
X103071428Y-75985714D01*
X103100000Y-75928571D01*
X103128571Y-75900000D01*
X103185714Y-75871429D01*
X103957143Y-76471429D02*
X103614286Y-76471429D01*
X103785714Y-76471429D02*
X103785714Y-75871429D01*
X103728571Y-75957143D01*
X103671429Y-76014286D01*
X103614286Y-76042857D01*
X77971428Y-65971429D02*
X77971428Y-66457143D01*
X78000000Y-66514286D01*
X78028571Y-66542857D01*
X78085714Y-66571429D01*
X78200000Y-66571429D01*
X78257142Y-66542857D01*
X78285714Y-66514286D01*
X78314285Y-66457143D01*
X78314285Y-65971429D01*
X78571428Y-66028571D02*
X78599999Y-66000000D01*
X78657142Y-65971429D01*
X78799999Y-65971429D01*
X78857142Y-66000000D01*
X78885713Y-66028571D01*
X78914285Y-66085714D01*
X78914285Y-66142857D01*
X78885713Y-66228571D01*
X78542856Y-66571429D01*
X78914285Y-66571429D01*
X79285714Y-65971429D02*
X79342857Y-65971429D01*
X79400000Y-66000000D01*
X79428571Y-66028571D01*
X79457142Y-66085714D01*
X79485714Y-66200000D01*
X79485714Y-66342857D01*
X79457142Y-66457143D01*
X79428571Y-66514286D01*
X79400000Y-66542857D01*
X79342857Y-66571429D01*
X79285714Y-66571429D01*
X79228571Y-66542857D01*
X79200000Y-66514286D01*
X79171428Y-66457143D01*
X79142857Y-66342857D01*
X79142857Y-66200000D01*
X79171428Y-66085714D01*
X79200000Y-66028571D01*
X79228571Y-66000000D01*
X79285714Y-65971429D01*
X80057143Y-66571429D02*
X79714286Y-66571429D01*
X79885714Y-66571429D02*
X79885714Y-65971429D01*
X79828571Y-66057143D01*
X79771429Y-66114286D01*
X79714286Y-66142857D01*
X77871428Y-80871429D02*
X77871428Y-81357143D01*
X77900000Y-81414286D01*
X77928571Y-81442857D01*
X77985714Y-81471429D01*
X78100000Y-81471429D01*
X78157142Y-81442857D01*
X78185714Y-81414286D01*
X78214285Y-81357143D01*
X78214285Y-80871429D01*
X78471428Y-80928571D02*
X78499999Y-80900000D01*
X78557142Y-80871429D01*
X78699999Y-80871429D01*
X78757142Y-80900000D01*
X78785713Y-80928571D01*
X78814285Y-80985714D01*
X78814285Y-81042857D01*
X78785713Y-81128571D01*
X78442856Y-81471429D01*
X78814285Y-81471429D01*
X79185714Y-80871429D02*
X79242857Y-80871429D01*
X79300000Y-80900000D01*
X79328571Y-80928571D01*
X79357142Y-80985714D01*
X79385714Y-81100000D01*
X79385714Y-81242857D01*
X79357142Y-81357143D01*
X79328571Y-81414286D01*
X79300000Y-81442857D01*
X79242857Y-81471429D01*
X79185714Y-81471429D01*
X79128571Y-81442857D01*
X79100000Y-81414286D01*
X79071428Y-81357143D01*
X79042857Y-81242857D01*
X79042857Y-81100000D01*
X79071428Y-80985714D01*
X79100000Y-80928571D01*
X79128571Y-80900000D01*
X79185714Y-80871429D01*
X79614286Y-80928571D02*
X79642857Y-80900000D01*
X79700000Y-80871429D01*
X79842857Y-80871429D01*
X79900000Y-80900000D01*
X79928571Y-80928571D01*
X79957143Y-80985714D01*
X79957143Y-81042857D01*
X79928571Y-81128571D01*
X79585714Y-81471429D01*
X79957143Y-81471429D01*
X93600429Y-69528572D02*
X94086143Y-69528572D01*
X94143286Y-69500000D01*
X94171857Y-69471429D01*
X94200429Y-69414286D01*
X94200429Y-69300000D01*
X94171857Y-69242858D01*
X94143286Y-69214286D01*
X94086143Y-69185715D01*
X93600429Y-69185715D01*
X93657571Y-68928572D02*
X93629000Y-68900001D01*
X93600429Y-68842858D01*
X93600429Y-68700001D01*
X93629000Y-68642858D01*
X93657571Y-68614287D01*
X93714714Y-68585715D01*
X93771857Y-68585715D01*
X93857571Y-68614287D01*
X94200429Y-68957144D01*
X94200429Y-68585715D01*
X93600429Y-68214286D02*
X93600429Y-68157143D01*
X93629000Y-68100000D01*
X93657571Y-68071429D01*
X93714714Y-68042858D01*
X93829000Y-68014286D01*
X93971857Y-68014286D01*
X94086143Y-68042858D01*
X94143286Y-68071429D01*
X94171857Y-68100000D01*
X94200429Y-68157143D01*
X94200429Y-68214286D01*
X94171857Y-68271429D01*
X94143286Y-68300000D01*
X94086143Y-68328572D01*
X93971857Y-68357143D01*
X93829000Y-68357143D01*
X93714714Y-68328572D01*
X93657571Y-68300000D01*
X93629000Y-68271429D01*
X93600429Y-68214286D01*
X93600429Y-67814286D02*
X93600429Y-67442857D01*
X93829000Y-67642857D01*
X93829000Y-67557143D01*
X93857571Y-67500000D01*
X93886143Y-67471429D01*
X93943286Y-67442857D01*
X94086143Y-67442857D01*
X94143286Y-67471429D01*
X94171857Y-67500000D01*
X94200429Y-67557143D01*
X94200429Y-67728571D01*
X94171857Y-67785714D01*
X94143286Y-67814286D01*
X115371428Y-54471429D02*
X115371428Y-54957143D01*
X115400000Y-55014286D01*
X115428571Y-55042857D01*
X115485714Y-55071429D01*
X115600000Y-55071429D01*
X115657142Y-55042857D01*
X115685714Y-55014286D01*
X115714285Y-54957143D01*
X115714285Y-54471429D01*
X115942856Y-54471429D02*
X116314285Y-54471429D01*
X116114285Y-54700000D01*
X116199999Y-54700000D01*
X116257142Y-54728571D01*
X116285713Y-54757143D01*
X116314285Y-54814286D01*
X116314285Y-54957143D01*
X116285713Y-55014286D01*
X116257142Y-55042857D01*
X116199999Y-55071429D01*
X116028571Y-55071429D01*
X115971428Y-55042857D01*
X115942856Y-55014286D01*
X116685714Y-54471429D02*
X116742857Y-54471429D01*
X116800000Y-54500000D01*
X116828571Y-54528571D01*
X116857142Y-54585714D01*
X116885714Y-54700000D01*
X116885714Y-54842857D01*
X116857142Y-54957143D01*
X116828571Y-55014286D01*
X116800000Y-55042857D01*
X116742857Y-55071429D01*
X116685714Y-55071429D01*
X116628571Y-55042857D01*
X116600000Y-55014286D01*
X116571428Y-54957143D01*
X116542857Y-54842857D01*
X116542857Y-54700000D01*
X116571428Y-54585714D01*
X116600000Y-54528571D01*
X116628571Y-54500000D01*
X116685714Y-54471429D01*
X117457143Y-55071429D02*
X117114286Y-55071429D01*
X117285714Y-55071429D02*
X117285714Y-54471429D01*
X117228571Y-54557143D01*
X117171429Y-54614286D01*
X117114286Y-54642857D01*
X124971429Y-92928572D02*
X125457143Y-92928572D01*
X125514286Y-92900000D01*
X125542857Y-92871429D01*
X125571429Y-92814286D01*
X125571429Y-92700000D01*
X125542857Y-92642858D01*
X125514286Y-92614286D01*
X125457143Y-92585715D01*
X124971429Y-92585715D01*
X125171429Y-92042858D02*
X125571429Y-92042858D01*
X124942857Y-92185715D02*
X125371429Y-92328572D01*
X125371429Y-91957144D01*
X124971429Y-91614286D02*
X124971429Y-91557143D01*
X125000000Y-91500000D01*
X125028571Y-91471429D01*
X125085714Y-91442858D01*
X125200000Y-91414286D01*
X125342857Y-91414286D01*
X125457143Y-91442858D01*
X125514286Y-91471429D01*
X125542857Y-91500000D01*
X125571429Y-91557143D01*
X125571429Y-91614286D01*
X125542857Y-91671429D01*
X125514286Y-91700000D01*
X125457143Y-91728572D01*
X125342857Y-91757143D01*
X125200000Y-91757143D01*
X125085714Y-91728572D01*
X125028571Y-91700000D01*
X125000000Y-91671429D01*
X124971429Y-91614286D01*
X125571429Y-90842857D02*
X125571429Y-91185714D01*
X125571429Y-91014286D02*
X124971429Y-91014286D01*
X125057143Y-91071429D01*
X125114286Y-91128571D01*
X125142857Y-91185714D01*
X140471428Y-76471429D02*
X140471428Y-76957143D01*
X140500000Y-77014286D01*
X140528571Y-77042857D01*
X140585714Y-77071429D01*
X140700000Y-77071429D01*
X140757142Y-77042857D01*
X140785714Y-77014286D01*
X140814285Y-76957143D01*
X140814285Y-76471429D01*
X141357142Y-76471429D02*
X141242856Y-76471429D01*
X141185713Y-76500000D01*
X141157142Y-76528571D01*
X141099999Y-76614286D01*
X141071428Y-76728571D01*
X141071428Y-76957143D01*
X141099999Y-77014286D01*
X141128571Y-77042857D01*
X141185713Y-77071429D01*
X141299999Y-77071429D01*
X141357142Y-77042857D01*
X141385713Y-77014286D01*
X141414285Y-76957143D01*
X141414285Y-76814286D01*
X141385713Y-76757143D01*
X141357142Y-76728571D01*
X141299999Y-76700000D01*
X141185713Y-76700000D01*
X141128571Y-76728571D01*
X141099999Y-76757143D01*
X141071428Y-76814286D01*
X141785714Y-76471429D02*
X141842857Y-76471429D01*
X141900000Y-76500000D01*
X141928571Y-76528571D01*
X141957142Y-76585714D01*
X141985714Y-76700000D01*
X141985714Y-76842857D01*
X141957142Y-76957143D01*
X141928571Y-77014286D01*
X141900000Y-77042857D01*
X141842857Y-77071429D01*
X141785714Y-77071429D01*
X141728571Y-77042857D01*
X141700000Y-77014286D01*
X141671428Y-76957143D01*
X141642857Y-76842857D01*
X141642857Y-76700000D01*
X141671428Y-76585714D01*
X141700000Y-76528571D01*
X141728571Y-76500000D01*
X141785714Y-76471429D01*
X142557143Y-77071429D02*
X142214286Y-77071429D01*
X142385714Y-77071429D02*
X142385714Y-76471429D01*
X142328571Y-76557143D01*
X142271429Y-76614286D01*
X142214286Y-76642857D01*
X97942856Y-94346429D02*
X98342856Y-94946429D01*
X98342856Y-94346429D02*
X97942856Y-94946429D01*
X98885714Y-94946429D02*
X98542857Y-94946429D01*
X98714285Y-94946429D02*
X98714285Y-94346429D01*
X98657142Y-94432143D01*
X98600000Y-94489286D01*
X98542857Y-94517857D01*
X99257143Y-94346429D02*
X99314286Y-94346429D01*
X99371429Y-94375000D01*
X99400000Y-94403571D01*
X99428571Y-94460714D01*
X99457143Y-94575000D01*
X99457143Y-94717857D01*
X99428571Y-94832143D01*
X99400000Y-94889286D01*
X99371429Y-94917857D01*
X99314286Y-94946429D01*
X99257143Y-94946429D01*
X99200000Y-94917857D01*
X99171429Y-94889286D01*
X99142857Y-94832143D01*
X99114286Y-94717857D01*
X99114286Y-94575000D01*
X99142857Y-94460714D01*
X99171429Y-94403571D01*
X99200000Y-94375000D01*
X99257143Y-94346429D01*
X99685715Y-94403571D02*
X99714286Y-94375000D01*
X99771429Y-94346429D01*
X99914286Y-94346429D01*
X99971429Y-94375000D01*
X100000000Y-94403571D01*
X100028572Y-94460714D01*
X100028572Y-94517857D01*
X100000000Y-94603571D01*
X99657143Y-94946429D01*
X100028572Y-94946429D01*
X107442856Y-104171429D02*
X107842856Y-104771429D01*
X107842856Y-104171429D02*
X107442856Y-104771429D01*
X108328571Y-104371429D02*
X108328571Y-104771429D01*
X108185714Y-104142857D02*
X108042857Y-104571429D01*
X108414285Y-104571429D01*
X108757143Y-104171429D02*
X108814286Y-104171429D01*
X108871429Y-104200000D01*
X108900000Y-104228571D01*
X108928571Y-104285714D01*
X108957143Y-104400000D01*
X108957143Y-104542857D01*
X108928571Y-104657143D01*
X108900000Y-104714286D01*
X108871429Y-104742857D01*
X108814286Y-104771429D01*
X108757143Y-104771429D01*
X108700000Y-104742857D01*
X108671429Y-104714286D01*
X108642857Y-104657143D01*
X108614286Y-104542857D01*
X108614286Y-104400000D01*
X108642857Y-104285714D01*
X108671429Y-104228571D01*
X108700000Y-104200000D01*
X108757143Y-104171429D01*
X109528572Y-104771429D02*
X109185715Y-104771429D01*
X109357143Y-104771429D02*
X109357143Y-104171429D01*
X109300000Y-104257143D01*
X109242858Y-104314286D01*
X109185715Y-104342857D01*
X116428571Y-75114286D02*
X116400000Y-75142857D01*
X116314286Y-75171429D01*
X116257143Y-75171429D01*
X116171428Y-75142857D01*
X116114286Y-75085714D01*
X116085714Y-75028571D01*
X116057143Y-74914286D01*
X116057143Y-74828571D01*
X116085714Y-74714286D01*
X116114286Y-74657143D01*
X116171428Y-74600000D01*
X116257143Y-74571429D01*
X116314286Y-74571429D01*
X116400000Y-74600000D01*
X116428571Y-74628571D01*
X116628571Y-74571429D02*
X117000000Y-74571429D01*
X116800000Y-74800000D01*
X116885714Y-74800000D01*
X116942857Y-74828571D01*
X116971428Y-74857143D01*
X117000000Y-74914286D01*
X117000000Y-75057143D01*
X116971428Y-75114286D01*
X116942857Y-75142857D01*
X116885714Y-75171429D01*
X116714286Y-75171429D01*
X116657143Y-75142857D01*
X116628571Y-75114286D01*
X117371429Y-74571429D02*
X117428572Y-74571429D01*
X117485715Y-74600000D01*
X117514286Y-74628571D01*
X117542857Y-74685714D01*
X117571429Y-74800000D01*
X117571429Y-74942857D01*
X117542857Y-75057143D01*
X117514286Y-75114286D01*
X117485715Y-75142857D01*
X117428572Y-75171429D01*
X117371429Y-75171429D01*
X117314286Y-75142857D01*
X117285715Y-75114286D01*
X117257143Y-75057143D01*
X117228572Y-74942857D01*
X117228572Y-74800000D01*
X117257143Y-74685714D01*
X117285715Y-74628571D01*
X117314286Y-74600000D01*
X117371429Y-74571429D01*
X117771429Y-74571429D02*
X118142858Y-74571429D01*
X117942858Y-74800000D01*
X118028572Y-74800000D01*
X118085715Y-74828571D01*
X118114286Y-74857143D01*
X118142858Y-74914286D01*
X118142858Y-75057143D01*
X118114286Y-75114286D01*
X118085715Y-75142857D01*
X118028572Y-75171429D01*
X117857144Y-75171429D01*
X117800001Y-75142857D01*
X117771429Y-75114286D01*
X142328571Y-58914286D02*
X142300000Y-58942857D01*
X142214286Y-58971429D01*
X142157143Y-58971429D01*
X142071428Y-58942857D01*
X142014286Y-58885714D01*
X141985714Y-58828571D01*
X141957143Y-58714286D01*
X141957143Y-58628571D01*
X141985714Y-58514286D01*
X142014286Y-58457143D01*
X142071428Y-58400000D01*
X142157143Y-58371429D01*
X142214286Y-58371429D01*
X142300000Y-58400000D01*
X142328571Y-58428571D01*
X142842857Y-58371429D02*
X142728571Y-58371429D01*
X142671428Y-58400000D01*
X142642857Y-58428571D01*
X142585714Y-58514286D01*
X142557143Y-58628571D01*
X142557143Y-58857143D01*
X142585714Y-58914286D01*
X142614286Y-58942857D01*
X142671428Y-58971429D01*
X142785714Y-58971429D01*
X142842857Y-58942857D01*
X142871428Y-58914286D01*
X142900000Y-58857143D01*
X142900000Y-58714286D01*
X142871428Y-58657143D01*
X142842857Y-58628571D01*
X142785714Y-58600000D01*
X142671428Y-58600000D01*
X142614286Y-58628571D01*
X142585714Y-58657143D01*
X142557143Y-58714286D01*
X143271429Y-58371429D02*
X143328572Y-58371429D01*
X143385715Y-58400000D01*
X143414286Y-58428571D01*
X143442857Y-58485714D01*
X143471429Y-58600000D01*
X143471429Y-58742857D01*
X143442857Y-58857143D01*
X143414286Y-58914286D01*
X143385715Y-58942857D01*
X143328572Y-58971429D01*
X143271429Y-58971429D01*
X143214286Y-58942857D01*
X143185715Y-58914286D01*
X143157143Y-58857143D01*
X143128572Y-58742857D01*
X143128572Y-58600000D01*
X143157143Y-58485714D01*
X143185715Y-58428571D01*
X143214286Y-58400000D01*
X143271429Y-58371429D01*
X143985715Y-58571429D02*
X143985715Y-58971429D01*
X143842858Y-58342857D02*
X143700001Y-58771429D01*
X144071429Y-58771429D01*
X125871429Y-70714286D02*
X125271429Y-70714286D01*
X125271429Y-70485714D01*
X125300000Y-70428572D01*
X125328571Y-70400000D01*
X125385714Y-70371429D01*
X125471429Y-70371429D01*
X125528571Y-70400000D01*
X125557143Y-70428572D01*
X125585714Y-70485714D01*
X125585714Y-70714286D01*
X125271429Y-70171429D02*
X125271429Y-69800000D01*
X125500000Y-70000000D01*
X125500000Y-69914286D01*
X125528571Y-69857143D01*
X125557143Y-69828572D01*
X125614286Y-69800000D01*
X125757143Y-69800000D01*
X125814286Y-69828572D01*
X125842857Y-69857143D01*
X125871429Y-69914286D01*
X125871429Y-70085714D01*
X125842857Y-70142857D01*
X125814286Y-70171429D01*
X125271429Y-69428571D02*
X125271429Y-69371428D01*
X125300000Y-69314285D01*
X125328571Y-69285714D01*
X125385714Y-69257143D01*
X125500000Y-69228571D01*
X125642857Y-69228571D01*
X125757143Y-69257143D01*
X125814286Y-69285714D01*
X125842857Y-69314285D01*
X125871429Y-69371428D01*
X125871429Y-69428571D01*
X125842857Y-69485714D01*
X125814286Y-69514285D01*
X125757143Y-69542857D01*
X125642857Y-69571428D01*
X125500000Y-69571428D01*
X125385714Y-69542857D01*
X125328571Y-69514285D01*
X125300000Y-69485714D01*
X125271429Y-69428571D01*
X125871429Y-68657142D02*
X125871429Y-68999999D01*
X125871429Y-68828571D02*
X125271429Y-68828571D01*
X125357143Y-68885714D01*
X125414286Y-68942856D01*
X125442857Y-68999999D01*
X70471429Y-67314286D02*
X69871429Y-67314286D01*
X69871429Y-67085714D01*
X69900000Y-67028572D01*
X69928571Y-67000000D01*
X69985714Y-66971429D01*
X70071429Y-66971429D01*
X70128571Y-67000000D01*
X70157143Y-67028572D01*
X70185714Y-67085714D01*
X70185714Y-67314286D01*
X69928571Y-66742857D02*
X69900000Y-66714286D01*
X69871429Y-66657143D01*
X69871429Y-66514286D01*
X69900000Y-66457143D01*
X69928571Y-66428572D01*
X69985714Y-66400000D01*
X70042857Y-66400000D01*
X70128571Y-66428572D01*
X70471429Y-66771429D01*
X70471429Y-66400000D01*
X69871429Y-66028571D02*
X69871429Y-65971428D01*
X69900000Y-65914285D01*
X69928571Y-65885714D01*
X69985714Y-65857143D01*
X70100000Y-65828571D01*
X70242857Y-65828571D01*
X70357143Y-65857143D01*
X70414286Y-65885714D01*
X70442857Y-65914285D01*
X70471429Y-65971428D01*
X70471429Y-66028571D01*
X70442857Y-66085714D01*
X70414286Y-66114285D01*
X70357143Y-66142857D01*
X70242857Y-66171428D01*
X70100000Y-66171428D01*
X69985714Y-66142857D01*
X69928571Y-66114285D01*
X69900000Y-66085714D01*
X69871429Y-66028571D01*
X70471429Y-65257142D02*
X70471429Y-65599999D01*
X70471429Y-65428571D02*
X69871429Y-65428571D01*
X69957143Y-65485714D01*
X70014286Y-65542856D01*
X70042857Y-65599999D01*
X70471429Y-82714286D02*
X69871429Y-82714286D01*
X69871429Y-82485714D01*
X69900000Y-82428572D01*
X69928571Y-82400000D01*
X69985714Y-82371429D01*
X70071429Y-82371429D01*
X70128571Y-82400000D01*
X70157143Y-82428572D01*
X70185714Y-82485714D01*
X70185714Y-82714286D01*
X69928571Y-82142857D02*
X69900000Y-82114286D01*
X69871429Y-82057143D01*
X69871429Y-81914286D01*
X69900000Y-81857143D01*
X69928571Y-81828572D01*
X69985714Y-81800000D01*
X70042857Y-81800000D01*
X70128571Y-81828572D01*
X70471429Y-82171429D01*
X70471429Y-81800000D01*
X69871429Y-81428571D02*
X69871429Y-81371428D01*
X69900000Y-81314285D01*
X69928571Y-81285714D01*
X69985714Y-81257143D01*
X70100000Y-81228571D01*
X70242857Y-81228571D01*
X70357143Y-81257143D01*
X70414286Y-81285714D01*
X70442857Y-81314285D01*
X70471429Y-81371428D01*
X70471429Y-81428571D01*
X70442857Y-81485714D01*
X70414286Y-81514285D01*
X70357143Y-81542857D01*
X70242857Y-81571428D01*
X70100000Y-81571428D01*
X69985714Y-81542857D01*
X69928571Y-81514285D01*
X69900000Y-81485714D01*
X69871429Y-81428571D01*
X69928571Y-80999999D02*
X69900000Y-80971428D01*
X69871429Y-80914285D01*
X69871429Y-80771428D01*
X69900000Y-80714285D01*
X69928571Y-80685714D01*
X69985714Y-80657142D01*
X70042857Y-80657142D01*
X70128571Y-80685714D01*
X70471429Y-81028571D01*
X70471429Y-80657142D01*
X141621429Y-86014286D02*
X141021429Y-86014286D01*
X141021429Y-85785714D01*
X141050000Y-85728572D01*
X141078571Y-85700000D01*
X141135714Y-85671429D01*
X141221429Y-85671429D01*
X141278571Y-85700000D01*
X141307143Y-85728572D01*
X141335714Y-85785714D01*
X141335714Y-86014286D01*
X141021429Y-85157143D02*
X141021429Y-85271429D01*
X141050000Y-85328572D01*
X141078571Y-85357143D01*
X141164286Y-85414286D01*
X141278571Y-85442857D01*
X141507143Y-85442857D01*
X141564286Y-85414286D01*
X141592857Y-85385714D01*
X141621429Y-85328572D01*
X141621429Y-85214286D01*
X141592857Y-85157143D01*
X141564286Y-85128572D01*
X141507143Y-85100000D01*
X141364286Y-85100000D01*
X141307143Y-85128572D01*
X141278571Y-85157143D01*
X141250000Y-85214286D01*
X141250000Y-85328572D01*
X141278571Y-85385714D01*
X141307143Y-85414286D01*
X141364286Y-85442857D01*
X141021429Y-84728571D02*
X141021429Y-84671428D01*
X141050000Y-84614285D01*
X141078571Y-84585714D01*
X141135714Y-84557143D01*
X141250000Y-84528571D01*
X141392857Y-84528571D01*
X141507143Y-84557143D01*
X141564286Y-84585714D01*
X141592857Y-84614285D01*
X141621429Y-84671428D01*
X141621429Y-84728571D01*
X141592857Y-84785714D01*
X141564286Y-84814285D01*
X141507143Y-84842857D01*
X141392857Y-84871428D01*
X141250000Y-84871428D01*
X141135714Y-84842857D01*
X141078571Y-84814285D01*
X141050000Y-84785714D01*
X141021429Y-84728571D01*
X141621429Y-83957142D02*
X141621429Y-84299999D01*
X141621429Y-84128571D02*
X141021429Y-84128571D01*
X141107143Y-84185714D01*
X141164286Y-84242856D01*
X141192857Y-84299999D01*
X90171429Y-80314286D02*
X89571429Y-80314286D01*
X89571429Y-80085714D01*
X89600000Y-80028572D01*
X89628571Y-80000000D01*
X89685714Y-79971429D01*
X89771429Y-79971429D01*
X89828571Y-80000000D01*
X89857143Y-80028572D01*
X89885714Y-80085714D01*
X89885714Y-80314286D01*
X89628571Y-79742857D02*
X89600000Y-79714286D01*
X89571429Y-79657143D01*
X89571429Y-79514286D01*
X89600000Y-79457143D01*
X89628571Y-79428572D01*
X89685714Y-79400000D01*
X89742857Y-79400000D01*
X89828571Y-79428572D01*
X90171429Y-79771429D01*
X90171429Y-79400000D01*
X89571429Y-79028571D02*
X89571429Y-78971428D01*
X89600000Y-78914285D01*
X89628571Y-78885714D01*
X89685714Y-78857143D01*
X89800000Y-78828571D01*
X89942857Y-78828571D01*
X90057143Y-78857143D01*
X90114286Y-78885714D01*
X90142857Y-78914285D01*
X90171429Y-78971428D01*
X90171429Y-79028571D01*
X90142857Y-79085714D01*
X90114286Y-79114285D01*
X90057143Y-79142857D01*
X89942857Y-79171428D01*
X89800000Y-79171428D01*
X89685714Y-79142857D01*
X89628571Y-79114285D01*
X89600000Y-79085714D01*
X89571429Y-79028571D01*
X89571429Y-78628571D02*
X89571429Y-78257142D01*
X89800000Y-78457142D01*
X89800000Y-78371428D01*
X89828571Y-78314285D01*
X89857143Y-78285714D01*
X89914286Y-78257142D01*
X90057143Y-78257142D01*
X90114286Y-78285714D01*
X90142857Y-78314285D01*
X90171429Y-78371428D01*
X90171429Y-78542856D01*
X90142857Y-78599999D01*
X90114286Y-78628571D01*
X87085714Y-82971429D02*
X87085714Y-82371429D01*
X87314286Y-82371429D01*
X87371428Y-82400000D01*
X87400000Y-82428571D01*
X87428571Y-82485714D01*
X87428571Y-82571429D01*
X87400000Y-82628571D01*
X87371428Y-82657143D01*
X87314286Y-82685714D01*
X87085714Y-82685714D01*
X87657143Y-82428571D02*
X87685714Y-82400000D01*
X87742857Y-82371429D01*
X87885714Y-82371429D01*
X87942857Y-82400000D01*
X87971428Y-82428571D01*
X88000000Y-82485714D01*
X88000000Y-82542857D01*
X87971428Y-82628571D01*
X87628571Y-82971429D01*
X88000000Y-82971429D01*
X88371429Y-82371429D02*
X88428572Y-82371429D01*
X88485715Y-82400000D01*
X88514286Y-82428571D01*
X88542857Y-82485714D01*
X88571429Y-82600000D01*
X88571429Y-82742857D01*
X88542857Y-82857143D01*
X88514286Y-82914286D01*
X88485715Y-82942857D01*
X88428572Y-82971429D01*
X88371429Y-82971429D01*
X88314286Y-82942857D01*
X88285715Y-82914286D01*
X88257143Y-82857143D01*
X88228572Y-82742857D01*
X88228572Y-82600000D01*
X88257143Y-82485714D01*
X88285715Y-82428571D01*
X88314286Y-82400000D01*
X88371429Y-82371429D01*
X89085715Y-82571429D02*
X89085715Y-82971429D01*
X88942858Y-82342857D02*
X88800001Y-82771429D01*
X89171429Y-82771429D01*
X63771428Y-97642857D02*
X63857142Y-97671429D01*
X63999999Y-97671429D01*
X64057142Y-97642857D01*
X64085713Y-97614286D01*
X64114285Y-97557143D01*
X64114285Y-97500000D01*
X64085713Y-97442857D01*
X64057142Y-97414286D01*
X63999999Y-97385714D01*
X63885713Y-97357143D01*
X63828571Y-97328571D01*
X63799999Y-97300000D01*
X63771428Y-97242857D01*
X63771428Y-97185714D01*
X63799999Y-97128571D01*
X63828571Y-97100000D01*
X63885713Y-97071429D01*
X64028571Y-97071429D01*
X64114285Y-97100000D01*
X64685714Y-97671429D02*
X64342857Y-97671429D01*
X64514285Y-97671429D02*
X64514285Y-97071429D01*
X64457142Y-97157143D01*
X64400000Y-97214286D01*
X64342857Y-97242857D01*
X65057143Y-97071429D02*
X65114286Y-97071429D01*
X65171429Y-97100000D01*
X65200000Y-97128571D01*
X65228571Y-97185714D01*
X65257143Y-97300000D01*
X65257143Y-97442857D01*
X65228571Y-97557143D01*
X65200000Y-97614286D01*
X65171429Y-97642857D01*
X65114286Y-97671429D01*
X65057143Y-97671429D01*
X65000000Y-97642857D01*
X64971429Y-97614286D01*
X64942857Y-97557143D01*
X64914286Y-97442857D01*
X64914286Y-97300000D01*
X64942857Y-97185714D01*
X64971429Y-97128571D01*
X65000000Y-97100000D01*
X65057143Y-97071429D01*
X65828572Y-97671429D02*
X65485715Y-97671429D01*
X65657143Y-97671429D02*
X65657143Y-97071429D01*
X65600000Y-97157143D01*
X65542858Y-97214286D01*
X65485715Y-97242857D01*
M02*
