M48
;DRILL file {kicad (2014-jul-16 BZR unknown)-product} date Sun 25 Jan 2015 04:20:06 PM EST
;FORMAT={-:-/ absolute / inch / decimal}
FMAT,2
INCH,TZ
T1C0.024
T2C0.025
T3C0.030
T4C0.039
T5C0.051
T6C0.055
T7C0.129
%
G90
G05
M72
T1
X5.0591Y-3.3661
X5.1575Y-3.2677
X5.2559Y-3.3661
T2
X2.8346Y-3.1102
X3.2677Y-3.8091
X3.3169Y-2.6083
X3.4153Y-2.1752
X3.4252Y-2.874
X3.435Y-2.8051
X3.4843Y-2.3206
X3.4941Y-2.628
X3.5531Y-2.4902
X3.5531Y-3.061
X3.563Y-3.622
X3.5906Y-3.1457
X3.6014Y-3.061
X3.6122Y-3.4252
X3.622Y-2.4902
X3.6309Y-2.9646
X3.6516Y-3.3169
X3.6801Y-3.7697
X3.7008Y-2.6083
X3.7165Y-3.0039
X3.7205Y-2.6969
X3.7795Y-3.7205
X3.7992Y-3.0984
X3.7992Y-3.1457
X3.8326Y-2.874
X3.8583Y-3.248
X3.8681Y-3.0709
X3.9098Y-3.0604
X3.9469Y-3.4941
X3.9665Y-3.1102
X4.1437Y-3.249
X4.1831Y-3.1085
X4.1969Y-3.2967
X4.2224Y-3.2579
X4.2407Y-2.8862
X4.2421Y-2.9331
X4.252Y-3.0807
X4.3031Y-2.935
X4.3209Y-3.1801
X4.3504Y-3.8091
X4.3505Y-2.9233
X4.3622Y-3.3583
X4.3622Y-3.4528
X4.363Y-3.2398
X4.4134Y-3.8701
X4.4783Y-3.4547
X4.4783Y-3.6024
X4.4783Y-3.7402
X4.4882Y-3.3071
X4.5227Y-4.1317
X4.5236Y-4.2244
X4.5472Y-2.3841
X4.5571Y-2.313
X4.5669Y-4.0197
X4.5669Y-4.2293
X4.5748Y-3.8701
X4.5768Y-3.3071
X4.5768Y-3.4547
X4.5768Y-3.6024
X4.5768Y-3.7402
X4.6142Y-4.2283
X4.622Y-3.8701
X4.6457Y-4.0197
X4.6614Y-4.2293
X4.6693Y-3.8701
X4.6752Y-3.1791
X4.6949Y-3.3071
X4.6949Y-3.4547
X4.6949Y-3.6024
X4.6949Y-3.7402
X4.6969Y-4.1299
X4.7039Y-4.2147
X4.7077Y-3.9134
X4.7077Y-4.
X4.7087Y-3.9567
X4.7165Y-3.8701
X4.7205Y-4.0906
X4.7223Y-4.0433
X4.748Y-4.2047
X4.7736Y-2.9921
X4.7835Y-3.3071
X4.7835Y-3.4547
X4.7835Y-3.6024
X4.7835Y-3.7402
X4.7835Y-4.1772
X4.8071Y-4.1378
X4.811Y-3.8701
X4.8189Y-3.9567
X4.8189Y-4.0472
X4.8189Y-4.0945
X4.8198Y-3.9134
X4.8198Y-4.
X4.874Y-3.8701
X4.9409Y-3.8091
X5.0591Y-2.1693
X5.0721Y-2.4606
X5.0886Y-2.2539
X5.1575Y-2.1654
X5.1614Y-2.3543
X5.2362Y-2.3524
X5.3031Y-2.6339
X5.4921Y-3.0709
X5.5039Y-2.5354
X5.5512Y-3.0709
X5.5551Y-2.5354
T3
X3.6296Y-2.2759
X3.6932Y-2.2123
T4
X2.4606Y-3.6417
X2.5606Y-3.6417
X2.6606Y-3.6417
X2.7606Y-3.6417
X2.8606Y-3.6417
X2.9606Y-3.6417
X3.4685Y-3.0866
X3.4685Y-3.185
X3.7598Y-2.7854
X3.8598Y-2.7854
X3.9598Y-2.7854
X4.0157Y-2.2343
X4.0157Y-2.5295
X4.0598Y-2.7854
X4.1598Y-2.7854
X4.2598Y-2.7854
X4.772Y-2.7461
X4.8622Y-2.9232
X4.8622Y-3.0232
X4.8622Y-3.1232
X4.872Y-2.7461
X5.128Y-3.937
X5.4232Y-3.937
T5
X2.5433Y-2.5197
X2.5433Y-2.7197
X2.5433Y-3.1102
X2.5433Y-3.3102
X5.6732Y-3.2449
X5.6732Y-3.4449
T6
X5.4724Y-2.7008
X5.4724Y-2.8346
X5.4724Y-2.9685
X5.6299Y-2.7677
X5.6299Y-2.9016
T7
X2.5Y-2.1654
X2.5Y-4.1339
X5.7283Y-2.1654
X5.7283Y-4.1339
T0
M30
