G04 #@! TF.FileFunction,Legend,Top*
%FSLAX46Y46*%
G04 Gerber Fmt 4.6, Leading zero omitted, Abs format (unit mm)*
G04 Created by KiCad (PCBNEW (2014-jul-16 BZR unknown)-product) date Sat 31 Jan 2015 01:48:02 PM EST*
%MOMM*%
G01*
G04 APERTURE LIST*
%ADD10C,0.100000*%
%ADD11C,0.200000*%
%ADD12C,0.150000*%
G04 APERTURE END LIST*
D10*
D11*
X142252381Y-100223810D02*
X142252381Y-99652381D01*
X143252381Y-99938096D02*
X142252381Y-99938096D01*
X142252381Y-99128572D02*
X142252381Y-98938095D01*
X142300000Y-98842857D01*
X142395238Y-98747619D01*
X142585714Y-98700000D01*
X142919048Y-98700000D01*
X143109524Y-98747619D01*
X143204762Y-98842857D01*
X143252381Y-98938095D01*
X143252381Y-99128572D01*
X143204762Y-99223810D01*
X143109524Y-99319048D01*
X142919048Y-99366667D01*
X142585714Y-99366667D01*
X142395238Y-99319048D01*
X142300000Y-99223810D01*
X142252381Y-99128572D01*
X142728571Y-97176190D02*
X142776190Y-97033333D01*
X142823810Y-96985714D01*
X142919048Y-96938095D01*
X143061905Y-96938095D01*
X143157143Y-96985714D01*
X143204762Y-97033333D01*
X143252381Y-97128571D01*
X143252381Y-97509524D01*
X142252381Y-97509524D01*
X142252381Y-97176190D01*
X142300000Y-97080952D01*
X142347619Y-97033333D01*
X142442857Y-96985714D01*
X142538095Y-96985714D01*
X142633333Y-97033333D01*
X142680952Y-97080952D01*
X142728571Y-97176190D01*
X142728571Y-97509524D01*
X142252381Y-96509524D02*
X143061905Y-96509524D01*
X143157143Y-96461905D01*
X143204762Y-96414286D01*
X143252381Y-96319048D01*
X143252381Y-96128571D01*
X143204762Y-96033333D01*
X143157143Y-95985714D01*
X143061905Y-95938095D01*
X142252381Y-95938095D01*
X142252381Y-95604762D02*
X142252381Y-95033333D01*
X143252381Y-95319048D02*
X142252381Y-95319048D01*
X142252381Y-94842857D02*
X142252381Y-94271428D01*
X143252381Y-94557143D02*
X142252381Y-94557143D01*
X142252381Y-93747619D02*
X142252381Y-93557142D01*
X142300000Y-93461904D01*
X142395238Y-93366666D01*
X142585714Y-93319047D01*
X142919048Y-93319047D01*
X143109524Y-93366666D01*
X143204762Y-93461904D01*
X143252381Y-93557142D01*
X143252381Y-93747619D01*
X143204762Y-93842857D01*
X143109524Y-93938095D01*
X142919048Y-93985714D01*
X142585714Y-93985714D01*
X142395238Y-93938095D01*
X142300000Y-93842857D01*
X142252381Y-93747619D01*
X143252381Y-92890476D02*
X142252381Y-92890476D01*
X143252381Y-92319047D01*
X142252381Y-92319047D01*
X138547619Y-92800000D02*
X138547619Y-93371429D01*
X137547619Y-93085714D02*
X138547619Y-93085714D01*
X138547619Y-93895238D02*
X138547619Y-94085715D01*
X138500000Y-94180953D01*
X138404762Y-94276191D01*
X138214286Y-94323810D01*
X137880952Y-94323810D01*
X137690476Y-94276191D01*
X137595238Y-94180953D01*
X137547619Y-94085715D01*
X137547619Y-93895238D01*
X137595238Y-93800000D01*
X137690476Y-93704762D01*
X137880952Y-93657143D01*
X138214286Y-93657143D01*
X138404762Y-93704762D01*
X138500000Y-93800000D01*
X138547619Y-93895238D01*
X138547619Y-95419048D02*
X137547619Y-95657143D01*
X138261905Y-95847620D01*
X137547619Y-96038096D01*
X138547619Y-96276191D01*
X137833333Y-96609524D02*
X137833333Y-97085715D01*
X137547619Y-96514286D02*
X138547619Y-96847619D01*
X137547619Y-97180953D01*
X137547619Y-97990477D02*
X137547619Y-97514286D01*
X138547619Y-97514286D01*
X137547619Y-98800001D02*
X137547619Y-98323810D01*
X138547619Y-98323810D01*
D10*
X140900000Y-92450000D02*
X139900000Y-92450000D01*
X140900000Y-91700000D02*
X139900000Y-91700000D01*
X139900000Y-91700000D02*
X140400000Y-92450000D01*
X140400000Y-92450000D02*
X140900000Y-91700000D01*
X141700000Y-89600000D02*
X141700000Y-94800000D01*
X141700000Y-94800000D02*
X139100000Y-94800000D01*
X139100000Y-94800000D02*
X139100000Y-89600000D01*
X139100000Y-89600000D02*
X141700000Y-89600000D01*
X140900000Y-99650000D02*
X139900000Y-99650000D01*
X140900000Y-98900000D02*
X139900000Y-98900000D01*
X139900000Y-98900000D02*
X140400000Y-99650000D01*
X140400000Y-99650000D02*
X140900000Y-98900000D01*
X141700000Y-96800000D02*
X141700000Y-102000000D01*
X141700000Y-102000000D02*
X139100000Y-102000000D01*
X139100000Y-102000000D02*
X139100000Y-96800000D01*
X139100000Y-96800000D02*
X141700000Y-96800000D01*
D12*
X130750000Y-99900000D02*
X128000000Y-99900000D01*
X130750000Y-96900000D02*
X128000000Y-96900000D01*
X130750000Y-94900000D02*
X128000000Y-94900000D01*
X130750000Y-91900000D02*
X128000000Y-91900000D01*
X137000000Y-90360000D02*
X128000000Y-90360000D01*
X128000000Y-90360000D02*
X128000000Y-101520000D01*
X128000000Y-101520000D02*
X137000000Y-101520000D01*
X137000000Y-101520000D02*
X137000000Y-90360000D01*
X150050000Y-91900000D02*
X152800000Y-91900000D01*
X150050000Y-94900000D02*
X152800000Y-94900000D01*
X150050000Y-96900000D02*
X152800000Y-96900000D01*
X150050000Y-99900000D02*
X152800000Y-99900000D01*
X143800000Y-101440000D02*
X152800000Y-101440000D01*
X152800000Y-101440000D02*
X152800000Y-90280000D01*
X152800000Y-90280000D02*
X143800000Y-90280000D01*
X143800000Y-90280000D02*
X143800000Y-101440000D01*
M02*
